<svg xmlns="http://www.w3.org/2000/svg" width="108.246" height="32" viewBox="0 0 108.246 32">
  <g id="Grupo_2623" data-name="Grupo 2623" transform="translate(-516.754 -166)">
    <path id="Rectángulo_1844" data-name="Rectángulo 1844" d="M0,0H98a0,0,0,0,1,0,0V27a5,5,0,0,1-5,5H5a5,5,0,0,1-5-5V0A0,0,0,0,1,0,0Z" transform="translate(522 166)" fill="#ffe752"/>
    <path id="Trazado_1742" data-name="Trazado 1742" d="M20099.855-8215.7l-5.246,6h5.246Z" transform="translate(-19577.855 8381.696)" fill="#b09800"/>
    <path id="Trazado_1744" data-name="Trazado 1744" d="M20094.609-8215.7l5.246,6h-5.246Z" transform="translate(-19474.855 8381.696)" fill="#b09800"/>
    <path id="Trazado_2077" data-name="Trazado 2077" d="M-28.665-7.065c-1.09,0-1.1,0-1.315,1.22l-.83,4.2c-.01.055-.025.07-.085.07s-.065-.015-.075-.07l-.85-4.225c-.215-1.2-.235-1.2-1.3-1.2-1.09,0-1.09,0-1.255,1.225L-35.04-1.1c-.025.155-.09.605-.09.745,0,.18.025.255.575.33a6.037,6.037,0,0,0,.6.055c.17,0,.23-.035.29-.615l.55-4.9c.005-.045.01-.065.065-.065a.063.063,0,0,1,.07.055l.95,4.51c.19.975.19.975,1.13.975s.94,0,1.135-.975l.935-4.51c.01-.05.025-.055.07-.055s.06,0,.065.06l.565,4.96c.05.52.115.555.3.555a5.389,5.389,0,0,0,.675-.07c.265-.045.5-.065.5-.27a4.9,4.9,0,0,0-.065-.57l-.7-4.965C-27.59-7.07-27.585-7.065-28.665-7.065Zm7.555,0h-3.245c-1.005.015-1.005.015-1.005.98v5.1c0,.99,0,.99,1.005.99h3.265c.675,0,.675,0,.675-.66,0-.645,0-.645-.675-.645h-2.87v-1.63H-21.4c.64,0,.64,0,.64-.615s0-.605-.64-.605H-23.96v-1.61h2.85c.675,0,.675,0,.675-.655S-20.435-7.065-21.11-7.065Zm1.87,5.93A2.285,2.285,0,0,0-17.165.1,2.309,2.309,0,0,0-14.84-2.33V-6.345c0-.72,0-.72-.7-.72s-.69,0-.69.72V-2.28a.915.915,0,0,1-.915,1.035,1.047,1.047,0,0,1-.91-.545c-.14-.21-.2-.37-.345-.37-.085,0-.16.02-.52.19s-.49.235-.49.385A1.253,1.253,0,0,0-19.24-1.135ZM-10.43.1a3.071,3.071,0,0,0,3.115-2.84,9.146,9.146,0,0,0,0-1.57A3.075,3.075,0,0,0-10.43-7.16a3.075,3.075,0,0,0-3.115,2.845,9.146,9.146,0,0,0,0,1.57A3.071,3.071,0,0,0-10.43.1Zm0-1.33A1.7,1.7,0,0,1-12.145-2.91a7.335,7.335,0,0,1,0-1.24A1.7,1.7,0,0,1-10.43-5.825,1.71,1.71,0,0,1-8.71-4.15a8.554,8.554,0,0,1,0,1.24A1.71,1.71,0,0,1-10.43-1.235Zm7.44-5.83H-5.04c-.925,0-.925,0-.925.9v5.5c0,.67,0,.67.7.67s.71,0,.71-.67V-2.445h.84c.28,0,.28,0,.435.2l1.69,2.1c.125.15.21.24.33.24.15,0,.235-.08.52-.32.355-.3.42-.38.42-.51a.519.519,0,0,0-.17-.325L-1.96-2.77a1.905,1.905,0,0,0,1.4-1.99A2.235,2.235,0,0,0-2.99-7.065Zm-.1,1.285A.977.977,0,0,1-1.975-4.735c0,.6-.3,1.015-1.19,1.015h-1.39V-5.78Zm11.235-1.3c-.11,0-.185.02-.335.48L6.025-1.415c-.03.085-.025.085-.095.085s-.06,0-.09-.085L4.04-6.62c-.15-.455-.21-.455-.34-.455a2.239,2.239,0,0,0-.54.145c-.445.16-.55.245-.55.37a1.721,1.721,0,0,0,.13.425L4.555-1.11C4.955,0,4.96,0,5.925,0c.945,0,.945,0,1.36-1.14L9.02-5.875a3.606,3.606,0,0,0,.235-.7c0-.105-.08-.185-.58-.365A1.955,1.955,0,0,0,8.145-7.075Zm4.225.01c-.99,0-.99,0-1.185.53L9.14-.915A1.5,1.5,0,0,0,9-.455c0,.125.095.2.59.365a2.126,2.126,0,0,0,.545.125c.135,0,.185-.145.29-.44l.55-1.565h2.77l.555,1.6c.125.375.175.41.3.41a2.08,2.08,0,0,0,.59-.145c.43-.15.535-.215.535-.35a1.83,1.83,0,0,0-.145-.47L13.57-6.535C13.38-7.065,13.38-7.065,12.37-7.065ZM12.375-5.7c.1,0,.1,0,.14.13l.83,2.4H11.39l.84-2.4C12.275-5.7,12.275-5.7,12.375-5.7Zm4.23-.645V-.8c0,.8,0,.8.81.8h3.26c.71,0,.71,0,.71-.685s0-.7-.71-.7h-2.67V-6.345c0-.72,0-.72-.7-.72S16.6-7.065,16.6-6.345ZM25.185.1A3.071,3.071,0,0,0,28.3-2.745a9.146,9.146,0,0,0,0-1.57A3.075,3.075,0,0,0,25.185-7.16,3.075,3.075,0,0,0,22.07-4.315a9.146,9.146,0,0,0,0,1.57A3.071,3.071,0,0,0,25.185.1Zm0-1.33A1.7,1.7,0,0,1,23.47-2.91a7.335,7.335,0,0,1,0-1.24,1.7,1.7,0,0,1,1.715-1.675A1.71,1.71,0,0,1,26.9-4.15a8.553,8.553,0,0,1,0,1.24A1.71,1.71,0,0,1,25.185-1.235Zm7.44-5.83h-2.05c-.925,0-.925,0-.925.9v5.5c0,.67,0,.67.7.67s.71,0,.71-.67V-2.445h.84c.28,0,.28,0,.435.2l1.69,2.1c.125.15.21.24.33.24.15,0,.235-.08.52-.32.355-.3.42-.38.42-.51a.519.519,0,0,0-.17-.325L33.655-2.77a1.905,1.905,0,0,0,1.4-1.99A2.235,2.235,0,0,0,32.625-7.065Zm-.1,1.285A.977.977,0,0,1,33.64-4.735c0,.6-.305,1.015-1.19,1.015H31.06V-5.78Z" transform="translate(570.416 186)" fill="#4a4a4a"/>
  </g>
</svg>
