<svg xmlns="http://www.w3.org/2000/svg" width="123" height="122.692" viewBox="0 0 123 122.692">
  <g id="Grupo_2281" data-name="Grupo 2281" transform="translate(-320 -146)">
    <path id="Trazado_1746" data-name="Trazado 1746" d="M133.939-50.692,191.117,6V72l-123-122.692Z" transform="translate(251.883 196.692)" fill="#4a4a4a" opacity="0.1"/>
    <path id="Trazado_1745" data-name="Trazado 1745" d="M125.939-50.692,187.117,10V68l-119-118.692Z" transform="translate(255.883 196.692)" fill="#fff"/>
    <path id="Trazado_1751" data-name="Trazado 1751" d="M-55.919-6.336c-.806,0-.806,0-.806.743V-.509c0,.509,0,.509.522.509s.513,0,.513-.509V-2.138c0-.914,0-2.1-.063-2.97l.027,0,2.754,4.7c.229.41.229.41.909.41s.68,0,.68-.711V-5.8c0-.536,0-.536-.522-.536s-.522,0-.522.536v1.165c0,.986,0,2.43.067,3.366h-.022l-2.731-4.64C-55.343-6.336-55.352-6.336-55.919-6.336Zm5.99,2.093v2.412a1.792,1.792,0,0,0,2,1.917,3.3,3.3,0,0,0,1.863-.518c.185-.126.189-.13.189-.378V-4.253c0-.527,0-.527-.513-.527s-.508,0-.508.527V-1.2a1.864,1.864,0,0,1-1.013.275.887.887,0,0,1-1-.932v-2.39c0-.536,0-.536-.517-.536S-49.93-4.779-49.93-4.244Zm9.419,1.656V-2.84a1.9,1.9,0,0,0-2.016-2.025,1.962,1.962,0,0,0-2.07,1.89,9.4,9.4,0,0,0,0,1.13A2,2,0,0,0-42.446.086a3.521,3.521,0,0,0,1.417-.3c.212-.1.261-.162.261-.239a.82.82,0,0,0-.108-.32c-.121-.27-.175-.356-.284-.356a1.09,1.09,0,0,0-.319.108,2.447,2.447,0,0,1-.972.185,1.036,1.036,0,0,1-1.174-1.049V-2h2.552C-40.579-2-40.511-2.048-40.511-2.588Zm-1.053-.153h-2.061c-.014-.77.347-1.251,1.107-1.251a1,1,0,0,1,1.067,1.134C-41.456-2.741-41.452-2.741-41.564-2.741ZM-36.182-4.8c-.126,0-.162.085-.216.261L-37.582-.99c-.014.04-.023.049-.054.049s-.041-.009-.054-.049l-1.174-3.537c-.059-.175-.1-.279-.225-.279a1.683,1.683,0,0,0-.414.095c-.342.112-.4.153-.4.266a1.5,1.5,0,0,0,.112.387l1.368,3.686c.139.374.135.374.778.374s.648,0,.787-.369l1.386-3.681a1.58,1.58,0,0,0,.108-.365c0-.108-.054-.153-.446-.288A1.405,1.405,0,0,0-36.182-4.8Zm3.465-.063A2.007,2.007,0,0,0-34.814-3a7.155,7.155,0,0,0,0,1.242,2.015,2.015,0,0,0,2.1,1.845,2.015,2.015,0,0,0,2.1-1.845,7.311,7.311,0,0,0,0-1.256A2,2,0,0,0-32.717-4.865Zm0,.99a1.021,1.021,0,0,1,1.085.99,6.058,6.058,0,0,1,0,.99,1.021,1.021,0,0,1-1.085.99,1.015,1.015,0,0,1-1.08-.99,5.291,5.291,0,0,1,0-1A1.013,1.013,0,0,1-32.717-3.875Zm7.682-.99a3.437,3.437,0,0,0-1.872.563.31.31,0,0,0-.144.3v5.22c0,.527,0,.527.513.527s.509,0,.509-.527V-.158a2.954,2.954,0,0,0,1.107.243,1.893,1.893,0,0,0,1.976-1.832,8.423,8.423,0,0,0,0-1.305A1.97,1.97,0,0,0-25.036-4.865Zm-.009.986a1.015,1.015,0,0,1,1.08.99,6.33,6.33,0,0,1,0,1.013A.978.978,0,0,1-25.018-.9a2.083,2.083,0,0,1-1.012-.266V-3.578A1.891,1.891,0,0,1-25.045-3.879Zm5.8-.873a3.543,3.543,0,0,0-.878-.113,1.384,1.384,0,0,0-1.539,1.494V-.477c0,.477,0,.477.517.477s.5,0,.5-.477V-3.2c0-.477.216-.662.625-.662a1.9,1.9,0,0,1,.455.049,1.6,1.6,0,0,0,.306.054c.139,0,.184-.081.266-.356a1.426,1.426,0,0,0,.09-.382C-18.9-4.635-19.046-4.7-19.244-4.752Zm3.055-.113A2.007,2.007,0,0,0-18.286-3a7.155,7.155,0,0,0,0,1.242,2.015,2.015,0,0,0,2.1,1.845,2.015,2.015,0,0,0,2.1-1.845,7.311,7.311,0,0,0,0-1.256A2,2,0,0,0-16.189-4.865Zm0,.99a1.021,1.021,0,0,1,1.084.99,6.058,6.058,0,0,1,0,.99,1.021,1.021,0,0,1-1.084.99,1.015,1.015,0,0,1-1.08-.99,5.291,5.291,0,0,1,0-1A1.013,1.013,0,0,1-16.189-3.875Zm3.141.824a9.317,9.317,0,0,0,0,1.278A1.934,1.934,0,0,0-10.973.086,3.423,3.423,0,0,0-9.119-.473.381.381,0,0,0-8.93-.846V-5.882c0-.527,0-.527-.513-.527s-.513,0-.513.527v1.26A3.127,3.127,0,0,0-11.1-4.865,1.813,1.813,0,0,0-13.048-3.051Zm1.022,1.143a6.969,6.969,0,0,1,0-1.017.9.9,0,0,1,1-.954,2.289,2.289,0,0,1,1.071.266v2.39a1.966,1.966,0,0,1-.99.306A.965.965,0,0,1-12.026-1.908Zm4.473-2.336v2.412a1.792,1.792,0,0,0,2,1.917A3.3,3.3,0,0,0-3.688-.432C-3.5-.558-3.5-.563-3.5-.81V-4.253c0-.527,0-.527-.513-.527s-.508,0-.508.527V-1.2a1.864,1.864,0,0,1-1.013.275.887.887,0,0,1-1-.932v-2.39c0-.536,0-.536-.518-.536S-7.553-4.779-7.553-4.244Zm7.447-.621A1.981,1.981,0,0,0-2.221-3.033a10.472,10.472,0,0,0,0,1.247A2.022,2.022,0,0,0-.128.086,1.917,1.917,0,0,0,1.753-.995a1.346,1.346,0,0,0,.117-.4c0-.1-.059-.135-.387-.252a1.455,1.455,0,0,0-.4-.108c-.108,0-.135.108-.2.248A1.028,1.028,0,0,1-.106-.9,1.029,1.029,0,0,1-1.2-1.913a7.268,7.268,0,0,1,0-.99,1.018,1.018,0,0,1,1.1-.977,1.029,1.029,0,0,1,.99.6c.081.148.095.247.194.247a2.066,2.066,0,0,0,.409-.113c.27-.09.36-.117.36-.238a1.238,1.238,0,0,0-.09-.392A1.905,1.905,0,0,0-.106-4.865ZM5.542-.135c.167-.072.243-.131.243-.221A.972.972,0,0,0,5.69-.693C5.6-.95,5.56-1.04,5.434-1.04a1.045,1.045,0,0,0-.256.054,1.9,1.9,0,0,1-.612.113c-.441,0-.644-.261-.644-.707V-3.839H5.11c.49,0,.49,0,.49-.459s0-.482-.49-.482H3.922v-.6c0-.536,0-.536-.513-.536s-.5,0-.5.536v3.8A1.465,1.465,0,0,0,4.43.086,2.754,2.754,0,0,0,5.542-.135Zm3.132-4.73A2.007,2.007,0,0,0,6.577-3a7.155,7.155,0,0,0,0,1.242A2.015,2.015,0,0,0,8.674.086a2.015,2.015,0,0,0,2.1-1.845,7.311,7.311,0,0,0,0-1.256A2,2,0,0,0,8.674-4.865Zm0,.99a1.021,1.021,0,0,1,1.084.99,6.058,6.058,0,0,1,0,.99A1.021,1.021,0,0,1,8.674-.9a1.015,1.015,0,0,1-1.08-.99,5.291,5.291,0,0,1,0-1A1.013,1.013,0,0,1,8.674-3.875Zm5.508.824a9.317,9.317,0,0,0,0,1.278A1.934,1.934,0,0,0,16.256.086,3.423,3.423,0,0,0,18.11-.473.381.381,0,0,0,18.3-.846V-5.882c0-.527,0-.527-.513-.527s-.513,0-.513.527v1.26a3.127,3.127,0,0,0-1.148-.243A1.813,1.813,0,0,0,14.182-3.051ZM15.2-1.908a6.969,6.969,0,0,1,0-1.017.9.9,0,0,1,1-.954,2.289,2.289,0,0,1,1.071.266v2.39a1.966,1.966,0,0,1-.99.306A.965.965,0,0,1,15.2-1.908Zm5.616-4.064c0-.554,0-.554-.558-.554s-.553,0-.553.554c0,.572,0,.572.553.572S20.819-5.4,20.819-5.972Zm-.558,1.193c-.5,0-.5,0-.5.522V-.486c0,.486,0,.486.5.486s.517,0,.517-.486V-4.257C20.779-4.779,20.779-4.779,20.261-4.779Zm3.6-.086c-1.026,0-1.8.545-1.8,1.463,0,.747.531,1.166,1.264,1.345.3.072.419.1.693.162.432.108.594.266.594.508,0,.32-.261.558-.792.558a1.939,1.939,0,0,1-1.134-.338.61.61,0,0,0-.27-.131c-.1,0-.157.063-.319.275s-.189.257-.189.324c0,.1.081.171.2.257a2.684,2.684,0,0,0,1.705.527c1.017,0,1.8-.567,1.8-1.494,0-.725-.427-1.152-1.327-1.377-.112-.027-.392-.086-.635-.144-.455-.108-.6-.261-.6-.491,0-.324.266-.517.77-.517a1.644,1.644,0,0,1,.774.193c.158.081.221.135.311.135s.148-.059.3-.257.2-.261.2-.342-.045-.144-.171-.252A2.346,2.346,0,0,0,23.861-4.865Zm4.86,0a3.437,3.437,0,0,0-1.872.563.31.31,0,0,0-.144.3v5.22c0,.527,0,.527.513.527s.509,0,.509-.527V-.158a2.954,2.954,0,0,0,1.107.243,1.893,1.893,0,0,0,1.976-1.832,8.423,8.423,0,0,0,0-1.305A1.97,1.97,0,0,0,28.721-4.865Zm-.009.986a1.015,1.015,0,0,1,1.08.99,6.33,6.33,0,0,1,0,1.013A.978.978,0,0,1,28.739-.9a2.083,2.083,0,0,1-1.012-.266V-3.578A1.891,1.891,0,0,1,28.712-3.879Zm5.243-.986A2.007,2.007,0,0,0,31.858-3a7.155,7.155,0,0,0,0,1.242,2.015,2.015,0,0,0,2.1,1.845,2.015,2.015,0,0,0,2.1-1.845,7.31,7.31,0,0,0,0-1.256A2,2,0,0,0,33.955-4.865Zm0,.99a1.021,1.021,0,0,1,1.085.99,6.058,6.058,0,0,1,0,.99,1.021,1.021,0,0,1-1.085.99,1.015,1.015,0,0,1-1.08-.99,5.291,5.291,0,0,1,0-1A1.013,1.013,0,0,1,33.955-3.875ZM41.4-.486V-2.934a1.76,1.76,0,0,0-1.989-1.931,3.38,3.38,0,0,0-1.881.49.408.408,0,0,0-.189.392v3.5c0,.486,0,.486.513.486s.5,0,.5-.486V-3.6a2.077,2.077,0,0,1,1.026-.257.9.9,0,0,1,.994.968v2.4c0,.486,0,.486.509.486S41.4,0,41.4-.486Zm2.453-5.486c0-.554,0-.554-.558-.554s-.554,0-.554.554c0,.572,0,.572.554.572S43.855-5.4,43.855-5.972ZM43.3-4.779c-.5,0-.5,0-.5.522V-.486c0,.486,0,.486.5.486s.517,0,.517-.486V-4.257C43.814-4.779,43.814-4.779,43.3-4.779Zm6.066,1.724a1.812,1.812,0,0,0-1.944-1.809,3.152,3.152,0,0,0-1.152.243v-1.26c0-.527,0-.527-.508-.527s-.513,0-.513.527V-.851a.388.388,0,0,0,.194.374,3.408,3.408,0,0,0,1.845.563,1.941,1.941,0,0,0,2.079-1.863A10.092,10.092,0,0,0,49.363-3.056ZM48.346-1.913a.973.973,0,0,1-1.084.99,1.969,1.969,0,0,1-.994-.311V-3.614a2.31,2.31,0,0,1,1.076-.266.912.912,0,0,1,1,.972C48.359-2.682,48.364-2.183,48.346-1.913Zm2.808-4.518c-.508,0-.508,0-.508.536V-.486c0,.486,0,.486.508.486s.508,0,.508-.486V-5.9C51.662-6.431,51.658-6.431,51.154-6.431Zm5.877,3.843V-2.84a1.9,1.9,0,0,0-2.016-2.025,1.962,1.962,0,0,0-2.07,1.89,9.4,9.4,0,0,0,0,1.13A2,2,0,0,0,55.1.086a3.521,3.521,0,0,0,1.417-.3c.212-.1.261-.162.261-.239a.82.82,0,0,0-.108-.32c-.121-.27-.175-.356-.284-.356a1.09,1.09,0,0,0-.319.108,2.447,2.447,0,0,1-.972.185,1.036,1.036,0,0,1-1.174-1.049V-2h2.552C56.963-2,57.031-2.048,57.031-2.588Zm-1.053-.153H53.917c-.014-.77.347-1.251,1.107-1.251A1,1,0,0,1,56.09-2.858C56.086-2.741,56.09-2.741,55.978-2.741Z" transform="translate(389.879 199.121) rotate(45)" fill="#4a4a4a"/>
    <path id="Trazado_1750" data-name="Trazado 1750" d="M-44-7.464v6.408C-44,0-44,0-42.933,0h3.816c1.032,0,1.032,0,1.032-1S-38.085-2-39.117-2h-2.844v-5.46c0-1.044,0-1.044-1.02-1.044S-44-8.508-44-7.464Zm11.04-1.044c-1.344,0-1.344,0-1.584.66l-2.364,6.5a2.355,2.355,0,0,0-.2.684c0,.18.12.288.864.528a2.8,2.8,0,0,0,.792.18c.2,0,.276-.228.42-.648l.528-1.536h3.078L-30.9-.552c.186.552.258.6.438.6a3.146,3.146,0,0,0,.852-.2c.624-.216.78-.312.78-.5a2.722,2.722,0,0,0-.21-.684l-2.31-6.5C-31.587-8.508-31.587-8.508-32.961-8.508Zm.006,1.992c.066,0,.066,0,.1.1l.852,2.556h-1.926l.882-2.556C-33.015-6.516-33.015-6.516-32.955-6.516Zm6.486-1.992c-1.5,0-1.5,0-1.5,1.62V-.972c0,.972,0,.972,1.02.972,1,0,1,0,1-.972v-1.98A26.213,26.213,0,0,0-26.1-5.964l.036-.012,2.754,5.2c.414.78.414.78,1.662.78,1.284,0,1.284,0,1.284-1.512V-7.464c0-1.044,0-1.044-1.02-1.044s-1.02,0-1.02,1.044v1.548A30.117,30.117,0,0,0-22.269-2.6h-.036L-24.963-7.62C-25.431-8.5-25.449-8.508-26.469-8.508Zm12.744,0h-4.356c-1.02,0-1.02,0-1.02,1.008s0,1.008,1.02,1.008h2.646l-3.354,4.164c-.492.612-.558.75-.276,1.38.42.924.48.948.936.948h4.536c1.032,0,1.032,0,1.032-1S-12.561-2-13.593-2h-3.018l3.342-4.218c.588-.744.588-.744.384-1.458C-13.107-8.46-13.161-8.508-13.725-8.508Zm5.868,0c-1.344,0-1.344,0-1.584.66l-2.364,6.5a2.355,2.355,0,0,0-.2.684c0,.18.12.288.864.528a2.8,2.8,0,0,0,.792.18c.2,0,.276-.228.42-.648L-9.4-2.136h3.078L-5.8-.552c.186.552.258.6.438.6a3.146,3.146,0,0,0,.852-.2c.624-.216.78-.312.78-.5a2.722,2.722,0,0,0-.21-.684l-2.31-6.5C-6.483-8.508-6.483-8.508-7.857-8.508Zm.006,1.992c.066,0,.066,0,.1.1L-6.9-3.864H-8.829l.882-2.556C-7.911-6.516-7.911-6.516-7.851-6.516ZM4.875-8.508c-1.524,0-1.536,0-1.824,1.7l-.744,4.38a.064.064,0,0,1-.072.072c-.036,0-.06-.024-.06-.072L1.419-6.8c-.288-1.7-.324-1.7-1.836-1.7s-1.512,0-1.74,1.716l-.7,5.184c-.036.228-.132.9-.132,1.092,0,.252.024.372.828.48a7.359,7.359,0,0,0,.9.084c.24,0,.336-.048.42-.9l.5-5.34c0-.024.012-.06.048-.06s.048.036.048.048L.687-1.356C.939,0,.939,0,2.235,0S3.543,0,3.8-1.356L4.7-6.2a.044.044,0,0,1,.048-.048c.036,0,.048.012.048.048L5.307-.768c.072.768.168.816.432.816A7.87,7.87,0,0,0,6.747-.06c.336-.06.7-.084.7-.384a7.241,7.241,0,0,0-.084-.8L6.615-6.792C6.387-8.52,6.4-8.508,4.875-8.508ZM8.811-7.464v6.42C8.811,0,8.811,0,9.831,0s1.02,0,1.02-1.008V-7.464c0-1.044,0-1.044-1.02-1.044S8.811-8.508,8.811-7.464Zm8.826-1.044H13.863c-1.4.024-1.4.024-1.4,1.356V-1.38c0,1.38,0,1.38,1.4,1.38h3.8c.972,0,.972,0,.972-.948s0-.936-.972-.936H14.5V-3.4h2.682c.912,0,.912,0,.912-.876s0-.864-.912-.864H14.5v-1.5h3.138c.972,0,.972,0,.972-.948C18.609-8.508,18.609-8.508,17.637-8.508Zm3.834,0c-1.5,0-1.5,0-1.5,1.62V-.972c0,.972,0,.972,1.02.972,1,0,1,0,1-.972v-1.98a26.214,26.214,0,0,0-.144-3.012l.036-.012,2.754,5.2c.414.78.414.78,1.662.78,1.284,0,1.284,0,1.284-1.512V-7.464c0-1.044,0-1.044-1.02-1.044s-1.02,0-1.02,1.044v1.548A30.117,30.117,0,0,0,25.671-2.6h-.036L22.977-7.62C22.509-8.5,22.491-8.508,21.471-8.508Zm9.672,2.016V-.984c0,.984,0,.984,1.032.984,1.008,0,1.008,0,1.008-.984V-6.492h1.524c1.032,0,1.032,0,1.032-1.008s0-1.008-1.032-1.008H29.619c-1.032,0-1.032,0-1.032,1.008s0,1.008,1.032,1.008ZM40.371.12a3.78,3.78,0,0,0,3.846-3.444,10.7,10.7,0,0,0,0-1.86,3.78,3.78,0,0,0-3.846-3.444,3.78,3.78,0,0,0-3.846,3.444,10.7,10.7,0,0,0,0,1.86A3.78,3.78,0,0,0,40.371.12Zm0-1.926A1.794,1.794,0,0,1,38.559-3.6a9.515,9.515,0,0,1,0-1.308A1.794,1.794,0,0,1,40.371-6.7a1.794,1.794,0,0,1,1.812,1.794,9.516,9.516,0,0,1,0,1.308A1.794,1.794,0,0,1,40.371-1.806Z" transform="translate(399.879 190.121) rotate(45)" fill="#ff7045"/>
  </g>
</svg>
