<svg xmlns="http://www.w3.org/2000/svg" width="11.388" height="11.999" viewBox="0 0 11.388 11.999"><path d="M12.09-3.965v.195q0,2.873-.858,3.51a1.6,1.6,0,0,1-.611.3,3.338,3.338,0,0,1-.7.065A2.454,2.454,0,0,1,9.23.02a1.407,1.407,0,0,1-.442-.2A1.176,1.176,0,0,1,8.4-.7,7.026,7.026,0,0,1,7.182-.15,3.492,3.492,0,0,1,6.1.091,3.694,3.694,0,0,1,5.421.039,1.8,1.8,0,0,1,4.83-.208a1.667,1.667,0,0,1-.54-.546A4.829,4.829,0,0,1,3.8-3.237a4.368,4.368,0,0,1,.592-2.522,2.372,2.372,0,0,1,2.073-.832,3.855,3.855,0,0,1,1.339.26l.247.091v-.221h.78v2.535A13.116,13.116,0,0,0,9-1.092a.862.862,0,0,0,.182.332.489.489,0,0,0,.292.175,2.94,2.94,0,0,0,.442.026A1.948,1.948,0,0,0,10.374-.6a.911.911,0,0,0,.377-.221,1.114,1.114,0,0,0,.3-.514,9.549,9.549,0,0,0,.234-2.431v-.208a4.989,4.989,0,0,0-1.092-3.595A5.006,5.006,0,0,0,6.526-8.684a5.142,5.142,0,0,0-3.8,1.235Q1.508-6.214,1.508-3.328T2.685.741A5.3,5.3,0,0,0,6.552,1.924l1.859-.13.039.7q-1.248.13-1.9.13A9.744,9.744,0,0,1,4,2.34,4.492,4.492,0,0,1,2.2,1.378Q.7.065.7-3.243T2.164-7.963A6.086,6.086,0,0,1,6.546-9.373a5.784,5.784,0,0,1,4.231,1.319A5.591,5.591,0,0,1,12.09-3.965ZM8.177-1.274a7.693,7.693,0,0,1-.091-1.073q-.039-.864-.039-1.384V-5.59a4.534,4.534,0,0,0-1.482-.3,1.726,1.726,0,0,0-1.573.65,3.981,3.981,0,0,0-.416,2.08A3.208,3.208,0,0,0,5.07-1.04a1.5,1.5,0,0,0,1.105.429A5.089,5.089,0,0,0,8.177-1.274Z" transform="translate(-0.702 9.373)" fill="#fff"/></svg>