<svg xmlns="http://www.w3.org/2000/svg" width="100" height="100" viewBox="0 0 100 100"><g transform="translate(-494 -523)"><circle cx="46" cy="46" r="46" transform="translate(498 527)" fill="#d1d1d1"/><g transform="translate(517.639 553.5)"><path d="M45.971.5h-3.02a.768.768,0,1,0,0,1.535h3.02a4.193,4.193,0,0,1,4.183,4l-19,15.819a8.293,8.293,0,0,1-10.616,0L1.541,6.03A4.193,4.193,0,0,1,5.724,2.035H39.881a.768.768,0,1,0,0-1.535H5.724A5.731,5.731,0,0,0,0,6.224V24.539a.768.768,0,0,0,1.535,0V8.024l18.021,15a9.829,9.829,0,0,0,12.582,0l18.021-15V33.584a4.052,4.052,0,0,1-4.048,4.048H5.584a4.052,4.052,0,0,1-4.048-4.048V27.611a.768.768,0,1,0-1.535,0v5.973a5.59,5.59,0,0,0,5.584,5.583H46.112A5.59,5.59,0,0,0,51.7,33.584V6.224A5.731,5.731,0,0,0,45.971.5Zm0,0" transform="translate(0)" fill="#fff" stroke="#fff" stroke-width="0.5"/><path d="M341.761,240.3a.768.768,0,1,0,.982-1.18L330.5,228.932a.768.768,0,1,0-.982,1.18Zm0,0" transform="translate(-296 -205.209)" fill="#fff" stroke="#fff" stroke-width="0.5"/><path d="M47.074,240.479a.763.763,0,0,0,.491-.177l12.242-10.193a.768.768,0,0,0-.982-1.18L46.583,239.122a.768.768,0,0,0,.491,1.358Zm0,0" transform="translate(-41.63 -205.205)" fill="#fff" stroke="#fff" stroke-width="0.5"/></g><g transform="translate(494 523)" fill="none" stroke="#adadad" stroke-linecap="round" stroke-width="1" stroke-dasharray="0 5"><circle cx="50" cy="50" r="50" stroke="none"/><circle cx="50" cy="50" r="49.5" fill="none"/></g></g></svg>