<svg xmlns="http://www.w3.org/2000/svg" width="100" height="100" viewBox="0 0 100 100"><g transform="translate(-383 -523)"><circle cx="46" cy="46" r="46" transform="translate(387 527)" fill="#d1d1d1"/><g transform="translate(401.109 544.052)"><path d="M65.6,35.687a1.065,1.065,0,0,0-1.771.864l1.156,17.778a1.077,1.077,0,0,0,.7.913,1.1,1.1,0,0,0,.365.061,1.077,1.077,0,0,0,.773-.329l3.918-4.125,4.588,8.986a1.06,1.06,0,1,0,1.9-.943l-4.557-8.938,5.6-.541a1.065,1.065,0,0,0,.608-1.856Zm5.305,12.3a1.071,1.071,0,0,0-.669.322l-3.261,3.456-.834-12.777L75.662,47.5Z" transform="translate(-24.668 -8.281)" fill="#fff"/><path d="M66.615,27.148a1.065,1.065,0,0,0,1.065-1.065V21.825a1.065,1.065,0,0,0-2.129,0v4.259A1.065,1.065,0,0,0,66.615,27.148Z" transform="translate(-25.343 -2.541)" fill="#fff"/><path d="M75.58,38.855a1.065,1.065,0,0,0,1.065,1.065H80.9a1.065,1.065,0,1,0,0-2.129H76.645a1.065,1.065,0,0,0-1.065,1.065Z" transform="translate(-29.27 -9.21)" fill="#fff"/><path d="M54.888,38.845a1.065,1.065,0,0,0-1.065-1.065H49.565a1.065,1.065,0,1,0,0,2.129h4.259A1.065,1.065,0,0,0,54.888,38.845Z" transform="translate(-18.666 -9.206)" fill="#fff"/><path d="M57.579,30.892a1.047,1.047,0,0,0,.754-.316,1.065,1.065,0,0,0,0-1.5l-3-3A1.076,1.076,0,0,0,53.8,27.582l3.042,2.993a1.047,1.047,0,0,0,.736.316Z" transform="translate(-20.621 -4.496)" fill="#fff"/><path d="M75.917,26.08l-3,3a1.065,1.065,0,1,0,1.5,1.5l3-2.993a1.065,1.065,0,0,0-1.5-1.509Z" transform="translate(-28.087 -4.503)" fill="#fff"/><path d="M56.841,45.268,53.8,48.262a1.067,1.067,0,1,0,1.509,1.509l3-3a1.065,1.065,0,0,0-1.466-1.5Z" transform="translate(-20.619 -12.064)" fill="#fff"/><path d="M54.426,14.27H10.06A9.254,9.254,0,0,0,.83,23.512v1.1a9.254,9.254,0,0,0,9.23,9.242H25.708a1.065,1.065,0,1,0,0-2.129H10.06a7.119,7.119,0,0,1-7.1-7.112v-1.1a7.119,7.119,0,0,1,7.1-7.112H54.426a1.065,1.065,0,1,0,0-2.129Z" transform="translate(0 0)" fill="#fff"/><path d="M29.836,23.9a1.071,1.071,0,0,0-.937-.608,1.089,1.089,0,0,0-.961.566l-2.744,5.208-2.549-5.372a1.053,1.053,0,0,0-.937-.608,1.071,1.071,0,0,0-.943.56l-2.878,5.354-2.2-5.178a1.065,1.065,0,1,0-1.959.834l3.085,7.222a1.065,1.065,0,0,0,1.917.085l2.9-5.433L24.2,31.914a1.065,1.065,0,0,0,1.9.037l2.762-5.239,2.58,5.214a1.059,1.059,0,0,0,.955.608,1.077,1.077,0,0,0,.468-.11,1.065,1.065,0,0,0,.456-1.442Z" transform="translate(-5.016 -3.45)" fill="#fff"/></g><g transform="translate(383 523)" fill="none" stroke="#adadad" stroke-linecap="round" stroke-width="1" stroke-dasharray="0 5"><circle cx="50" cy="50" r="50" stroke="none"/><circle cx="50" cy="50" r="49.5" fill="none"/></g></g></svg>