<svg xmlns="http://www.w3.org/2000/svg" width="100" height="100" viewBox="0 0 100 100"><g transform="translate(-272 -523)"><circle cx="46" cy="46" r="46" transform="translate(276 527)" fill="#d1d1d1"/><g transform="translate(293.316 549.26)"><path d="M133.463,317.623a4.962,4.962,0,1,0-4.962,4.962A4.962,4.962,0,0,0,133.463,317.623Zm-8.165,0a3.2,3.2,0,1,1,3.2,3.2A3.2,3.2,0,0,1,125.3,317.623Zm0,0" transform="translate(-108.007 -273.351)" fill="#fff" stroke="#fff" stroke-width="0.3"/><path d="M274.661,322.585a4.962,4.962,0,1,0-4.962-4.962A4.962,4.962,0,0,0,274.661,322.585Zm0-8.165a3.2,3.2,0,1,1-3.2,3.2A3.2,3.2,0,0,1,274.661,314.421Zm0,0" transform="translate(-235.792 -273.351)" fill="#fff" stroke="#fff" stroke-width="0.3"/><path d="M.879,1.76H6.248A3.57,3.57,0,0,1,9.79,4.786l4.25,26.844a5.322,5.322,0,0,0,5.28,4.51H45.587a.88.88,0,0,0,0-1.76H19.32a3.57,3.57,0,0,1-3.542-3.026l-.722-4.564h26.9a5.349,5.349,0,0,0,5.052-3.6L52,8.789a.88.88,0,0,0-.831-1.169H12.02l-.492-3.11A5.322,5.322,0,0,0,6.248,0H.879a.88.88,0,0,0,0,1.76ZM49.933,9.381,45.347,22.618a3.588,3.588,0,0,1-3.389,2.412H14.776L12.3,9.381Zm0,0" transform="translate(0 0)" fill="#fff" stroke="#fff" stroke-width="0.3"/></g><g transform="translate(272 523)" fill="none" stroke="#adadad" stroke-linecap="round" stroke-width="1" stroke-dasharray="0 5"><circle cx="50" cy="50" r="50" stroke="none"/><circle cx="50" cy="50" r="49.5" fill="none"/></g></g></svg>