<svg xmlns="http://www.w3.org/2000/svg" width="49.913" height="49.911" viewBox="0 0 49.913 49.911">
  <g id="_001-website" data-name="001-website" transform="translate(-2.65 -2.65)">
    <path id="Uni贸n_9" data-name="Uni贸n 9" d="M7670.69,10747.615a1.025,1.025,0,0,1,0-2.051h1.025a2.054,2.054,0,0,0,2.05-2.05v-26.657h-45.11v26.657a2.056,2.056,0,0,0,2.05,2.05h21.53a1.025,1.025,0,0,1,0,2.051h-21.53a4.106,4.106,0,0,1-4.1-4.1v-32.81a4.1,4.1,0,0,1,4.1-4.1h41.01a4.105,4.105,0,0,1,4.1,4.1v32.81a4.106,4.106,0,0,1-4.1,4.1Zm3.075-32.808v-4.1a2.053,2.053,0,0,0-2.05-2.05h-41.01a2.055,2.055,0,0,0-2.05,2.05v4.1Z" transform="translate(-7623.605 -10703.605)" fill="#fff" stroke="#4a4a4a" stroke-width="0.7"/>
    <g id="Grupo_2484" data-name="Grupo 2484" transform="translate(7.101 7.101)">
      <path id="Trazado_1903" data-name="Trazado 1903" d="M7.05,7.05H6.025a1.025,1.025,0,0,1,0-2.05H7.05a1.025,1.025,0,1,1,0,2.05Z" transform="translate(-5 -5)" fill="#fff" stroke="#4a4a4a" stroke-width="0.7"/>
    </g>
    <g id="Grupo_2485" data-name="Grupo 2485" transform="translate(11.714 7.101)">
      <path id="Trazado_1904" data-name="Trazado 1904" d="M9.3,7.05H8.275a1.025,1.025,0,1,1,0-2.05H9.3a1.025,1.025,0,1,1,0,2.05Z" transform="translate(-7.25 -5)" fill="#fff" stroke="#4a4a4a" stroke-width="0.7"/>
    </g>
    <g id="Grupo_2486" data-name="Grupo 2486" transform="translate(16.328 7.101)">
      <path id="Trazado_1905" data-name="Trazado 1905" d="M11.55,7.05H10.525a1.025,1.025,0,1,1,0-2.05H11.55a1.025,1.025,0,1,1,0,2.05Z" transform="translate(-9.5 -5)" fill="#fff" stroke="#4a4a4a" stroke-width="0.7"/>
    </g>
    <g id="Grupo_2487" data-name="Grupo 2487" transform="translate(13.252 21.454)">
      <path id="Trazado_1906" data-name="Trazado 1906" d="M12.1,24.3A4.105,4.105,0,0,1,8,20.2V16.1a4.1,4.1,0,0,1,7.88-1.6,1.026,1.026,0,1,1-1.888.8,2.051,2.051,0,0,0-3.941.8v4.1a2.05,2.05,0,0,0,3.937.8,1.026,1.026,0,1,1,1.886.808A4.1,4.1,0,0,1,12.1,24.3Z" transform="translate(-8 -12)" fill="#fff" stroke="#4a4a4a" stroke-width="0.7"/>
    </g>
    <g id="Grupo_2488" data-name="Grupo 2488" transform="translate(23.505 21.454)">
      <path id="Trazado_1907" data-name="Trazado 1907" d="M17.1,24.3A4.105,4.105,0,0,1,13,20.2V16.1a4.1,4.1,0,1,1,8.2,0v4.1A4.105,4.105,0,0,1,17.1,24.3Zm0-10.252a2.054,2.054,0,0,0-2.05,2.05v4.1a2.05,2.05,0,1,0,4.1,0V16.1A2.054,2.054,0,0,0,17.1,14.05Z" transform="translate(-13 -12)" fill="#fff" stroke="#4a4a4a" stroke-width="0.7"/>
    </g>
    <path id="Uni贸n_8" data-name="Uni贸n 8" d="M7638.909,10717.884v-7.178a2.051,2.051,0,0,0-4.1,0v7.178a1.025,1.025,0,0,1-2.05,0v-7.178a2.05,2.05,0,0,0-4.1,0v7.178a1.026,1.026,0,0,1-2.053,0v-10.252a1.027,1.027,0,0,1,1.962-.423,7.652,7.652,0,0,0,8.293-.6,4.1,4.1,0,0,1,4.1,4.1v7.178a1.025,1.025,0,0,1-2.05,0Z" transform="translate(-7592.849 -10685.151)" fill="#fff" stroke="#4a4a4a" stroke-width="0.7"/>
    <g id="Grupo_2492" data-name="Grupo 2492" transform="translate(7.614 30.681)">
      <circle id="Elipse_120" data-name="Elipse 120" cx="1.538" cy="1.538" r="1.538" fill="#fff" stroke="#4a4a4a" stroke-width="0.7"/>
    </g>
    <g id="Grupo_2493" data-name="Grupo 2493" transform="translate(31.706 37.858)">
      <path id="Trazado_1911" data-name="Trazado 1911" d="M18.025,34.353a1.008,1.008,0,0,1-.336-.057A1.025,1.025,0,0,1,17,33.328v-12.3a1.025,1.025,0,0,1,1.538-.888l10.654,6.151a1.024,1.024,0,0,1-.365,1.9l-6.149.9-3.849,4.876a1.02,1.02,0,0,1-.8.392ZM19.05,22.8v7.572l2.272-2.879a1.016,1.016,0,0,1,.656-.379l3.631-.529Z" transform="translate(-17 -20)" fill="#fff" stroke="#4a4a4a" stroke-width="0.7"/>
    </g>
  </g>
</svg>
