<?xml version="1.0" encoding="utf-8"?>
<!-- Generator: Adobe Illustrator 25.2.3, SVG Export Plug-In . SVG Version: 6.00 Build 0)  -->
<svg version="1.1" id="Capa_1" xmlns="http://www.w3.org/2000/svg" xmlns:xlink="http://www.w3.org/1999/xlink" x="0px" y="0px"
	 viewBox="0 0 100 100" style="enable-background:new 0 0 100 100;" xml:space="preserve">
<style type="text/css">
	.st0{fill:#707070;}
	.st1{fill:#FFFFFF;stroke:#FFFFFF;stroke-width:0.2;}
	.st2{fill:none;}
	.st3{fill:none;stroke:#ADADAD;stroke-linecap:round;stroke-dasharray:0,5;}
</style>
<g transform="translate(-160 -523)">
	<circle class="st0" cx="210" cy="573" r="46"/>
	<g transform="translate(188.26 549.421)">
		<g transform="translate(0)">
			<path class="st1" d="M4.8,40c-0.5,0-1,0.4-1,1c0,0.5,0.4,1,1,1c0.5,0,1-0.4,1-1S5.3,40,4.8,40C4.8,40,4.8,40,4.8,40z"/>
			<path class="st1" d="M29.5,40h-7.6c-0.5,0-1,0.4-1,1s0.4,1,1,1l0,0h7.6c0.5,0,1-0.4,1-1S30.1,40,29.5,40z"/>
			<path class="st1" d="M35.9,11.5C34.4,3.7,26.8-1.3,19.1,0.3c-6.7,1.3-11.5,7.2-11.5,14c0,0.3,0,0.6,0,1C3.3,15.8,0,19.4,0,23.8
				c0,0.8,0.1,1.6,0.4,2.4c0.1,0.5,0.7,0.8,1.2,0.6c0.5-0.1,0.8-0.7,0.6-1.2c-0.2-0.6-0.3-1.2-0.3-1.9c0-3.7,2.9-6.6,6.6-6.7
				c0.3,0,0.7-0.1,0.9-0.3c0.2-0.2,0.3-0.5,0.2-0.8c-1-6.7,3.6-13,10.3-14c0.7-0.1,1.3-0.1,2-0.1c6.2,0,11.4,4.5,12.2,10.6
				c0.1,0.5,0.6,0.8,1.1,0.8c4.7,0,8.6,3.8,8.6,8.6c0,4.1-2.9,7.6-6.9,8.4c-0.5,0.1-0.8,0.6-0.7,1.1c0.1,0.4,0.5,0.8,0.9,0.8
				c0.1,0,0.1,0,0.2,0c5.7-1.1,9.3-6.6,8.2-12.3C44.6,15.2,40.7,11.8,35.9,11.5L35.9,11.5z"/>
			<path class="st1" d="M4.8,32.4c-0.5,0-1,0.4-1,1c0,0.5,0.4,1,1,1c0.5,0,1-0.4,1-1S5.3,32.4,4.8,32.4C4.8,32.4,4.8,32.4,4.8,32.4z
				"/>
			<path class="st1" d="M31.4,28.6H2.9c-1.6,0-2.9,1.3-2.9,2.9v3.8c0,0.7,0.3,1.4,0.7,1.9C0.3,37.7,0,38.4,0,39.1v3.8
				c0,1.6,1.3,2.9,2.9,2.9h28.6c1.6,0,2.9-1.3,2.9-2.9v-3.8c0-0.7-0.3-1.4-0.7-1.9c0.5-0.5,0.7-1.2,0.7-1.9v-3.8
				C34.3,29.9,33,28.6,31.4,28.6z M32.4,42.9c0,0.5-0.4,1-1,1h0H2.9c-0.5,0-1-0.4-1-1l0,0v-3.8c0-0.5,0.4-1,1-1c0,0,0,0,0,0h28.6
				c0.5,0,1,0.4,1,1l0,0V42.9z M32.4,35.3c0,0.5-0.4,1-1,1h0H2.9c-0.5,0-1-0.4-1-1l0,0v-3.8c0-0.5,0.4-1,1-1c0,0,0,0,0,0h28.6
				c0.5,0,1,0.4,1,1l0,0V35.3z"/>
			<path class="st1" d="M29.5,32.4h-7.6c-0.5,0-1,0.4-1,1s0.4,1,1,1l0,0h7.6c0.5,0,1-0.4,1-1S30.1,32.4,29.5,32.4z"/>
		</g>
	</g>
	<g transform="translate(160 523)">
		<circle class="st2" cx="50" cy="50" r="50"/>
		<circle class="st3" cx="50" cy="50" r="49.5"/>
	</g>
</g>
</svg>
