<?xml version="1.0" encoding="utf-8"?>
<!-- Generator: Adobe Illustrator 25.2.3, SVG Export Plug-In . SVG Version: 6.00 Build 0)  -->
<svg version="1.1" id="Capa_1" xmlns="http://www.w3.org/2000/svg" xmlns:xlink="http://www.w3.org/1999/xlink" x="0px" y="0px"
	 viewBox="0 0 100 100" style="enable-background:new 0 0 100 100;" xml:space="preserve">
<style type="text/css">
	.st0{fill:#707070;}
	.st1{fill:#FFFFFF;}
	.st2{fill:none;}
	.st3{fill:none;stroke:#ADADAD;stroke-linecap:round;stroke-dasharray:0,5;}
</style>
<g transform="translate(-383 -523)">
	<circle class="st0" cx="433" cy="573" r="46"/>
	<g transform="translate(401.109 544.052)">
		<path class="st1" d="M40.9,27.4c-0.4-0.4-1.1-0.4-1.5,0.1c-0.2,0.2-0.3,0.5-0.3,0.8L40.3,46c0,0.4,0.3,0.8,0.7,0.9
			c0.1,0,0.2,0.1,0.4,0.1c0.3,0,0.6-0.1,0.8-0.3l3.9-4.1l4.6,9c0.3,0.5,0.9,0.7,1.4,0.5s0.7-0.9,0.5-1.4L48,41.7l5.6-0.5
			c0.6-0.1,1-0.6,1-1.2c0-0.3-0.2-0.5-0.4-0.7L40.9,27.4z M46.2,39.7c-0.3,0-0.5,0.1-0.7,0.3l-3.3,3.5l-0.8-12.8l9.5,8.5L46.2,39.7z
			"/>
		<path class="st1" d="M41.3,24.6c0.6,0,1.1-0.5,1.1-1.1v0v-4.3c0-0.6-0.5-1-1.1-1c-0.6,0-1,0.5-1,1v4.3
			C40.2,24.1,40.7,24.6,41.3,24.6z"/>
		<path class="st1" d="M46.3,29.6c0,0.6,0.5,1.1,1.1,1.1l0,0h4.3c0.6,0,1.1-0.4,1.1-1s-0.4-1.1-1-1.1c0,0,0,0-0.1,0h-4.3
			C46.8,28.6,46.3,29.1,46.3,29.6L46.3,29.6L46.3,29.6z"/>
		<path class="st1" d="M36.2,29.6c0-0.6-0.5-1.1-1.1-1.1h-4.3c-0.6,0-1.1,0.4-1.1,1s0.4,1.1,1,1.1c0,0,0,0,0.1,0h4.3
			C35.7,30.7,36.2,30.2,36.2,29.6z"/>
		<path class="st1" d="M37,26.4c0.3,0,0.6-0.1,0.8-0.3c0.4-0.4,0.4-1.1,0-1.5l-3-3c-0.4-0.4-1.1-0.4-1.5,0.1c-0.4,0.4-0.4,1,0,1.4
			l3,3C36.4,26.3,36.7,26.4,37,26.4L37,26.4z"/>
		<path class="st1" d="M47.8,21.6l-3,3c-0.5,0.4-0.5,1-0.1,1.5c0.4,0.5,1,0.5,1.5,0.1c0,0,0.1-0.1,0.1-0.1l3-3
			c0.4-0.4,0.4-1.1-0.1-1.5C48.9,21.2,48.2,21.2,47.8,21.6L47.8,21.6z"/>
		<path class="st1" d="M36.2,33.2l-3,3c-0.4,0.4-0.4,1.1,0,1.5s1.1,0.4,1.5,0l3-3c0.3-0.5,0.2-1.1-0.2-1.5
			C37.1,33,36.6,33,36.2,33.2L36.2,33.2z"/>
		<path class="st1" d="M54.4,14.3H10.1c-5.1,0-9.2,4.1-9.2,9.2v1.1c0,5.1,4.1,9.2,9.2,9.2h15.6c0.6,0,1.1-0.4,1.1-1
			c0-0.6-0.4-1.1-1-1.1c0,0,0,0-0.1,0H10.1c-3.9,0-7.1-3.2-7.1-7.1v-1.1c0-3.9,3.2-7.1,7.1-7.1h44.4c0.6,0,1.1-0.4,1.1-1
			C55.5,14.8,55.1,14.3,54.4,14.3C54.5,14.3,54.4,14.3,54.4,14.3L54.4,14.3z"/>
		<path class="st1" d="M24.8,20.4c-0.2-0.4-0.5-0.6-0.9-0.6c-0.4,0-0.8,0.2-1,0.6l-2.7,5.2l-2.5-5.4c-0.2-0.4-0.5-0.6-0.9-0.6
			c-0.4,0-0.8,0.2-0.9,0.6l-2.9,5.4l-2.2-5.2c-0.2-0.5-0.8-0.8-1.4-0.6c-0.5,0.2-0.8,0.8-0.6,1.4c0,0,0,0,0,0.1l3.1,7.2
			c0.2,0.5,0.9,0.8,1.4,0.6c0.2-0.1,0.4-0.3,0.5-0.5l2.9-5.4l2.6,5.4c0.3,0.5,0.9,0.8,1.4,0.5c0.2-0.1,0.4-0.3,0.5-0.5l2.8-5.2
			l2.6,5.2c0.2,0.4,0.5,0.6,1,0.6c0.2,0,0.3,0,0.5-0.1c0.5-0.3,0.7-0.9,0.5-1.4c0,0,0,0,0,0L24.8,20.4z"/>
	</g>
	<g transform="translate(383 523)">
		<circle class="st2" cx="50" cy="50" r="50"/>
		<circle class="st3" cx="50" cy="50" r="49.5"/>
	</g>
</g>
</svg>
