<?xml version="1.0" encoding="utf-8"?>
<!-- Generator: Adobe Illustrator 25.2.3, SVG Export Plug-In . SVG Version: 6.00 Build 0)  -->
<svg version="1.1" id="Capa_1" xmlns="http://www.w3.org/2000/svg" xmlns:xlink="http://www.w3.org/1999/xlink" x="0px" y="0px"
	 viewBox="0 0 100 100" style="enable-background:new 0 0 100 100;" xml:space="preserve">
<style type="text/css">
	.st0{fill:#707070;}
	.st1{fill:#FFFFFF;stroke:#FFFFFF;stroke-width:0.3;}
	.st2{fill:none;}
	.st3{fill:none;stroke:#ADADAD;stroke-linecap:round;stroke-dasharray:0,5;}
</style>
<g transform="translate(-272 -523)">
	<circle class="st0" cx="322" cy="573" r="46"/>
	<g transform="translate(293.316 549.26)">
		<path class="st1" d="M25.5,44.3c0-2.7-2.2-5-5-5c-2.7,0-5,2.2-5,5c0,2.7,2.2,5,5,5S25.5,47,25.5,44.3L25.5,44.3z M17.3,44.3
			c0-1.8,1.4-3.2,3.2-3.2c1.8,0,3.2,1.4,3.2,3.2c0,1.8-1.4,3.2-3.2,3.2C18.7,47.5,17.3,46,17.3,44.3L17.3,44.3z"/>
		<path class="st1" d="M38.9,49.2c2.7,0,5-2.2,5-5s-2.2-5-5-5c-2.7,0-5,2.2-5,5C33.9,47,36.1,49.2,38.9,49.2L38.9,49.2z M38.9,41.1
			c1.8,0,3.2,1.4,3.2,3.2s-1.4,3.2-3.2,3.2s-3.2-1.4-3.2-3.2C35.7,42.5,37.1,41.1,38.9,41.1L38.9,41.1z"/>
		<path class="st1" d="M0.9,1.8h5.4c1.8,0,3.3,1.3,3.5,3L14,31.6c0.4,2.6,2.6,4.5,5.3,4.5h26.3c0.5,0,0.9-0.4,0.9-0.9
			c0-0.5-0.4-0.9-0.9-0.9H19.3c-1.8,0-3.3-1.3-3.5-3l-0.7-4.6H42c2.3,0,4.3-1.4,5.1-3.6l5-14.4c0.2-0.5-0.1-1-0.5-1.1
			c-0.1,0-0.2,0-0.3,0H12l-0.5-3.1C11.1,1.9,8.9,0,6.2,0H0.9C0.4,0,0,0.4,0,0.9C0,1.4,0.4,1.8,0.9,1.8z M49.9,9.4l-4.6,13.2
			C44.8,24.1,43.5,25,42,25H14.8L12.3,9.4H49.9z"/>
	</g>
	<g transform="translate(272 523)">
		<circle class="st2" cx="50" cy="50" r="50"/>
		<circle class="st3" cx="50" cy="50" r="49.5"/>
	</g>
</g>
</svg>
