<svg id="_002-email-marketing" data-name="002-email-marketing" xmlns="http://www.w3.org/2000/svg" width="38.707" height="44.607" viewBox="0 0 38.707 44.607">
  <g id="Grupo_2495" data-name="Grupo 2495">
    <g id="XMLID_1_">
      <g id="Grupo_2494" data-name="Grupo 2494">
        <path id="Trazado_1912" data-name="Trazado 1912" d="M475.243,501.35a.562.562,0,0,1,0,.094q0-.03,0-.061Z" transform="translate(-436.537 -457.392)" fill="#fff"/>
        <path id="Trazado_1913" data-name="Trazado 1913" d="M449.65,489.178v.034q0,.03,0,.061a.621.621,0,0,1-.176.373l-.041.038-.005,0-.049.035c-.014.01-.029.018-.045.027a.375.375,0,0,1-.066.031.205.205,0,0,1-.039.014.154.154,0,0,1-.024.008l-.04.01a.4.4,0,0,1-.056.009l-.024,0-.047,0a.594.594,0,0,1-.361-.12L447.17,488.6h1.255V488l.977.718A.619.619,0,0,1,449.65,489.178Z" transform="translate(-410.944 -445.22)" fill="#fff"/>
        <path id="Trazado_1914" data-name="Trazado 1914" d="M462.554,216.416l.006,25.1a.619.619,0,0,0-.248-.46l-.977-.718-.005-22.522,1.026-.945a.284.284,0,0,0,.023-.024.3.3,0,0,0,.036-.041l.011-.014a.24.24,0,0,0,.026-.037.024.024,0,0,0,.005-.009.414.414,0,0,0,.026-.042l.02-.043a.672.672,0,0,0,.037-.119.618.618,0,0,0,.012-.121c0-.019,0-.038,0-.057A.391.391,0,0,1,462.554,216.416Z" transform="translate(-423.854 -197.555)" fill="#fff"/>
        <path id="Trazado_1915" data-name="Trazado 1915" d="M462.551,210.616c0,.019,0,.038,0,.057a.619.619,0,0,1-.012.121q-.007.03-.016.061c-.006.019-.013.04-.021.058l-.02.043a.272.272,0,0,1-.026.042.024.024,0,0,1-.005.009.241.241,0,0,1-.026.037l-.011.014a.525.525,0,0,1-.036.041.6.6,0,0,1-.437.187.611.611,0,0,1-.429-.175l-.184-.179v-.261a.608.608,0,0,1,.213-.463.077.077,0,0,1,.016-.014.451.451,0,0,1,.042-.03.291.291,0,0,1,.045-.027.022.022,0,0,1,.011-.006.438.438,0,0,1,.046-.022s0,0,0,0l.034-.013a.26.26,0,0,1,.034-.011.482.482,0,0,1,.051-.012.582.582,0,0,1,.058-.008.612.612,0,0,1,.5.187.187.187,0,0,1,.018.019.2.2,0,0,1,.019.022.145.145,0,0,1,.02.027.156.156,0,0,1,.015.021.213.213,0,0,1,.019.03.108.108,0,0,1,.012.025.361.361,0,0,1,.022.046.713.713,0,0,1,.034.114.35.35,0,0,1,.006.042l0,.017Z" transform="translate(-423.854 -191.812)" fill="#fff"/>
        <path id="Trazado_1916" data-name="Trazado 1916" d="M475.08,215.74a.35.35,0,0,1,.007.052l0-.017C475.083,215.763,475.082,215.751,475.08,215.74Z" transform="translate(-436.391 -196.99)" fill="#fff"/>
        <path id="Trazado_1917" data-name="Trazado 1917" d="M475.05,217.131a.619.619,0,0,0,.012-.121A.619.619,0,0,1,475.05,217.131Z" transform="translate(-436.363 -198.148)" fill="#fff"/>
        <path id="Trazado_1918" data-name="Trazado 1918" d="M475.066,215.7a.361.361,0,0,0-.006-.042s0,0,0,.007S475.065,215.69,475.066,215.7Z" transform="translate(-436.373 -196.917)" fill="#fff"/>
        <path id="Trazado_1919" data-name="Trazado 1919" d="M474.761,214.619s0-.005,0-.007a.436.436,0,0,0-.015-.058.422.422,0,0,0-.014-.043A.51.51,0,0,1,474.761,214.619Z" transform="translate(-436.072 -195.869)" fill="#fff"/>
        <path id="Trazado_1920" data-name="Trazado 1920" d="M474.9,215.058a.469.469,0,0,0-.015-.058A.432.432,0,0,1,474.9,215.058Z" transform="translate(-436.218 -196.315)" fill="#fff"/>
        <path id="Trazado_1921" data-name="Trazado 1921" d="M474.87,218.441q.009-.03.016-.061A.392.392,0,0,1,474.87,218.441Z" transform="translate(-436.199 -199.397)" fill="#fff"/>
        <path id="Trazado_1922" data-name="Trazado 1922" d="M474.675,214.382a.418.418,0,0,1,.014.043.462.462,0,0,0-.019-.056Z" transform="translate(-436.017 -195.741)" fill="#fff"/>
        <path id="Trazado_1923" data-name="Trazado 1923" d="M474.63,219.128c.008-.019.015-.039.021-.058A.386.386,0,0,1,474.63,219.128Z" transform="translate(-435.981 -200.026)" fill="#fff"/>
        <path id="Trazado_1924" data-name="Trazado 1924" d="M474.21,213.461l-.005-.012a.366.366,0,0,0-.022-.046.131.131,0,0,0-.012-.025l-.011-.019a.434.434,0,0,1,.05.1Z" transform="translate(-435.552 -194.82)" fill="#fff"/>
        <path id="Trazado_1925" data-name="Trazado 1925" d="M474.292,213.595a.107.107,0,0,0-.012-.025A.128.128,0,0,1,474.292,213.595Z" transform="translate(-435.661 -195.012)" fill="#fff"/>
        <path id="Trazado_1926" data-name="Trazado 1926" d="M474.11,220.262a.272.272,0,0,0,.026-.042A.414.414,0,0,1,474.11,220.262Z" transform="translate(-435.506 -201.075)" fill="#fff"/>
        <path id="Trazado_1927" data-name="Trazado 1927" d="M474.089,213.26a.211.211,0,0,0-.018-.03l.008.011Z" transform="translate(-435.47 -194.702)" fill="#fff"/>
        <path id="Trazado_1928" data-name="Trazado 1928" d="M473.006,502.42a.611.611,0,0,1-.114.3.625.625,0,0,1-.1.108l.041-.038A.621.621,0,0,0,473.006,502.42Z" transform="translate(-434.303 -458.367)" fill="#fff"/>
        <path id="Trazado_1929" data-name="Trazado 1929" d="M472.811,211.783l-.008-.011a.159.159,0,0,0-.015-.021.529.529,0,0,0-.039-.049l-.01-.011-.008-.008-.015-.016-.036-.035c.015.012.029.026.043.04A.545.545,0,0,1,472.811,211.783Z" transform="translate(-434.203 -193.243)" fill="#fff"/>
        <path id="Trazado_1930" data-name="Trazado 1930" d="M473.915,213.011a.155.155,0,0,0-.015-.021A.155.155,0,0,1,473.915,213.011Z" transform="translate(-435.315 -194.483)" fill="#fff"/>
        <path id="Trazado_1931" data-name="Trazado 1931" d="M473.75,220.837a.245.245,0,0,0,.026-.037A.245.245,0,0,1,473.75,220.837Z" transform="translate(-435.178 -201.604)" fill="#fff"/>
        <path id="Trazado_1932" data-name="Trazado 1932" d="M473.69,212.707a.144.144,0,0,0-.02-.027A.144.144,0,0,1,473.69,212.707Z" transform="translate(-435.105 -194.2)" fill="#fff"/>
        <path id="Trazado_1933" data-name="Trazado 1933" d="M473.479,212.452a.2.2,0,0,0-.019-.022A.144.144,0,0,1,473.479,212.452Z" transform="translate(-434.914 -193.972)" fill="#fff"/>
        <path id="Trazado_1934" data-name="Trazado 1934" d="M473.22,221.421a.522.522,0,0,0,.036-.041A.305.305,0,0,1,473.22,221.421Z" transform="translate(-434.695 -202.132)" fill="#fff"/>
        <path id="Trazado_1935" data-name="Trazado 1935" d="M473.278,212.229a.187.187,0,0,0-.018-.019l.008.008Z" transform="translate(-434.731 -193.772)" fill="#fff"/>
        <path id="Trazado_1936" data-name="Trazado 1936" d="M468.085,210.225l.015.016a.612.612,0,0,0-.5-.187.438.438,0,0,1,.059,0,.615.615,0,0,1,.389.139Z" transform="translate(-429.571 -191.802)" fill="#fff"/>
        <path id="Trazado_1937" data-name="Trazado 1937" d="M462.379,220.117a.287.287,0,0,1-.023.024l-1.026.945V219.95l.184.179a.611.611,0,0,0,.429.175.6.6,0,0,0,.437-.187Z" transform="translate(-423.854 -200.828)" fill="#fff"/>
        <path id="Trazado_1938" data-name="Trazado 1938" d="M472.18,507.165l.049-.035A.447.447,0,0,1,472.18,507.165Z" transform="translate(-433.747 -462.662)" fill="#fff"/>
        <path id="Trazado_1939" data-name="Trazado 1939" d="M399.29,140.16l6.477,6.308a.615.615,0,0,0-.389-.139.436.436,0,0,0-.059,0,.579.579,0,0,0-.058.008.481.481,0,0,0-.051.012.266.266,0,0,0-.034.011.188.188,0,0,0-.034.013s0,0,0,0a.315.315,0,0,0-.046.022.022.022,0,0,0-.011.006.266.266,0,0,0-.045.027.327.327,0,0,0-.042.03.076.076,0,0,0-.016.014.125.125,0,0,0-.018.014l-.475.438-5.2-5.06Z" transform="translate(-367.29 -128.081)" fill="#fff"/>
        <path id="Trazado_1940" data-name="Trazado 1940" d="M471.67,507.557c.016-.009.031-.018.045-.027A.417.417,0,0,1,471.67,507.557Z" transform="translate(-433.282 -463.026)" fill="#fff"/>
        <path id="Trazado_1941" data-name="Trazado 1941" d="M470.48,508.2a.207.207,0,0,0,.039-.014A.3.3,0,0,1,470.48,508.2Z" transform="translate(-432.197 -463.628)" fill="#fff"/>
        <path id="Trazado_1942" data-name="Trazado 1942" d="M469.76,508.45l.04-.01Z" transform="translate(-431.54 -463.856)" fill="#fff"/>
        <path id="Trazado_1943" data-name="Trazado 1943" d="M468.86,508.653l.024,0Z" transform="translate(-430.72 -464.048)" fill="#fff"/>
        <path id="Trazado_1944" data-name="Trazado 1944" d="M468.33,508.682l.047,0Z" transform="translate(-430.237 -464.075)" fill="#fff"/>
        <path id="Trazado_1945" data-name="Trazado 1945" d="M81.151,496.018H43.67a.611.611,0,0,0,.365-.12l1.507-1.108H79.283L80.79,495.9A.593.593,0,0,0,81.151,496.018Z" transform="translate(-43.057 -451.411)" fill="#fff"/>
        <path id="Trazado_1946" data-name="Trazado 1946" d="M466.411,210.18a.481.481,0,0,0-.051.012A.481.481,0,0,1,466.411,210.18Z" transform="translate(-428.441 -191.921)" fill="#fff"/>
        <path id="Trazado_1947" data-name="Trazado 1947" d="M466,210.32a.262.262,0,0,0-.034.011A.262.262,0,0,1,466,210.32Z" transform="translate(-428.085 -192.048)" fill="#fff"/>
        <path id="Trazado_1948" data-name="Trazado 1948" d="M465.614,210.45l-.034.013A.183.183,0,0,1,465.614,210.45Z" transform="translate(-427.729 -192.167)" fill="#fff"/>
        <path id="Trazado_1949" data-name="Trazado 1949" d="M465.066,210.61a.446.446,0,0,0-.046.022A.317.317,0,0,1,465.066,210.61Z" transform="translate(-427.219 -192.313)" fill="#fff"/>
        <path id="Trazado_1950" data-name="Trazado 1950" d="M464.435,210.93a.288.288,0,0,0-.045.027A.265.265,0,0,1,464.435,210.93Z" transform="translate(-426.644 -192.605)" fill="#fff"/>
        <path id="Trazado_1951" data-name="Trazado 1951" d="M463.961,211.24a.448.448,0,0,0-.041.03A.328.328,0,0,1,463.961,211.24Z" transform="translate(-426.216 -192.887)" fill="#fff"/>
        <path id="Trazado_1952" data-name="Trazado 1952" d="M458.652,211.74a.608.608,0,0,0-.213.463v.261l-.28-.273.475-.438A.126.126,0,0,1,458.652,211.74Z" transform="translate(-420.964 -193.343)" fill="#fff"/>
        <path id="Trazado_1953" data-name="Trazado 1953" d="M311.454,384.718v.6H310.2l-13.259-9.751.919-.846Z" transform="translate(-273.974 -341.938)" fill="#fff"/>
        <path id="Trazado_1954" data-name="Trazado 1954" d="M402.915,217.133v1.136l-5.655,5.211a.611.611,0,0,0,.179-.433v-1.4l5.2-4.788Z" transform="translate(-365.439 -198.011)" fill="#fff"/>
        <path id="Trazado_1955" data-name="Trazado 1955" d="M386.644,271.11v1.4a.612.612,0,1,1-1.224,0v-.27Z" transform="translate(-354.644 -247.473)" fill="#fff"/>
        <path id="Trazado_1956" data-name="Trazado 1956" d="M386.644,144.933v9.848l-1.224,1.128V143.52a.609.609,0,0,0,.184.4Z" transform="translate(-354.644 -131.144)" fill="#fff"/>
        <path id="Trazado_1957" data-name="Trazado 1957" d="M386.644,136.5v1.71l-1.041-1.013a.609.609,0,0,1-.184-.4v-.078a.6.6,0,0,1,.172-.388.612.612,0,0,1,.866-.011Z" transform="translate(-354.644 -124.417)" fill="#fff"/>
        <path id="Trazado_1958" data-name="Trazado 1958" d="M321.2,61.132v6.417l-.186-.181a.612.612,0,0,0-.866.011.6.6,0,0,0-.172.388V61.744H313.64a.6.6,0,0,0,.434-.181.612.612,0,0,0,0-.866l-.179-.177h6.7A.611.611,0,0,1,321.2,61.132Z" transform="translate(-289.2 -55.47)" fill="#fff"/>
        <path id="Trazado_1959" data-name="Trazado 1959" d="M301.008,284.593l-7.936,7.313-.6-.44a.617.617,0,0,0-.783.048l8.273-7.624v.27a.612.612,0,0,0,1.045.433Z" transform="translate(-269.187 -259.125)" fill="#fff"/>
        <path id="Trazado_1960" data-name="Trazado 1960" d="M385.406,142.64v.078A.569.569,0,0,1,385.406,142.64Z" transform="translate(-354.631 -130.342)" fill="#fff"/>
        <path id="Trazado_1961" data-name="Trazado 1961" d="M184.505,125.447a6.141,6.141,0,0,1-.423,2.268,6.564,6.564,0,0,1-1.268,2,5.582,5.582,0,0,1-1.577,1.253,3.728,3.728,0,0,1-1.709.417,2.054,2.054,0,0,1-.906-.169,1.071,1.071,0,0,1-.5-.476,2.112,2.112,0,0,1-.152-.7l-.015-.134-.087.1a4.555,4.555,0,0,1-1.2.994,2.549,2.549,0,0,1-2.738-.052,3.081,3.081,0,0,1-1.119-1.315,4.426,4.426,0,0,1-.434-1.957,5.78,5.78,0,0,1,.676-2.635,5.085,5.085,0,0,1,1.673-1.98,3.534,3.534,0,0,1,1.933-.658,2.689,2.689,0,0,1,1.359.373,3.237,3.237,0,0,1,1.117,1.137l.076.123.032-.143.157-.72a.677.677,0,0,1,.659-.53.674.674,0,0,1,.658.816l-1.014,4.723a12.328,12.328,0,0,0-.251,1.309.58.58,0,0,0,.189.432.649.649,0,0,0,.455.177,2.273,2.273,0,0,0,1.2-.522,4.739,4.739,0,0,0,1.528-1.816,5.261,5.261,0,0,0,.563-2.347,5.073,5.073,0,0,0-2.878-4.6,6.837,6.837,0,0,0-3.157-.735,7.231,7.231,0,0,0-3.6.924,6.384,6.384,0,0,0-2.53,2.65,7.92,7.92,0,0,0-.9,3.694,6.8,6.8,0,0,0,.9,3.56,5.409,5.409,0,0,0,2.6,2.21,9.651,9.651,0,0,0,3.755.711,8.3,8.3,0,0,0,3.7-.74,6.052,6.052,0,0,0,2.061-1.571.577.577,0,0,1,.971.128.577.577,0,0,1-.094.621,7.049,7.049,0,0,1-.741.723,7.8,7.8,0,0,1-2.448,1.432,9.942,9.942,0,0,1-3.426.528,11.7,11.7,0,0,1-3.408-.476,7.22,7.22,0,0,1-2.65-1.423,6.31,6.31,0,0,1-1.65-2.184,8.257,8.257,0,0,1-.7-3.387,9.308,9.308,0,0,1,.831-3.863,8.6,8.6,0,0,1,1.227-1.989,7.131,7.131,0,0,1,3.711-2.353,9.669,9.669,0,0,1,2.461-.3,8.005,8.005,0,0,1,3.7.843,6.206,6.206,0,0,1,2.58,2.507A6.3,6.3,0,0,1,184.505,125.447Zm-6.094,2.244a5.052,5.052,0,0,0,.3-1.7,2.542,2.542,0,0,0-.565-1.763,1.782,1.782,0,0,0-1.376-.627,2,2,0,0,0-1.009.271,3.082,3.082,0,0,0-.916.875,4.946,4.946,0,0,0-.711,1.463,5.407,5.407,0,0,0-.268,1.58,2.66,2.66,0,0,0,.543,1.782,1.61,1.61,0,0,0,1.244.635,2.078,2.078,0,0,0,.986-.28,3.542,3.542,0,0,0,1-.834A4.378,4.378,0,0,0,178.411,127.691Z" transform="translate(-157.499 -108.77)" fill="#fff"/>
        <path id="Trazado_1962" data-name="Trazado 1962" d="M298.727,60.7a.612.612,0,0,1,0,.866.612.612,0,0,1-.866,0L296.81,60.52h1.738Z" transform="translate(-273.855 -55.47)" fill="#fff"/>
        <path id="Trazado_1963" data-name="Trazado 1963" d="M256.434,5.35l4.906,4.869H259.6L256,6.644l.432-.428A.612.612,0,0,0,256.434,5.35Z" transform="translate(-236.647 -5.169)" fill="#fff"/>
        <path id="Trazado_1964" data-name="Trazado 1964" d="M208.444,61.744H198.26a.624.624,0,0,0,.432-.178l1.056-1.046h7.211l1.054,1.046A.609.609,0,0,0,208.444,61.744Z" transform="translate(-184.003 -55.47)" fill="#fff"/>
        <path id="Trazado_1965" data-name="Trazado 1965" d="M291.09,368.953l-.919.846-.406-.3a.616.616,0,0,1-.132-.857.685.685,0,0,1,.074-.084.617.617,0,0,1,.783-.048Z" transform="translate(-267.204 -336.171)" fill="#fff"/>
        <path id="Trazado_1966" data-name="Trazado 1966" d="M222.305,371.509l-3.191,2.941a.614.614,0,0,1-.417.163h-.015a.6.6,0,0,1-.414-.163l-3.189-2.939.408-.3a.612.612,0,0,0,.131-.857.583.583,0,0,0-.047-.056l3.12,2.876,3.15-2.9a.679.679,0,0,0-.074.084.616.616,0,0,0,.132.857Z" transform="translate(-199.339 -337.881)" fill="#fff"/>
        <path id="Trazado_1967" data-name="Trazado 1967" d="M250.109,3.483a.612.612,0,0,1,0,.866l-.432.428-.432-.428a.612.612,0,0,1,0-.866c.016-.016.032-.03.049-.044a.618.618,0,0,1,.1-.066h0a.636.636,0,0,1,.167-.058.618.618,0,0,1,.235,0,.635.635,0,0,1,.167.058h0a.618.618,0,0,1,.1.066.5.5,0,0,1,.046.041Z" transform="translate(-230.322 -3.302)" fill="#fff"/>
        <path id="Trazado_1968" data-name="Trazado 1968" d="M259.331,4.166a.619.619,0,0,0-.1-.066A.521.521,0,0,1,259.331,4.166Z" transform="translate(-239.592 -4.03)" fill="#fff"/>
        <path id="Trazado_1969" data-name="Trazado 1969" d="M257.33,3.43a.578.578,0,0,1,.167.058A.636.636,0,0,0,257.33,3.43Z" transform="translate(-237.86 -3.419)" fill="#fff"/>
        <path id="Trazado_1970" data-name="Trazado 1970" d="M200.749,6.644l-3.609,3.575H195.4l4.914-4.869a.612.612,0,0,0,0,.866Z" transform="translate(-181.396 -5.169)" fill="#fff"/>
        <path id="Trazado_1971" data-name="Trazado 1971" d="M252.78,3.488a.578.578,0,0,1,.167-.058A.635.635,0,0,0,252.78,3.488Z" transform="translate(-233.711 -3.419)" fill="#fff"/>
        <path id="Trazado_1972" data-name="Trazado 1972" d="M251.63,4.166a.521.521,0,0,1,.1-.066A.619.619,0,0,0,251.63,4.166Z" transform="translate(-232.663 -4.03)" fill="#fff"/>
        <path id="Trazado_1973" data-name="Trazado 1973" d="M206.118,368.624a.612.612,0,0,1-.131.857l-.408.3-.92-.846.6-.442a.609.609,0,0,1,.745.015l.064.058,0,0A.591.591,0,0,1,206.118,368.624Z" transform="translate(-189.838 -336.151)" fill="#fff"/>
        <path id="Trazado_1974" data-name="Trazado 1974" d="M219.974,369.958l-.064-.058A.5.5,0,0,1,219.974,369.958Z" transform="translate(-203.742 -337.544)" fill="#fff"/>
        <path id="Trazado_1975" data-name="Trazado 1975" d="M115.785,283.89l8.237,7.591a.609.609,0,0,0-.745-.015l-.6.442-7.936-7.315a.612.612,0,0,0,1.045-.433Z" transform="translate(-107.855 -259.125)" fill="#fff"/>
        <path id="Trazado_1976" data-name="Trazado 1976" d="M193.422,60.52l-1.056,1.046a.624.624,0,0,1-.432.178A.613.613,0,0,1,191.5,60.7l.179-.177Z" transform="translate(-177.678 -55.47)" fill="#fff"/>
        <path id="Trazado_1977" data-name="Trazado 1977" d="M65.126,375.586l-13.258,9.749H50.61v-.6l13.6-10Z" transform="translate(-49.385 -341.957)" fill="#fff"/>
        <path id="Trazado_1978" data-name="Trazado 1978" d="M120.261,61.744h-6.327v6.026a.6.6,0,0,0-.172-.388.613.613,0,0,0-.866-.011l-.186.181v-6.42a.611.611,0,0,1,.612-.612h6.687l-.179.177a.613.613,0,0,0,.432,1.047Z" transform="translate(-106.004 -55.47)" fill="#fff"/>
        <path id="Trazado_1979" data-name="Trazado 1979" d="M126.58,142.67a.569.569,0,0,1,0,.078Z" transform="translate(-118.65 -130.369)" fill="#fff"/>
        <path id="Trazado_1980" data-name="Trazado 1980" d="M113.934,272.238v.27a.612.612,0,1,1-1.224,0v-1.4Z" transform="translate(-106.004 -247.473)" fill="#fff"/>
        <path id="Trazado_1981" data-name="Trazado 1981" d="M113.934,143.55v12.387l-1.224-1.128v-9.845l1.041-1.013A.608.608,0,0,0,113.934,143.55Z" transform="translate(-106.004 -131.172)" fill="#fff"/>
        <path id="Trazado_1982" data-name="Trazado 1982" d="M113.934,136.749v.078a.608.608,0,0,1-.184.4l-1.041,1.013v-1.71l.186-.181a.613.613,0,0,1,.866.011A.6.6,0,0,1,113.934,136.749Z" transform="translate(-106.004 -124.448)" fill="#fff"/>
        <path id="Trazado_1983" data-name="Trazado 1983" d="M56.325,223.48l-5.655-5.211v-1.135l.281-.274,5.2,4.788v1.4A.611.611,0,0,0,56.325,223.48Z" transform="translate(-49.44 -198.011)" fill="#fff"/>
        <path id="Trazado_1984" data-name="Trazado 1984" d="M45.952,140.19v1.71l-5.2,5.057-.476-.438-.014-.011a.274.274,0,0,0-.025-.02.255.255,0,0,0-.036-.026.41.41,0,0,0-.045-.027l-.011-.006a.387.387,0,0,0-.039-.019L40.1,146.4a.135.135,0,0,0-.024-.01.321.321,0,0,0-.041-.013.345.345,0,0,0-.052-.012l-.017,0-.041-.005a.429.429,0,0,0-.058,0,.609.609,0,0,0-.374.128Z" transform="translate(-39.246 -128.108)" fill="#fff"/>
        <path id="Trazado_1985" data-name="Trazado 1985" d="M39.214,488.618l-1.507,1.108a.611.611,0,0,1-.365.12l-.047,0-.024,0a.4.4,0,0,1-.056-.009l-.04-.01a.154.154,0,0,1-.024-.008.206.206,0,0,1-.039-.014.409.409,0,0,1-.066-.031l-.04-.024-.038-.027a.379.379,0,0,1-.041-.034l-.009-.008-.023-.024-.025-.027c-.008-.01-.016-.019-.023-.03s-.019-.027-.028-.042-.018-.029-.025-.043-.017-.036-.024-.055a.285.285,0,0,1-.017-.046c0-.014-.008-.029-.011-.044l-.005-.026-.005-.036a.679.679,0,0,1,0-.073.614.614,0,0,1,.251-.493l.974-.717v.6Z" transform="translate(-36.73 -445.238)" fill="#fff"/>
        <path id="Trazado_1986" data-name="Trazado 1986" d="M48.79,212.219l-.281.274v-.262a.611.611,0,0,0-.179-.433l-.03-.027.014.011Z" transform="translate(-47.279 -193.37)" fill="#fff"/>
        <path id="Trazado_1987" data-name="Trazado 1987" d="M38.033,210.674v.262l-.184.178a.611.611,0,0,1-.429.175.6.6,0,0,1-.384-.136l-.03-.027a.611.611,0,0,1-.2-.447c0-.02,0-.041,0-.06a.61.61,0,0,1,.183-.38l.033-.032a.61.61,0,0,1,.451-.143l.041.005.017,0a.5.5,0,0,1,.052.012.329.329,0,0,1,.041.013.135.135,0,0,1,.024.01l.015.006a.317.317,0,0,1,.039.019l.011.006a.291.291,0,0,1,.045.027.251.251,0,0,1,.036.026.13.13,0,0,1,.025.02l.03.027a.611.611,0,0,1,.179.433Z" transform="translate(-36.803 -191.814)" fill="#fff"/>
        <path id="Trazado_1988" data-name="Trazado 1988" d="M40.376,219.96V221.1l-1-.918a.6.6,0,0,0,.384.136.611.611,0,0,0,.429-.175Z" transform="translate(-39.146 -200.838)" fill="#fff"/>
        <path id="Trazado_1989" data-name="Trazado 1989" d="M37.96,217.822l-.005,22.524-.974.717a.614.614,0,0,0-.251.493l.006-25.131a.38.38,0,0,1,0-.055c0,.019,0,.04,0,.06a.59.59,0,0,0,.077.294.555.555,0,0,0,.1.132.446.446,0,0,0,.053.048Z" transform="translate(-36.73 -197.564)" fill="#fff"/>
        <path id="Trazado_1990" data-name="Trazado 1990" d="M48.045,211.56a.13.13,0,0,0-.025-.02A.271.271,0,0,1,48.045,211.56Z" transform="translate(-47.024 -193.161)" fill="#fff"/>
        <path id="Trazado_1991" data-name="Trazado 1991" d="M47.145,210.957a.291.291,0,0,0-.045-.027A.408.408,0,0,1,47.145,210.957Z" transform="translate(-46.185 -192.605)" fill="#fff"/>
        <path id="Trazado_1992" data-name="Trazado 1992" d="M46.579,210.669a.313.313,0,0,0-.039-.019A.387.387,0,0,1,46.579,210.669Z" transform="translate(-45.674 -192.349)" fill="#fff"/>
        <path id="Trazado_1993" data-name="Trazado 1993" d="M46.124,210.48a.135.135,0,0,0-.024-.01A.135.135,0,0,1,46.124,210.48Z" transform="translate(-45.273 -192.185)" fill="#fff"/>
        <path id="Trazado_1994" data-name="Trazado 1994" d="M45.671,210.333a.326.326,0,0,0-.041-.013A.326.326,0,0,1,45.671,210.333Z" transform="translate(-44.844 -192.048)" fill="#fff"/>
        <path id="Trazado_1995" data-name="Trazado 1995" d="M45.092,210.192a.5.5,0,0,0-.052-.012A.347.347,0,0,1,45.092,210.192Z" transform="translate(-44.307 -191.921)" fill="#fff"/>
        <path id="Trazado_1996" data-name="Trazado 1996" d="M44.431,210.1l-.041-.005Z" transform="translate(-43.714 -191.839)" fill="#fff"/>
        <path id="Trazado_1997" data-name="Trazado 1997" d="M39.731,210.053a.61.61,0,0,0-.451.143l.019-.019a.609.609,0,0,1,.374-.128A.429.429,0,0,1,39.731,210.053Z" transform="translate(-39.055 -191.802)" fill="#fff"/>
        <path id="Trazado_1998" data-name="Trazado 1998" d="M43.14,508.68l.047,0Z" transform="translate(-42.574 -464.075)" fill="#fff"/>
        <path id="Trazado_1999" data-name="Trazado 1999" d="M42.87,508.65l.024,0Z" transform="translate(-42.328 -464.048)" fill="#fff"/>
        <path id="Trazado_2000" data-name="Trazado 2000" d="M41.79,508.44l.04.01Z" transform="translate(-41.343 -463.856)" fill="#fff"/>
        <path id="Trazado_2001" data-name="Trazado 2001" d="M41.08,508.19a.206.206,0,0,0,.039.014A.294.294,0,0,1,41.08,508.19Z" transform="translate(-40.696 -463.628)" fill="#fff"/>
        <path id="Trazado_2002" data-name="Trazado 2002" d="M39.88,507.57l.04.024Z" transform="translate(-39.602 -463.063)" fill="#fff"/>
        <path id="Trazado_2003" data-name="Trazado 2003" d="M37.986,211.5l-.019.019a.616.616,0,0,0-.056.052.641.641,0,0,0-.071.094A.576.576,0,0,1,37.986,211.5Z" transform="translate(-37.742 -193.124)" fill="#fff"/>
        <path id="Trazado_2004" data-name="Trazado 2004" d="M37.8,220.533l.03.027a.445.445,0,0,1-.053-.048.555.555,0,0,1-.1-.132A.615.615,0,0,0,37.8,220.533Z" transform="translate(-37.596 -201.221)" fill="#fff"/>
        <path id="Trazado_2005" data-name="Trazado 2005" d="M37.055,211.71l-.033.032a.61.61,0,0,0-.183.38c0-.019,0-.036.007-.055a.63.63,0,0,1,.081-.211.643.643,0,0,1,.071-.094A.62.62,0,0,1,37.055,211.71Z" transform="translate(-36.83 -193.316)" fill="#fff"/>
        <path id="Trazado_2006" data-name="Trazado 2006" d="M39.031,506.9a.49.49,0,0,1-.041-.034A.379.379,0,0,0,39.031,506.9Z" transform="translate(-38.791 -462.425)" fill="#fff"/>
        <path id="Trazado_2007" data-name="Trazado 2007" d="M38.63,506.51l.023.024-.012-.011A.066.066,0,0,1,38.63,506.51Z" transform="translate(-38.462 -462.096)" fill="#fff"/>
        <path id="Trazado_2008" data-name="Trazado 2008" d="M38.09,505.86c.007.011.015.02.023.03A.184.184,0,0,1,38.09,505.86Z" transform="translate(-37.97 -461.504)" fill="#fff"/>
        <path id="Trazado_2009" data-name="Trazado 2009" d="M37.77,505.39c.009.014.019.027.028.041A.249.249,0,0,1,37.77,505.39Z" transform="translate(-37.678 -461.075)" fill="#fff"/>
        <path id="Trazado_2010" data-name="Trazado 2010" d="M37.49,504.9c.007.014.016.029.025.043A.3.3,0,0,1,37.49,504.9Z" transform="translate(-37.423 -460.629)" fill="#fff"/>
        <path id="Trazado_2011" data-name="Trazado 2011" d="M37.03,503.76a.287.287,0,0,0,.017.046A.32.32,0,0,1,37.03,503.76Z" transform="translate(-37.004 -459.589)" fill="#fff"/>
        <path id="Trazado_2012" data-name="Trazado 2012" d="M37,213.36a.63.63,0,0,0-.081.211A.574.574,0,0,1,37,213.36Z" transform="translate(-36.903 -194.82)" fill="#fff"/>
        <path id="Trazado_2013" data-name="Trazado 2013" d="M36.847,215.75c0,.019-.005.036-.007.055A.29.29,0,0,1,36.847,215.75Z" transform="translate(-36.83 -196.999)" fill="#fff"/>
        <path id="Trazado_2014" data-name="Trazado 2014" d="M36.84,502.97l.005.026Z" transform="translate(-36.83 -458.869)" fill="#fff"/>
        <path id="Trazado_2015" data-name="Trazado 2015" d="M36.81,217.05a.619.619,0,0,0,.077.294A.59.59,0,0,1,36.81,217.05Z" transform="translate(-36.803 -198.184)" fill="#fff"/>
        <path id="Trazado_2016" data-name="Trazado 2016" d="M36.78,502.56l.005.036A.256.256,0,0,1,36.78,502.56Z" transform="translate(-36.776 -458.495)" fill="#fff"/>
      </g>
    </g>
  </g>
</svg>
