<?xml version="1.0" encoding="utf-8"?>
<!-- Generator: Adobe Illustrator 25.2.3, SVG Export Plug-In . SVG Version: 6.00 Build 0)  -->
<svg version="1.1" id="Capa_1" xmlns="http://www.w3.org/2000/svg" xmlns:xlink="http://www.w3.org/1999/xlink" x="0px" y="0px"
	 viewBox="0 0 100 100" style="enable-background:new 0 0 100 100;" xml:space="preserve">
<style type="text/css">
	.st0{fill:#707070;}
	.st1{fill:#FFFFFF;stroke:#FFFFFF;stroke-width:0.5;}
	.st2{fill:none;}
	.st3{fill:none;stroke:#ADADAD;stroke-linecap:round;stroke-dasharray:0,5;}
</style>
<g transform="translate(-494 -523)">
	<circle class="st0" cx="544" cy="573" r="46"/>
	<g transform="translate(517.639 553.5)">
		<path class="st1" d="M46,0.5h-3c-0.4,0-0.8,0.3-0.8,0.7S42.5,2,42.9,2c0,0,0,0,0.1,0h3c2.2,0,4.1,1.8,4.2,4l-19,15.8
			c-3.1,2.6-7.5,2.6-10.6,0L1.5,6c0.1-2.2,1.9-4,4.2-4h34.2c0.4,0,0.8-0.3,0.8-0.7c0-0.4-0.3-0.8-0.7-0.8c0,0,0,0-0.1,0H5.7
			C2.6,0.5,0,3.1,0,6.2v18.3c0,0.4,0.4,0.8,0.8,0.7c0.4,0,0.7-0.3,0.7-0.7V8l18,15c3.6,3,8.9,3,12.6,0l18-15v25.6c0,2.2-1.8,4-4,4
			H5.6c-2.2,0-4-1.8-4-4v-6c0-0.4-0.3-0.8-0.7-0.8c-0.4,0-0.8,0.3-0.8,0.7c0,0,0,0,0,0.1v6c0,3.1,2.5,5.6,5.6,5.6h40.5
			c3.1,0,5.6-2.5,5.6-5.6V6.2C51.7,3.1,49.1,0.5,46,0.5z"/>
		<path class="st1" d="M45.8,35.1c0.3,0.3,0.8,0.3,1.1-0.1c0.3-0.3,0.3-0.8-0.1-1.1c0,0,0,0,0,0L34.5,23.7c-0.3-0.3-0.8-0.3-1.1,0.1
			c-0.3,0.3-0.3,0.8,0.1,1.1c0,0,0,0,0,0L45.8,35.1z"/>
		<path class="st1" d="M5.4,35.3c0.2,0,0.4-0.1,0.5-0.2l12.2-10.2c0.3-0.3,0.3-0.8,0.1-1.1c-0.3-0.3-0.7-0.3-1-0.1L5,33.9
			c-0.3,0.3-0.4,0.8-0.1,1.1C5,35.2,5.2,35.3,5.4,35.3L5.4,35.3z"/>
	</g>
	<g transform="translate(494 523)">
		<circle class="st2" cx="50" cy="50" r="50"/>
		<circle class="st3" cx="50" cy="50" r="49.5"/>
	</g>
</g>
</svg>
