<svg xmlns="http://www.w3.org/2000/svg" width="9.482" height="9.482" viewBox="0 0 9.482 9.482"><g transform="translate(120.04 -13.645)"><path d="M104.722,154.7a.324.324,0,0,0-.324.324v12.115a.324.324,0,0,0,.647,0V155.027A.324.324,0,0,0,104.722,154.7Zm0,0" transform="translate(-303.252 -21.468) rotate(-45)" fill="#fff"/><path d="M.324,12.762A.324.324,0,0,1,0,12.438V.324a.324.324,0,0,1,.647,0V12.438A.324.324,0,0,1,.324,12.762Zm0,0" transform="translate(-119.582 23.127) rotate(-135)" fill="#fff"/></g></svg>