<svg xmlns="http://www.w3.org/2000/svg" width="100" height="100" viewBox="0 0 100 100"><g transform="translate(-160 -523)"><circle cx="46" cy="46" r="46" transform="translate(164 527)" fill="#d1d1d1"/><g transform="translate(188.26 549.421)"><g transform="translate(0)"><path d="M43.619,448a.953.953,0,1,0,.953.953A.953.953,0,0,0,43.619,448Z" transform="translate(-38.854 -407.978)" fill="#fff" stroke="#fff" stroke-width="0.2"/><path d="M243.243,448H235.62a.953.953,0,1,0,0,1.906h7.623a.953.953,0,1,0,0-1.906Z" transform="translate(-213.703 -407.978)" fill="#fff" stroke="#fff" stroke-width="0.2"/><path d="M35.917,11.479A14.286,14.286,0,0,0,7.623,14.294c0,.322.013.65.042,1A8.589,8.589,0,0,0,0,23.823a8.347,8.347,0,0,0,.385,2.42A.953.953,0,1,0,2.213,25.7a6.526,6.526,0,0,1-.307-1.881,6.671,6.671,0,0,1,6.609-6.674,1.112,1.112,0,0,0,.936-.311.946.946,0,0,0,.223-.759A12.29,12.29,0,0,1,21.917,1.906,12.434,12.434,0,0,1,34.166,12.536a1.091,1.091,0,0,0,1.092.8,8.575,8.575,0,0,1,1.7,16.981.953.953,0,0,0,.187,1.887.907.907,0,0,0,.189-.019,10.467,10.467,0,0,0-1.414-20.711Z" transform="translate(0)" fill="#fff" stroke="#fff" stroke-width="0.2"/><path d="M43.619,362.667a.953.953,0,1,0,.953.953A.953.953,0,0,0,43.619,362.667Z" transform="translate(-38.854 -330.268)" fill="#fff" stroke="#fff" stroke-width="0.2"/><path d="M31.446,320H2.859A2.862,2.862,0,0,0,0,322.859v3.812a2.838,2.838,0,0,0,.743,1.906A2.841,2.841,0,0,0,0,330.482v3.812a2.861,2.861,0,0,0,2.859,2.859H31.446a2.862,2.862,0,0,0,2.859-2.859v-3.812a2.837,2.837,0,0,0-.743-1.906,2.838,2.838,0,0,0,.743-1.906v-3.812A2.862,2.862,0,0,0,31.446,320Zm.953,14.294a.953.953,0,0,1-.953.953H2.859a.953.953,0,0,1-.953-.953v-3.812a.953.953,0,0,1,.953-.953H31.446a.953.953,0,0,1,.953.953Zm0-7.623a.953.953,0,0,1-.953.953H2.859a.953.953,0,0,1-.953-.953v-3.812a.953.953,0,0,1,.953-.953H31.446a.953.953,0,0,1,.953.953Z" transform="translate(0 -291.413)" fill="#fff" stroke="#fff" stroke-width="0.2"/><path d="M243.243,362.667H235.62a.953.953,0,1,0,0,1.906h7.623a.953.953,0,1,0,0-1.906Z" transform="translate(-213.703 -330.268)" fill="#fff" stroke="#fff" stroke-width="0.2"/></g></g><g transform="translate(160 523)" fill="none" stroke="#adadad" stroke-linecap="round" stroke-width="1" stroke-dasharray="0 5"><circle cx="50" cy="50" r="50" stroke="none"/><circle cx="50" cy="50" r="49.5" fill="none"/></g></g></svg>