<svg xmlns="http://www.w3.org/2000/svg" width="19.264" height="19.264" viewBox="0 0 19.264 19.264"><g transform="translate(7.224 10.435)"><path d="M12.612,19.421H9.4a.4.4,0,0,1,0-.8h3.211a1.205,1.205,0,0,0,1.2-1.2V13.4a.4.4,0,1,1,.8,0v4.013A2.009,2.009,0,0,1,12.612,19.421Z" transform="translate(-9 -13)" fill="#fefefe"/></g><g transform="translate(10.435 8.027)"><path d="M21.428,10.8H13.4a.4.4,0,0,1,0-.8h8.027a.4.4,0,0,1,0,.8Z" transform="translate(-13 -10)" fill="#fefefe"/></g><g transform="translate(0)"><path d="M6.421,19.264a1.529,1.529,0,0,1-.512-.087L1.1,17.574A1.6,1.6,0,0,1,0,16.053V1.605A1.607,1.607,0,0,1,1.605,0a1.5,1.5,0,0,1,.513.088l4.807,1.6a1.6,1.6,0,0,1,1.1,1.52V17.659A1.607,1.607,0,0,1,6.421,19.264ZM1.605.8a.8.8,0,0,0-.8.8V16.053a.8.8,0,0,0,.552.759l4.816,1.605a.8.8,0,0,0,1.053-.759V3.211a.8.8,0,0,0-.552-.759L1.856.847A.739.739,0,0,0,1.605.8Z" transform="translate(0)" fill="#fefefe"/></g><g transform="translate(1.204)"><path d="M12.737,6.421a.4.4,0,0,1-.4-.4V2.007a1.205,1.205,0,0,0-1.2-1.2H1.9a.4.4,0,0,1,0-.8h9.231a2.009,2.009,0,0,1,2.007,2.007V6.02A.4.4,0,0,1,12.737,6.421Z" transform="translate(-1.5)" fill="#fefefe"/></g><g transform="translate(15.251 4.817)"><path d="M19.4,13.224a.4.4,0,0,1-.284-.685l2.927-2.927L19.117,6.687a.4.4,0,0,1,.567-.567L22.9,9.33a.4.4,0,0,1,0,.567l-3.211,3.211a.4.4,0,0,1-.283.116Z" transform="translate(-19 -6.002)" fill="#fefefe"/></g></svg>