<svg xmlns="http://www.w3.org/2000/svg" width="13.975" height="13.975" viewBox="0 0 13.975 13.975"><path d="M13.6,2.268,11.7.361a1.3,1.3,0,0,0-1.8,0L1.363,8.983a.32.32,0,0,0-.08.137L.012,13.57a.318.318,0,0,0,.393.393l4.447-1.272a.319.319,0,0,0,.136-.08L13.6,4.066a1.272,1.272,0,0,0,0-1.8Zm-5.087.4L9.685,3.841l-6.1,6.1-.438-.876a.318.318,0,0,0-.284-.176H2.35ZM.78,13.2l.414-1.448,1.034,1.035Zm3.667-1.047-1.52.434L1.393,11.049l.434-1.52h.835l.547,1.095a.318.318,0,0,0,.142.142l1.095.547v.835Zm.635-.522v-.509a.318.318,0,0,0-.176-.284l-.876-.438,6.1-6.1L11.3,5.46Zm8.073-8-1.4,1.388L8.963,2.221,10.35.822a.65.65,0,0,1,.9,0l1.906,1.906a.635.635,0,0,1,0,.9Z" transform="translate(0 0)" fill="#fff"/></svg>