<svg xmlns="http://www.w3.org/2000/svg" width="152" height="152" viewBox="0 0 152 152">
  <g id="Grupo_1820" data-name="Grupo 1820" transform="translate(-607 -167)">
    <circle id="Elipse_15" data-name="Elipse 15" cx="76" cy="76" r="76" transform="translate(607 167)" fill="#d1d1d1"/>
    <g id="Grupo_2621" data-name="Grupo 2621">
      <path id="Trazado_2059" data-name="Trazado 2059" d="M50.285,89.568A39.284,39.284,0,1,1,89.569,50.284,39.33,39.33,0,0,1,50.285,89.568Zm0-72.525a33.24,33.24,0,1,0,33.241,33.24A33.28,33.28,0,0,0,50.285,17.044Z" transform="translate(632.716 192.716)" fill="#fff"/>
      <path id="Trazado_2060" data-name="Trazado 2060" d="M29.111,45.22a3.054,3.054,0,0,1-2.139-.882L14.884,32.25a3.021,3.021,0,0,1,4.273-4.273l9.8,9.8L47.985,16.034a3.022,3.022,0,0,1,4.551,3.977L31.383,44.186a3.044,3.044,0,0,1-2.176,1.033h-.1Z" transform="translate(647.846 212.89)" fill="#fff"/>
    </g>
  </g>
</svg>
