<svg xmlns="http://www.w3.org/2000/svg" width="152" height="152" viewBox="0 0 152 152"><g transform="translate(-607 -167)"><circle cx="76" cy="76" r="76" transform="translate(607 167)" fill="#d1d1d1"/><path d="M8.127,49.548h55.33a8.136,8.136,0,0,0,8.127-8.127V3.877A8.136,8.136,0,0,0,63.456-4.25H8.127A8.136,8.136,0,0,0,0,3.877V41.421A8.135,8.135,0,0,0,8.127,49.548Zm0-2.421a5.668,5.668,0,0,1-3.455-1.169L21.219,29.034a1.21,1.21,0,1,0-1.731-1.692L3.095,44.109a5.68,5.68,0,0,1-.674-2.688V6.545L30.55,30.363a8.1,8.1,0,0,0,10.507,0L69.162,6.522v34.9a5.669,5.669,0,0,1-.679,2.7L51.993,27.339a1.21,1.21,0,0,0-1.726,1.7L66.9,45.964a5.67,5.67,0,0,1-3.448,1.163Zm0-48.957h55.33a5.713,5.713,0,0,1,5.682,5.2L39.492,28.512a5.687,5.687,0,0,1-7.378,0L2.443,3.391A5.712,5.712,0,0,1,8.127-1.829Zm0,0" transform="translate(647 220.25)" fill="#fff" stroke="#fff" stroke-width="1"/></g></svg>