<svg xmlns="http://www.w3.org/2000/svg" width="152" height="152" viewBox="0 0 152 152"><g transform="translate(-607 -167)"><circle cx="76" cy="76" r="76" transform="translate(607 167)" fill="#d1d1d1"/><g transform="translate(644.053 198.929)"><path d="M33.484,55.968A22.484,22.484,0,1,1,55.968,33.484,22.51,22.51,0,0,1,33.484,55.968Zm0-41.509A19.025,19.025,0,1,0,52.509,33.484,19.048,19.048,0,0,0,33.484,14.459Z" transform="translate(27.05 27.05)" fill="#fff"/><path d="M22.648,32.3a1.748,1.748,0,0,1-1.225-.505l-6.918-6.918a1.729,1.729,0,0,1,2.446-2.446l5.611,5.611L33.451,15.592a1.73,1.73,0,0,1,2.6,2.276L23.949,31.7A1.742,1.742,0,0,1,22.7,32.3h-.055Z" transform="translate(34.427 36.886)" fill="#fff"/><path d="M32.862,65.264H8.648A8.658,8.658,0,0,1,0,56.616V11.648A8.658,8.658,0,0,1,8.648,3h6.918a1.73,1.73,0,0,1,0,3.459H8.648a5.2,5.2,0,0,0-5.189,5.189V56.616A5.2,5.2,0,0,0,8.648,61.8H32.862a1.73,1.73,0,0,1,0,3.459Z" transform="translate(0 7.377)" fill="#fff"/><path d="M27.566,23.755a1.73,1.73,0,0,1-1.73-1.73V11.648a5.2,5.2,0,0,0-5.189-5.189H13.73A1.73,1.73,0,0,1,13.73,3h6.918A8.658,8.658,0,0,1,29.3,11.648V22.025A1.73,1.73,0,0,1,27.566,23.755Z" transform="translate(29.509 7.377)" fill="#fff"/><path d="M29.943,20.755H9.189A5.2,5.2,0,0,1,4,15.566V8.648a1.73,1.73,0,0,1,1.73-1.73h5.362a8.65,8.65,0,0,1,16.95,0H33.4a1.73,1.73,0,0,1,1.73,1.73v6.918A5.2,5.2,0,0,1,29.943,20.755ZM7.459,10.377v5.189a1.732,1.732,0,0,0,1.73,1.73H29.943a1.732,1.732,0,0,0,1.73-1.73V10.377H26.484a1.73,1.73,0,0,1-1.73-1.73,5.189,5.189,0,1,0-10.377,0,1.73,1.73,0,0,1-1.73,1.73Z" transform="translate(9.836)" fill="#fff"/><path d="M39.321,11.459H4.73A1.73,1.73,0,0,1,4.73,8H39.321a1.73,1.73,0,0,1,0,3.459Z" transform="translate(7.377 19.673)" fill="#fff"/><path d="M28.943,14.459H4.73A1.73,1.73,0,0,1,4.73,11H28.943a1.73,1.73,0,1,1,0,3.459Z" transform="translate(7.377 27.05)" fill="#fff"/><path d="M22.025,17.459H4.73A1.73,1.73,0,1,1,4.73,14h17.3a1.73,1.73,0,1,1,0,3.459Z" transform="translate(7.377 34.427)" fill="#fff"/></g></g></svg>