<svg xmlns="http://www.w3.org/2000/svg" width="152" height="152" viewBox="0 0 152 152"><g transform="translate(-607 -167)"><circle cx="76" cy="76" r="76" transform="translate(607 167)" fill="#d1d1d1"/><g transform="translate(-137 -41)"><g transform="translate(764.957 231.753)"><path d="M37.307,19.267A1.307,1.307,0,0,1,36,17.96V15.182a1.307,1.307,0,0,1,2.614,0V17.96A1.307,1.307,0,0,1,37.307,19.267Z" transform="translate(8.294 1.497)" fill="#fff" stroke="#fff" stroke-width="1"/><path d="M37.307,61.392A1.307,1.307,0,0,1,36,60.085V57.307a1.307,1.307,0,1,1,2.614,0v2.778A1.307,1.307,0,0,1,37.307,61.392Z" transform="translate(8.294 14.437)" fill="#fff" stroke="#fff" stroke-width="1"/><path d="M17.96,38.614H15.182a1.307,1.307,0,0,1,0-2.614H17.96a1.307,1.307,0,1,1,0,2.614Z" transform="translate(1.497 8.294)" fill="#fff" stroke="#fff" stroke-width="1"/><path d="M51.45,24.933a1.307,1.307,0,0,1-.924-2.231l1.961-1.961a1.307,1.307,0,1,1,1.848,1.848L52.374,24.55a1.307,1.307,0,0,1-.924.383Z" transform="translate(12.638 3.489)" fill="#fff" stroke="#fff" stroke-width="1"/><path d="M21.662,54.72a1.307,1.307,0,0,1-.924-2.231L22.7,50.528a1.307,1.307,0,1,1,1.848,1.848l-1.961,1.961A1.307,1.307,0,0,1,21.662,54.72Z" transform="translate(3.488 12.639)" fill="#fff" stroke="#fff" stroke-width="1"/><path d="M23.625,24.933a1.307,1.307,0,0,1-.924-.383L20.74,22.589a1.307,1.307,0,1,1,1.848-1.848L24.549,22.7a1.307,1.307,0,0,1-.924,2.231Z" transform="translate(3.489 3.489)" fill="#fff" stroke="#fff" stroke-width="1"/><path d="M53.413,54.72a1.307,1.307,0,0,1-.924-.383l-1.961-1.961a1.307,1.307,0,1,1,1.848-1.848l1.961,1.961a1.307,1.307,0,0,1-.924,2.231Z" transform="translate(12.639 12.639)" fill="#fff" stroke="#fff" stroke-width="1"/><path d="M31.974,49.886a1.307,1.307,0,0,1-.924-2.231l6.588-6.588V23.307a1.307,1.307,0,0,1,2.614,0v18.3a1.307,1.307,0,0,1-.383.924L32.9,49.5A1.307,1.307,0,0,1,31.974,49.886Z" transform="translate(6.656 3.993)" fill="#fff" stroke="#fff" stroke-width="1"/></g><path d="M-3095.4-890.8a36.371,36.371,0,0,1-14.247-2.876,36.481,36.481,0,0,1-11.634-7.844,36.486,36.486,0,0,1-7.844-11.634A36.375,36.375,0,0,1-3132-927.4a36.374,36.374,0,0,1,2.876-14.247,36.481,36.481,0,0,1,7.844-11.634,36.482,36.482,0,0,1,11.634-7.844A36.374,36.374,0,0,1-3095.4-964a36.443,36.443,0,0,1,13.208,2.456,36.473,36.473,0,0,1,11.067,6.752,36.551,36.551,0,0,1,12.029,22.709l-2.672-.209a34.19,34.19,0,0,0-33.631-29.094,34.025,34.025,0,0,0-33.987,33.986,34.025,34.025,0,0,0,33.987,33.987,33.766,33.766,0,0,0,6.075-.548l1.02,2.468A36.933,36.933,0,0,1-3095.4-890.8Z" transform="translate(3905.957 1204.752)" fill="#fff" stroke="#fff" stroke-width="1"/><path d="M55.969,33.268ZM33.268,14.06A19.208,19.208,0,1,0,52.476,33.268,19.231,19.231,0,0,0,33.268,14.06Z" transform="translate(809.104 267.195)" fill="#d1d1d1"/><path d="M33.484,55.968A22.484,22.484,0,1,1,55.968,33.484,22.51,22.51,0,0,1,33.484,55.968Zm0-41.509A19.025,19.025,0,1,0,52.509,33.484,19.048,19.048,0,0,0,33.484,14.459Z" transform="translate(809.104 266.979)" fill="#fff"/><line y2="15" transform="translate(842.5 288.5)" fill="none" stroke="#fff" stroke-linecap="round" stroke-width="3.5"/><line y2="1" transform="translate(842.5 310.5)" fill="none" stroke="#fff" stroke-linecap="round" stroke-width="3.5"/></g></g></svg>