<svg xmlns="http://www.w3.org/2000/svg" width="125.501" height="60.704" viewBox="0 0 125.501 60.704">
  <g id="Grupo_2624" data-name="Grupo 2624" transform="translate(-100.426 -13.07)">
    <g id="Grupo_1330" data-name="Grupo 1330" transform="translate(100.426 10.334)">
      <g id="Grupo_1318" data-name="Grupo 1318" transform="translate(0 0)">
        <g id="Grupo_1320" data-name="Grupo 1320" transform="translate(0 0)">
          <path id="Trazado_825" data-name="Trazado 825" d="M287.444,996.248c-.159,5.571,3.864,6.856,5.779,6.856a9.167,9.167,0,0,0,4.979-1.927c.637-.482.717-.561.956-.561.319,0,.356,1.524.356,1.725,0,.6-.876,1.16-1.471,1.562a10.28,10.28,0,0,1-5.817,1.843,8.674,8.674,0,0,1-8.726-8.54,9.458,9.458,0,0,1,9.681-9.219,6.3,6.3,0,0,1,5.976,3.447,8.726,8.726,0,0,1,.758,3.489c0,1.2-.121,1.4-1.6,1.4-.993,0-5.339-.079-6.215-.079Zm5.5-6.333a5.646,5.646,0,0,0-5.1,4.206c1.115.042,7.808-.038,8.885-.118-.042-.724-.281-4.088-3.785-4.088Z" transform="translate(-269.715 -962.844)" fill="#4a4a4a" fill-rule="evenodd"/>
          <path id="Trazado_826" data-name="Trazado 826" d="M292.465,991.131a4.751,4.751,0,0,1,2.313-2.4,8.7,8.7,0,0,1,3.148-.773c.4,0,.557,0,.557,1.828,0,.937-.2.975-2.271,1.38-3.269.611-3.386,2.438-3.508,3.739-.2,2.6-.239,4.262-.277,8.566-.042,1.463-.042,1.623-.557,1.706a12.955,12.955,0,0,1-1.756.079c-1.274,0-1.471,0-1.471-1.054,0-4.668.277-14.944.356-15.35.08-.326.2-.326,1.156-.326.281,0,1.555-.08,1.794-.08.516,0,.516.364.516,1.137v1.543Z" transform="translate(-255.356 -962.919)" fill="#4a4a4a" fill-rule="evenodd"/>
          <path id="Trazado_827" data-name="Trazado 827" d="M295.663,991.131a4.743,4.743,0,0,1,2.309-2.4,8.722,8.722,0,0,1,3.148-.773c.4,0,.557,0,.557,1.828,0,.937-.2.975-2.271,1.38-3.265.611-3.386,2.438-3.5,3.739-.2,2.6-.239,4.262-.281,8.566-.038,1.463-.038,1.623-.557,1.706a12.93,12.93,0,0,1-1.752.079c-1.274,0-1.475,0-1.475-1.054,0-4.668.281-14.944.36-15.35.08-.326.2-.326,1.153-.326.281,0,1.555-.08,1.794-.08.519,0,.519.364.519,1.137v1.543Z" transform="translate(-246.438 -962.919)" fill="#4a4a4a" fill-rule="evenodd"/>
          <path id="Trazado_828" data-name="Trazado 828" d="M293.062,1006.265a3.793,3.793,0,0,0-.3-.971c-.11-.246-.311-.227-.633-.061a5.579,5.579,0,0,1-2.681.759c-2.662.03-3.329-1.874-3.39-5.108-.042-2,.14-4.444.334-6.94,2.2-.076,4.388-.141,5.389-.152.246,0,.47-.137.5-.531.023-.3.049-.975.045-1.339,0-.52-.049-.713-.512-.713-.819,0-3,.11-5.2.239.129-1.334.315-3.193.334-3.689.019-.52-.1-.781-.808-.66a22.021,22.021,0,0,0-2.245.611c-.747.262-.838.428-.944,1.729-.049.637-.129,1.4-.22,2.249-.846.057-1.5.1-1.809.125-.478.042-.736.084-.842.508a6.369,6.369,0,0,0-.209,1.285c-.008.36.144.618.755.576.334-.023,1-.053,1.851-.091a64.418,64.418,0,0,0-.421,6.526c.019,4.816,1.763,7.428,5.6,7.69a7.906,7.906,0,0,0,4.96-1.271c.345-.247.5-.463.448-.773Z" transform="translate(-279.865 -965.406)" fill="#4a4a4a" fill-rule="evenodd"/>
          <path id="Trazado_829" data-name="Trazado 829" d="M299.608,990.549c-.884,0-1.687.243-2.249.243-.6,0-.8-1.365-.8-1.687,0-.482.4-1.126,3.815-1.126,3.3,0,5.544,1.084,6.788,2.491,1.487,1.645,1.885,3.693,1.885,7.027,0,1.323-.038,3.785-.159,5.6,0,.281-.038.845-.884.9-.322.023-1.733-.019-2.048.049-.838.182-.827.527-2.852,1.122a10.49,10.49,0,0,1-3.451.6,5.775,5.775,0,0,1-3.735-1.126,3.854,3.854,0,0,1-1.407-3.011c0-3.174,3.375-5.381,7.069-5.862a26.616,26.616,0,0,1,3.773-.163c0-1.323-.08-5.058-5.741-5.058Zm-1.365,10.8c0,1.2.925,2.086,2.73,2.086a11.218,11.218,0,0,0,4.217-1.123c.08-1.126.121-3.815.121-5.021-5.021.6-7.068,2.249-7.068,4.058Z" transform="translate(-238.98 -962.871)" fill="#4a4a4a" fill-rule="evenodd"/>
          <g id="Grupo_1412" data-name="Grupo 1412" transform="translate(77.618 2.736)">
            <path id="Trazado_830" data-name="Trazado 830" d="M316.4,976.079c-1.135-2.4-2.517-4.26-4.047-5.031a13.8,13.8,0,0,0-3.4-1.166,41.576,41.576,0,0,1,2.171,6.364c1.773-.095,3.542-.151,5.275-.167Z" transform="translate(-271.676 -969.038)" fill="#ae81b1" fill-rule="evenodd"/>
            <path id="Trazado_831" data-name="Trazado 831" d="M319.555,982.255a71.564,71.564,0,0,1-14.024,5.677c-1.774.548-3.609,1.069-5.462,1.545a30.673,30.673,0,0,0,6.295-.267,56.8,56.8,0,0,0,20.081-7.035c-2.291.113-4.639.133-6.889.079Z" transform="translate(-285.571 -949.822)" fill="#f17831" fill-rule="evenodd"/>
            <path id="Trazado_832" data-name="Trazado 832" d="M320.166,992.99c2.6-3.6,1.34-14.153-1.75-20.69-1.733.015-3.5.072-5.275.167,1.661,6.564,1.886,14.3-2.24,19.586a8.2,8.2,0,0,1-.8,3.678,7.784,7.784,0,0,1-2.427,1.963c2.25.054,4.6.033,6.889-.079a19.423,19.423,0,0,0,5.605-4.624Z" transform="translate(-273.688 -965.259)" fill="#be0811" fill-rule="evenodd"/>
            <path id="Trazado_833" data-name="Trazado 833" d="M308.885,981.471A129.953,129.953,0,0,1,295.6,981.4c1.387,3.424,3.188,6.233,5.274,7.566a13.718,13.718,0,0,0,6.177,1.727c1.853-.477,3.688-1,5.462-1.545a41.689,41.689,0,0,1-3.629-7.676Z" transform="translate(-292.554 -951.036)" fill="#fcae32" fill-rule="evenodd"/>
            <path id="Trazado_834" data-name="Trazado 834" d="M305.072,981.327c-1.389.1-2.822.189-4.288.256a41.676,41.676,0,0,0,3.629,7.676,71.562,71.562,0,0,0,14.024-5.677c-6.318-.159-11.861-.935-13.15-2.058-.074-.061-.143-.13-.215-.2Z" transform="translate(-284.453 -951.149)" fill="#f59330" fill-rule="evenodd"/>
            <path id="Trazado_835" data-name="Trazado 835" d="M318.25,983.684a8.2,8.2,0,0,0,.8-3.678c-.031.038-.059.079-.092.12-1,1.256-7.837,2.614-16.5,3.265.072.067.141.136.215.2,1.289,1.123,6.833,1.9,13.151,2.058a7.783,7.783,0,0,0,2.427-1.963Z" transform="translate(-281.839 -953.214)" fill="#a01217" fill-rule="evenodd"/>
            <path id="Trazado_836" data-name="Trazado 836" d="M328.046,970.4c-5.969-1.346-15.821-1.066-23.8.738a35.613,35.613,0,0,0-7.5,2.484c2.463-.182,5.005-.259,7.507-.233,7.14.072,13.953.966,17.623,2.594a4.5,4.5,0,0,1,1.62,1.348c2.191-.254,4.457-.443,6.72-.566a41.587,41.587,0,0,0-2.171-6.364Z" transform="translate(-290.763 -969.552)" fill="#985d9a" fill-rule="evenodd"/>
            <path id="Trazado_837" data-name="Trazado 837" d="M308.985,981.745a75.143,75.143,0,0,1-1.082-10.7c-2.5-.026-5.044.051-7.507.233a11.343,11.343,0,0,0-4.375,3.314c-2.763,3.9-1.763,15.08,1.438,22.984a129.953,129.953,0,0,0,13.284.071c-2.168-6.051-3.06-12.438-1.758-15.908Z" transform="translate(-294.412 -967.219)" fill="#dddb1c" fill-rule="evenodd"/>
            <path id="Trazado_838" data-name="Trazado 838" d="M318.919,974.989a4.509,4.509,0,0,0-1.62-1.348c-3.67-1.628-10.482-2.522-17.623-2.594a75.134,75.134,0,0,0,1.082,10.7,4.9,4.9,0,0,1,.843-1.486c2.2-2.54,9.257-4.334,17.318-5.267Z" transform="translate(-286.185 -967.216)" fill="#b6c62c" fill-rule="evenodd"/>
            <path id="Trazado_839" data-name="Trazado 839" d="M300.468,975.22c-1.3,3.47-.41,9.857,1.758,15.908,1.466-.067,2.9-.151,4.288-.256-2.917-2.753-4.921-9.14-6.046-15.652Z" transform="translate(-285.895 -960.694)" fill="#83ae38" fill-rule="evenodd"/>
            <path id="Trazado_840" data-name="Trazado 840" d="M314.61,975.819c-.187-1.174-.426-2.33-.71-3.452-2.263.123-4.529.313-6.72.566a16.064,16.064,0,0,1,2.381,4.78A19.873,19.873,0,0,1,313.136,976a4.054,4.054,0,0,1,1.474-.177Z" transform="translate(-274.457 -965.154)" fill="#751712" fill-rule="evenodd"/>
            <path id="Trazado_841" data-name="Trazado 841" d="M310.208,989.847c3.419-4.383,3.847-10.446,2.95-16.131a4.059,4.059,0,0,0-1.474.177,19.888,19.888,0,0,0-3.575,1.717,42.97,42.97,0,0,1,2.1,14.237Z" transform="translate(-273.005 -963.052)" fill="#841816" fill-rule="evenodd"/>
          </g>
        </g>
      </g>
    </g>
    <path id="Trazado_2078" data-name="Trazado 2078" d="M-38.59,3.774V-8.5h1.258v.612a4.9,4.9,0,0,1,2.55-.782,2.678,2.678,0,0,1,2.346,1.029A6.009,6.009,0,0,1-31.7-4.25a5.3,5.3,0,0,1-.859,3.391A3.518,3.518,0,0,1-35.411.17a9.039,9.039,0,0,1-1.9-.187V3.774Zm3.621-11.3a3.951,3.951,0,0,0-1.1.17,5.667,5.667,0,0,0-.927.34l-.323.17v5.729a13.03,13.03,0,0,0,1.836.187,2.2,2.2,0,0,0,1.93-.782A4.525,4.525,0,0,0-33-4.267a4.706,4.706,0,0,0-.5-2.516A1.658,1.658,0,0,0-34.969-7.531Zm4.386-.969h1.275l2.125,7.395h.561L-24.48-8.5H-23.2L-26.741,3.774h-1.275L-26.911,0h-1.258ZM-20.3,0h-1.275V-8.5h1.258v.595a4.818,4.818,0,0,1,2.482-.765,2.553,2.553,0,0,1,2.21.867,6.239,6.239,0,0,1,1.453-.6A5.648,5.648,0,0,1-12.6-8.67a2.524,2.524,0,0,1,2.286.91,6.478,6.478,0,0,1,.587,3.273V0H-11V-4.454a5.872,5.872,0,0,0-.34-2.423,1.473,1.473,0,0,0-1.445-.654,4.4,4.4,0,0,0-1.156.161,5.782,5.782,0,0,0-.918.314l-.323.153A8.506,8.506,0,0,1-14.96-4.42V0h-1.275V-4.386a6.253,6.253,0,0,0-.332-2.491,1.471,1.471,0,0,0-1.453-.654,4.071,4.071,0,0,0-1.114.161,5.25,5.25,0,0,0-.875.314L-20.3-6.9ZM-1.581-1.054l.493-.051.034,1A24.4,24.4,0,0,1-4.369.17,2.988,2.988,0,0,1-6.97-.892,5.706,5.706,0,0,1-7.735-4.2q0-4.471,3.553-4.471a3.25,3.25,0,0,1,2.567.961,4.473,4.473,0,0,1,.85,3.017l-.068.969h-5.61a3.486,3.486,0,0,0,.51,2.091,2.085,2.085,0,0,0,1.777.68Q-2.89-.952-1.581-1.054ZM-2.04-4.743a3.69,3.69,0,0,0-.5-2.21A1.939,1.939,0,0,0-4.173-7.6a2.091,2.091,0,0,0-1.7.68A3.432,3.432,0,0,0-6.46-4.743Z" transform="translate(171 70)" fill="#f59330"/>
  </g>
</svg>
