<svg xmlns="http://www.w3.org/2000/svg" width="244" height="34" viewBox="0 0 244 34">
  <g id="Grupo_2841" data-name="Grupo 2841" transform="translate(-940 -247)">
    <g id="Artboard" transform="translate(1025.707 253)">
      <g id="Group-60" transform="translate(-1.707 -6)">
        <rect id="Rect치ngulo_2080" data-name="Rect치ngulo 2080" width="144" height="34" rx="7" transform="translate(-84)" fill="#fff"/>
        <g id="Artboard-2" data-name="Artboard" transform="translate(-105 3.552)">
          <g id="Group-60-2" data-name="Group-60" transform="translate(28.34 3)">
            <g id="Group-3" transform="translate(0 4.433)">
              <path id="Fill-1" d="M1.623,3.367A1.635,1.635,0,1,0,0,1.732,1.63,1.63,0,0,0,1.623,3.367" transform="translate(0 -0.096)" fill="#009bdd" fill-rule="evenodd"/>
            </g>
            <g id="Group-6" transform="translate(125.687 17.246)">
              <path id="Fill-4" d="M1.675,3.29A1.635,1.635,0,1,0,.053,1.656,1.63,1.63,0,0,0,1.675,3.29" transform="translate(-0.053 -0.019)" fill="#6b1a6b" fill-rule="evenodd"/>
            </g>
            <path id="Fill-7" d="M72.146,13.311v-.006a5.783,5.783,0,0,0-1.785-4.4l-.081-.073-.018-.017h0a6.515,6.515,0,0,0-4.279-1.434l-.037,0a.4.4,0,0,0-.048,0H65.88c-.052,0-.087,0-.113,0s-.053,0-.091,0h-.026a.509.509,0,0,0-.051,0h-.015a.224.224,0,0,0-.034,0,6.5,6.5,0,0,0-4.266,1.434H61.28l-.1.089A5.776,5.776,0,0,0,59.4,13.284v0l0,.007-.009,9.385a.463.463,0,0,0,.147.336.523.523,0,0,0,.356.141h1.67a.524.524,0,0,0,.356-.141.458.458,0,0,0,.147-.336l0-9.068a3.994,3.994,0,0,1,.963-2.893,4.372,4.372,0,0,1,5.485,0,4,4,0,0,1,.963,2.9l0,9.065a.463.463,0,0,0,.147.336.524.524,0,0,0,.356.141h1.673a.522.522,0,0,0,.356-.141.456.456,0,0,0,.148-.336Z" transform="translate(-21.721 -2.7)" fill="#d7006d" fill-rule="evenodd"/>
            <path id="Fill-9" d="M163.974,13.311v-.006a5.783,5.783,0,0,0-1.785-4.4l-.081-.073-.018-.017h0a6.515,6.515,0,0,0-4.279-1.434l-.037,0a.4.4,0,0,0-.049,0h-.013c-.052,0-.087,0-.112,0s-.053,0-.091,0h-.026a.506.506,0,0,0-.051,0h-.015a.223.223,0,0,0-.034,0,6.5,6.5,0,0,0-4.266,1.434h-.005l-.1.089a5.776,5.776,0,0,0-1.785,4.377v0l0,.007-.009,9.385a.462.462,0,0,0,.147.336.522.522,0,0,0,.356.141h1.671a.524.524,0,0,0,.356-.141.459.459,0,0,0,.146-.336l0-9.068a3.992,3.992,0,0,1,.963-2.893,4.372,4.372,0,0,1,5.485,0,4,4,0,0,1,.963,2.9l0,9.065a.461.461,0,0,0,.147.336.523.523,0,0,0,.356.141h1.673a.523.523,0,0,0,.356-.141.457.457,0,0,0,.147-.336Z" transform="translate(-55.31 -2.7)" fill="#d7006d" fill-rule="evenodd"/>
            <path id="Fill-11" d="M116.453,6.317a.238.238,0,0,0-.03-.032,6.278,6.278,0,0,0-4.235-1.423.85.85,0,0,0-.1,0,6.043,6.043,0,0,0-4.122,1.366h0V5.292h0V.563a.46.46,0,0,0-.147-.335.524.524,0,0,0-.356-.14h-1.646a.527.527,0,0,0-.356.14.458.458,0,0,0-.147.335V5.292h0v10.04h0v4.7a.462.462,0,0,0,.147.334.524.524,0,0,0,.357.14h1.645a.521.521,0,0,0,.356-.14.451.451,0,0,0,.148-.334v-.972a5.408,5.408,0,0,0,4.12,1.651h.1a6.286,6.286,0,0,0,4.228-1.425c1.774-1.679,2.179-4.252,2.185-6.644s-.411-4.655-2.154-6.327Zm-.495,6.327v.071a8.753,8.753,0,0,1-.731,4,3.313,3.313,0,0,1-3.2,1.7.519.519,0,0,0-.065,0h-.029a3.317,3.317,0,0,1-3.228-1.705,8.733,8.733,0,0,1-.734-4.026V12.6a7.555,7.555,0,0,1,.734-3.738,3.313,3.313,0,0,1,3.228-1.7H112a3.317,3.317,0,0,1,3.23,1.707,7.572,7.572,0,0,1,.729,3.736Z" transform="translate(-38.523 -0.032)" fill="#d7006d" fill-rule="evenodd"/>
            <path id="Fill-13" d="M49.021,12.617v-.011a4.8,4.8,0,0,0-1.639-3.867A7.379,7.379,0,0,0,42.6,7.389h-.1a6.617,6.617,0,0,0-5.2,1.861l-.005-.005-.075.09c-.1.109-.2.222-.289.342l0,0-.134.159a.456.456,0,0,0-.1.351.528.528,0,0,0,.179.34l.076.066a.774.774,0,0,0,.1.1l.293.24.78.675a.515.515,0,0,0,.36.127.449.449,0,0,0,.326-.158l.5-.595h0a2.972,2.972,0,0,1,1.021-.749,5.754,5.754,0,0,1,2.264-.362h.012l.034,0a4.309,4.309,0,0,1,2.855.748,2.661,2.661,0,0,1,.777,2.158c0,.007,0,.025,0,.049v.984H41.973a6.78,6.78,0,0,0-4.218,1.208,4.233,4.233,0,0,0-1.615,3.449v.054A4.5,4.5,0,0,0,37.4,21.686c1.1,1.081,2.558,1.474,4.765,1.474H43.31a5.71,5.71,0,0,0,4.406-1.5,6.086,6.086,0,0,0,1.306-4.275V12.617Zm-2.763,4.838a3,3,0,0,1-.648,2.272,4.559,4.559,0,0,1-3.335.948h-.039a4.584,4.584,0,0,1-2.624-.571,1.818,1.818,0,0,1-.7-1.618v-.037a1.938,1.938,0,0,1,.716-1.666,4.185,4.185,0,0,1,2.52-.608h4.115Z" transform="translate(-13.219 -2.703)" fill="#d7006d" fill-rule="evenodd"/>
            <path id="Fill-15" d="M140.878,12.654v-.011a4.8,4.8,0,0,0-1.639-3.865,7.378,7.378,0,0,0-4.787-1.35h-.1a6.62,6.62,0,0,0-5.2,1.86l-.006,0-.075.09c-.1.109-.2.222-.29.342l0,0-.134.159a.455.455,0,0,0-.1.351.53.53,0,0,0,.179.34l.075.066a.879.879,0,0,0,.1.1l.293.24.78.674a.519.519,0,0,0,.359.127.451.451,0,0,0,.327-.158l.5-.594h0a2.987,2.987,0,0,1,1.021-.748,5.749,5.749,0,0,1,2.264-.361h.046a4.308,4.308,0,0,1,2.855.748,2.66,2.66,0,0,1,.777,2.156c0,.007,0,.025,0,.049v.983h-4.285a6.781,6.781,0,0,0-4.218,1.208A4.229,4.229,0,0,0,128,18.5v.054a4.5,4.5,0,0,0,1.261,3.163c1.1,1.08,2.558,1.473,4.765,1.473h1.144a5.713,5.713,0,0,0,4.406-1.5,6.077,6.077,0,0,0,1.306-4.272v-4.76Zm-10.115,5.865v-.037a1.935,1.935,0,0,1,.717-1.665A4.182,4.182,0,0,1,134,16.21h4.115v1.279a3,3,0,0,1-.648,2.272,4.568,4.568,0,0,1-3.335.947h-.039a4.581,4.581,0,0,1-2.624-.572,1.815,1.815,0,0,1-.705-1.616Z" transform="translate(-46.818 -2.717)" fill="#d7006d" fill-rule="evenodd"/>
            <path id="Fill-17" d="M12.689,4.767H9.866V1.906h0V.522A.47.47,0,0,0,9.377.071H7.68A.5.5,0,0,0,7.337.2a.442.442,0,0,0-.144.319V3.073h0V16.483a4.031,4.031,0,0,0,1,2.813,3.973,3.973,0,0,0,2.953,1.168h.822v-.01h.715a.454.454,0,0,0,.332-.148.528.528,0,0,0,.139-.359V18.289a.53.53,0,0,0-.139-.358.449.449,0,0,0-.332-.148H11.377a2.239,2.239,0,0,1-.664-.108,1.128,1.128,0,0,1-.26-.13,1.032,1.032,0,0,1-.19-.155,1.838,1.838,0,0,1-.4-1.305V7.439h2.823a.454.454,0,0,0,.332-.148.53.53,0,0,0,.139-.359V5.274a.531.531,0,0,0-.139-.358.45.45,0,0,0-.332-.148" transform="translate(-2.631 -0.026)" fill="#d7006d" fill-rule="evenodd"/>
            <path id="Fill-19" d="M29.42,9.4l-.157-.174a.147.147,0,0,0-.037-.059l-.095-.1h0L29,8.934l-.107-.119,0,0a4.575,4.575,0,0,0-3.428-1.437h-.1a3.521,3.521,0,0,0-2.61,1.177l-.441.524V7.913a.459.459,0,0,0-.147-.334.524.524,0,0,0-.357-.14H20.163a.522.522,0,0,0-.356.14.454.454,0,0,0-.147.334V22.685a.46.46,0,0,0,.147.335.522.522,0,0,0,.356.14h.284l.027,0h1.037l.028,0h.27a.525.525,0,0,0,.356-.14.455.455,0,0,0,.147-.335v-.256s0-.006,0-.01V13.656c0-.011,0-.022,0-.034v-.709a3.707,3.707,0,0,1,.732-2.081,2.483,2.483,0,0,1,2.018-.94,2.65,2.65,0,0,1,1.058.169,2.816,2.816,0,0,1,.876.669l.079.081.358.4a.457.457,0,0,0,.336.151.528.528,0,0,0,.361-.139L29.362,10.1a.535.535,0,0,0,.172-.348A.458.458,0,0,0,29.42,9.4" transform="translate(-7.191 -2.7)" fill="#d7006d" fill-rule="evenodd"/>
            <path id="Fill-21" d="M93.575,15.074l-.02-.013h0a7.045,7.045,0,0,0-3.487-1.016l-2.456-.207a3.834,3.834,0,0,1-2.023-.587,1.438,1.438,0,0,1-.511-1.212v-.013h0l0-.031a1.807,1.807,0,0,1,.758-1.549,4.3,4.3,0,0,1,2.5-.608h.011a6.76,6.76,0,0,1,3.74,1.008v0l.623.437a.434.434,0,0,0,.349.068.513.513,0,0,0,.31-.211L94.285,9.8a.527.527,0,0,0,.088-.368.455.455,0,0,0-.075-.191.473.473,0,0,0-.145-.169L94.047,9A9.963,9.963,0,0,0,88.34,7.369,7.248,7.248,0,0,0,83.982,8.6a4.138,4.138,0,0,0-1.719,3.377v.065a3.77,3.77,0,0,0,1.348,3.018,6.739,6.739,0,0,0,3.794,1.268l2.524.2a3.349,3.349,0,0,1,1.844.575,1.485,1.485,0,0,1,.489,1.233v.038a1.85,1.85,0,0,1-.894,1.667,5.8,5.8,0,0,1-3.029.634h-.01l-.026,0h-.013a6.275,6.275,0,0,1-4.185-1.269l-.533-.451a.449.449,0,0,0-.35-.1.526.526,0,0,0-.335.186l-1.057,1.278a.532.532,0,0,0-.122.367.459.459,0,0,0,.16.33l.5.424,0,0,.03.022.066.055,0-.005a9.693,9.693,0,0,0,5.86,1.661h.042a8.437,8.437,0,0,0,4.809-1.257,4.235,4.235,0,0,0,1.9-3.544v-.072a3.765,3.765,0,0,0-1.5-3.238" transform="translate(-29.887 -2.695)" fill="#d7006d" fill-rule="evenodd"/>
            <path id="Fill-23" d="M188.041,19.8l-2.059-2.906-4.126-6.025,3.207-3.405,1.867-1.973.114-.126a.356.356,0,0,0,.016-.529.521.521,0,0,0-.356-.141h-2.144a.694.694,0,0,0-.386.182h0l-7.2,7.678V.475a.462.462,0,0,0-.147-.335A.523.523,0,0,0,176.47,0h-1.646a.523.523,0,0,0-.356.14.456.456,0,0,0-.148.335V19.982a.464.464,0,0,0,.147.335.528.528,0,0,0,.357.14h1.645a.527.527,0,0,0,.356-.14.457.457,0,0,0,.147-.335V16.044l3.118-3.38,2.1,3.141h-.009l2.95,4.41a.489.489,0,0,0,.424.253H187.7a.521.521,0,0,0,.356-.141.4.4,0,0,0-.017-.529" transform="translate(-63.762)" fill="#d7006d" fill-rule="evenodd"/>
          </g>
        </g>
      </g>
    </g>
    <g id="Grupo_2824" data-name="Grupo 2824" transform="translate(-5)">
      <rect id="Rect치ngulo_2081" data-name="Rect치ngulo 2081" width="90" height="34" rx="7" transform="translate(1099 247)" fill="#fff"/>
      <g id="_08-Khipu-200x75-1" data-name="08-Khipu-200x75-1" transform="translate(1085.436 242.08)">
        <path id="Trazado_2508" data-name="Trazado 2508" d="M69.8,31.635a.675.675,0,0,0,.5.209h3.284a.682.682,0,0,0,.5-.209.675.675,0,0,0,.209-.5V23.969a7.626,7.626,0,0,0-.419-2.661,5.028,5.028,0,0,0-1.158-1.851,4.662,4.662,0,0,0-1.786-1.084,7.207,7.207,0,0,0-2.293-.354,4.45,4.45,0,0,0-2.163.507,4.532,4.532,0,0,0-1.382,1.056v-5.55a.665.665,0,0,0-.209-.493.672.672,0,0,0-.493-.209h-3.3a.682.682,0,0,0-.5.209.672.672,0,0,0-.209.493V31.138a.682.682,0,0,0,.209.5.675.675,0,0,0,.5.209h3.284a.665.665,0,0,0,.493-.209.675.675,0,0,0,.209-.5v-6.6a2.812,2.812,0,0,1,.535-1.8,2.048,2.048,0,0,1,1.707-.679,2.089,2.089,0,0,1,1.721.679,2.79,2.79,0,0,1,.549,1.8v6.6A.7.7,0,0,0,69.8,31.635Z" transform="translate(-20.344 -1.123)" fill="#8347ad"/>
        <path id="Trazado_2509" data-name="Trazado 2509" d="M100.476,23.98H97.187a.682.682,0,0,0-.5.209.672.672,0,0,0-.209.493V36.833a.682.682,0,0,0,.209.5.675.675,0,0,0,.5.209h3.284a.665.665,0,0,0,.493-.209.675.675,0,0,0,.209-.5V24.682a.665.665,0,0,0-.209-.493A.655.655,0,0,0,100.476,23.98Z" transform="translate(-39.65 -6.819)" fill="#8347ad"/>
        <path id="Trazado_2510" data-name="Trazado 2510" d="M126.581,34.156a7.406,7.406,0,0,0,.535-2.661c.019-.261.028-.614.028-1.056s-.009-.8-.028-1.056a7.427,7.427,0,0,0-.535-2.661,5.577,5.577,0,0,0-1.265-1.865,4.829,4.829,0,0,0-1.824-1.093,6.944,6.944,0,0,0-2.214-.354,6.091,6.091,0,0,0-1.447.144,4.348,4.348,0,0,0-.991.363,2.875,2.875,0,0,0-.679.507c-.181.191-.354.372-.507.549v-.6a.682.682,0,0,0-.209-.5.672.672,0,0,0-.493-.209H113.8a.682.682,0,0,0-.5.209.675.675,0,0,0-.209.5V41.478a.682.682,0,0,0,.209.5.675.675,0,0,0,.5.209h3.284a.682.682,0,0,0,.5-.209.675.675,0,0,0,.209-.5V35.933a4.487,4.487,0,0,0,.47.507,3.5,3.5,0,0,0,.7.507,4.232,4.232,0,0,0,.991.391,5.14,5.14,0,0,0,1.33.158,6.679,6.679,0,0,0,2.214-.363,5.046,5.046,0,0,0,1.824-1.107A5.657,5.657,0,0,0,126.581,34.156Zm-4.136-2.973a2.944,2.944,0,0,1-.6,1.591,2.076,2.076,0,0,1-1.749.679,2.479,2.479,0,0,1-.991-.181,2.037,2.037,0,0,1-.693-.484,2.356,2.356,0,0,1-.428-.665,3,3,0,0,1-.209-.758,6.576,6.576,0,0,1-.051-.912,7.388,7.388,0,0,1,.051-.912,2.747,2.747,0,0,1,.209-.758,2.356,2.356,0,0,1,.428-.665,1.993,1.993,0,0,1,.693-.484,2.479,2.479,0,0,1,.991-.181,2.076,2.076,0,0,1,1.749.679,2.944,2.944,0,0,1,.6,1.591A6.39,6.39,0,0,1,122.445,31.183Z" transform="translate(-48.533 -6.514)" fill="#8347ad"/>
        <path id="Trazado_2511" data-name="Trazado 2511" d="M157.74,37.331a.675.675,0,0,0,.5.209h3.024a.665.665,0,0,0,.493-.209.675.675,0,0,0,.209-.5V24.682a.665.665,0,0,0-.209-.493.672.672,0,0,0-.493-.209h-3.284a.682.682,0,0,0-.5.209.672.672,0,0,0-.209.493v6.6a3.045,3.045,0,0,1-.484,1.8,1.863,1.863,0,0,1-1.628.679,1.9,1.9,0,0,1-1.642-.679,2.981,2.981,0,0,1-.5-1.8v-6.6a.665.665,0,0,0-.209-.493.675.675,0,0,0-.5-.209h-3.284a.682.682,0,0,0-.5.209.672.672,0,0,0-.209.493v7.169a6,6,0,0,0,1.5,4.512,5.58,5.58,0,0,0,4.029,1.433,5.823,5.823,0,0,0,1.4-.144,5.187,5.187,0,0,0,1.028-.363,3.144,3.144,0,0,0,.744-.5,3.721,3.721,0,0,0,.507-.558v.6A.722.722,0,0,0,157.74,37.331Z" transform="translate(-67.375 -6.819)" fill="#8347ad"/>
        <path id="Trazado_2512" data-name="Trazado 2512" d="M98.745,15.761a2.266,2.266,0,1,1,2.266-2.266,2.268,2.268,0,0,1-2.266,2.266" transform="translate(-39.65)" fill="#3cb4e5"/>
        <path id="Trazado_2513" data-name="Trazado 2513" d="M31.663,32.311V27.98L30.37,29.6a.726.726,0,0,0-.023.87Z" transform="translate(-4.211 -8.958)" fill="#743ceb"/>
        <path id="Trazado_2514" data-name="Trazado 2514" d="M27.169,13.53a.674.674,0,0,0-.488-.2H23.005a.635.635,0,0,0-.465.2.674.674,0,0,0-.2.488V31.184a.635.635,0,0,0,.2.465.645.645,0,0,0,.465.2H26.68a.683.683,0,0,0,.688-.665V26.058l-.4-.535-.009-.009-.009-.014L25.3,23.192a1.682,1.682,0,0,1,.051-2.019l1.619-2.038.4-.521v-4.6A.646.646,0,0,0,27.169,13.53Z" transform="translate(0 -1.123)" fill="#8347ad"/>
        <path id="Trazado_2515" data-name="Trazado 2515" d="M42.2,31.85a.505.505,0,0,0,.4-.172.547.547,0,0,0,.158-.381.433.433,0,0,0-.107-.316l-6.5-8.783,6.029-7.987a.5.5,0,0,0,.107-.316.518.518,0,0,0-.172-.381.6.6,0,0,0-.242-.149.661.661,0,0,0-.167-.023H37.516a1.16,1.16,0,0,0-.675.172,1.427,1.427,0,0,0-.381.358l-4.5,5.894-1.628,2.047a.64.64,0,0,0-.144.4.665.665,0,0,0,.126.409l.842,1.177.8,1.121L36.8,31.292a2.951,2.951,0,0,0,.316.33.83.83,0,0,0,.4.2,1.53,1.53,0,0,0,.34.033Z" transform="translate(-4.198 -1.128)" fill="#3cb4e5"/>
      </g>
    </g>
  </g>
</svg>
