<?xml version="1.0" encoding="utf-8"?>
<!-- Generator: Adobe Illustrator 25.1.0, SVG Export Plug-In . SVG Version: 6.00 Build 0)  -->
<svg version="1.1" id="Capa_1" xmlns="http://www.w3.org/2000/svg" xmlns:xlink="http://www.w3.org/1999/xlink" x="0px" y="0px"
	 viewBox="0 0 112.9 16.1" style="enable-background:new 0 0 112.9 16.1;" xml:space="preserve">
<style type="text/css">
	.st0{fill:#EB0F19;}
</style>
<path class="st0" d="M27.4,4.9c-3.1,0-5.6,2.5-5.6,5.6c0,3.1,2.5,5.6,5.6,5.6c3.1,0,5.6-2.5,5.6-5.6c0,0,0,0,0,0
	C33,7.4,30.5,4.9,27.4,4.9z M27.4,13c-1.4,0-2.5-1.1-2.5-2.5S26.1,8,27.5,8s2.5,1.1,2.5,2.5c0,0.7-0.3,1.3-0.7,1.7
	C28.7,12.7,28.1,13,27.4,13z"/>
<path class="st0" d="M40.2,5.2h-1.5V1.9h-3.3v3.3h-1.5v3h1.5v7.6h3.3V8.2h1.5L40.2,5.2z"/>
<path class="st0" d="M41.7,5.2H45v10.6h-3.3V5.2z"/>
<path class="st0" d="M43.4,0c-1,0-1.9,0.8-1.9,1.9s0.8,1.9,1.9,1.9s1.9-0.8,1.9-1.9c0,0,0,0,0,0C45.2,0.8,44.4,0,43.4,0z"/>
<path class="st0" d="M91.2,8c1.1,0,2,0.9,2,2v5.8h3.3V9.6c0-2.8-1.6-4.7-4.2-4.7c-1.3,0-2.5,0.8-3.1,2V5.2h-3.3v10.6h3.3V10
	C89.2,8.9,90.1,8,91.2,8C91.2,8,91.2,8,91.2,8L91.2,8z"/>
<path class="st0" d="M108.7,15.8l-4.1-5.3l3.8-5.3h-3.9l-3.1,4.3V0.3h-3.3v15.5h3.3v-4.4l3.4,4.4H108.7z"/>
<path class="st0" d="M10.4,12.9c0.3-0.6,0.4-1.3,0.4-2c0-1-0.3-2-1-2.7c-1-1-2.3-1.6-3.6-1.9C5.8,6.3,5.5,6.1,5.2,6
	C4.9,5.9,4.7,5.7,4.5,5.5C4.3,5.2,4.2,4.9,4.2,4.6c0-0.5,0.3-0.9,0.7-1.1c0.8-0.4,1.8-0.4,2.6,0C7.9,3.6,8.2,3.8,8.6,4L10,1.2
	C9.4,0.8,8.7,0.5,8,0.3C7.2,0.1,6.5,0,5.7,0C5,0,4.3,0.1,3.6,0.4C3,0.6,2.4,0.9,2,1.4C1.5,1.9,1.1,2.4,0.9,3C0.6,3.7,0.5,4.3,0.5,5
	c0,1.1,0.5,2.1,1.3,2.8c0.7,0.6,1.6,1.1,2.5,1.4c0.4,0.2,0.9,0.3,1.2,0.4c0.3,0.1,0.6,0.3,0.9,0.5c0.2,0.1,0.4,0.3,0.5,0.6
	c0.1,0.2,0.1,0.5,0.1,0.7c0,0.4-0.2,0.7-0.5,0.9c-0.4,0.3-1,0.5-1.5,0.4c-0.6,0-1.3-0.2-1.9-0.4c-0.5-0.2-1-0.5-1.5-0.8L0,14.4
	c1.3,1.1,3,1.7,4.7,1.7c0.9,0,1.7-0.1,2.5-0.4c0.7-0.2,1.3-0.6,1.9-1.1C9.7,14.1,10.1,13.6,10.4,12.9L10.4,12.9z"/>
<path class="st0" d="M111.1,12.1c-1,0-1.9,0.8-1.9,1.8s0.8,1.9,1.8,1.9c1,0,1.9-0.8,1.9-1.8c0,0,0,0,0,0
	C112.9,12.9,112.1,12.1,111.1,12.1L111.1,12.1z M111.1,15.4c-0.8,0-1.5-0.7-1.5-1.5c0-0.8,0.7-1.5,1.5-1.5c0.8,0,1.5,0.7,1.5,1.5
	c0,0.4-0.2,0.8-0.4,1.1C111.9,15.3,111.5,15.4,111.1,15.4L111.1,15.4z"/>
<path class="st0" d="M111.1,14.3h-0.3V15h-0.4v-2h0.8c0.4,0,0.7,0.3,0.7,0.7c0,0.3-0.1,0.5-0.4,0.6l0.4,0.8h-0.4L111.1,14.3z
	 M110.8,13.9h0.4c0.2,0,0.3-0.1,0.3-0.3c0-0.2-0.1-0.3-0.3-0.3h-0.4V13.9z"/>
<path class="st0" d="M19.5,12c-0.9,1.1-2.4,1.2-3.5,0.4C15,11.6,14.8,10,15.7,9c0.9-1.1,2.4-1.2,3.5-0.4c0.1,0.1,0.3,0.2,0.4,0.4
	l2.2-2.2c-1.1-1.2-2.6-1.8-4.1-1.8c-3-0.1-5.6,2.2-5.7,5.3c0,0.1,0,0.2,0,0.3c0,3.1,2.4,5.6,5.5,5.6c0.1,0,0.2,0,0.2,0
	c1.6,0,3.1-0.7,4.1-1.8L19.5,12z"/>
<path class="st0" d="M58.1,15.8V5.2h-3.3v1.1L54.5,6c-0.8-0.7-1.8-1.1-2.8-1.1c-3,0.1-5.3,2.6-5.3,5.6c0,3,2.3,5.5,5.3,5.6
	c1.1,0,2.1-0.4,2.8-1.1l0.3-0.3v1.1L58.1,15.8z M52.2,13c-1.4,0-2.5-1.1-2.5-2.5c0-1.4,1.1-2.5,2.5-2.5c1.4,0,2.5,1.1,2.5,2.5
	c0,0.7-0.3,1.3-0.7,1.8C53.6,12.7,52.9,13,52.2,13L52.2,13z"/>
<path class="st0" d="M84.3,15.8V5.2h-3.3v1.1L80.8,6C80,5.3,79,4.9,77.9,4.9c-3,0.1-5.3,2.6-5.3,5.6c0,3,2.3,5.5,5.3,5.6
	c1.1,0,2.1-0.4,2.8-1.1l0.3-0.3v1.1L84.3,15.8z M78.5,13c-1.4,0-2.5-1.1-2.5-2.5S77.1,8,78.5,8c1.4,0,2.5,1.1,2.5,2.5c0,0,0,0,0,0
	C81,11.9,79.9,13,78.5,13z"/>
<path class="st0" d="M66.2,4.9c-1.1,0-2.1,0.4-2.8,1.1l-0.3,0.3v-6h-3.3v15.6h3.3v-1.1l0.3,0.3c0.8,0.7,1.8,1.1,2.8,1.1
	c3-0.1,5.3-2.6,5.3-5.6C71.5,7.5,69.2,5,66.2,4.9z M65.7,13c-1.4,0-2.5-1.1-2.5-2.5v0c0-1.4,1.1-2.5,2.5-2.5c1.4,0,2.5,1.1,2.5,2.5
	S67,13,65.7,13z"/>
</svg>
