<svg xmlns="http://www.w3.org/2000/svg" width="143.105" height="20.386" viewBox="0 0 143.105 20.386">
  <g id="surface1" transform="translate(-0.577 0.001)">
    <path id="path10352" d="M21.571,3.114A7.089,7.089,0,1,0,28.647,10.2a7.084,7.084,0,0,0-7.076-7.087Zm0,10.21a3.129,3.129,0,1,1,2.225-.908,3.127,3.127,0,0,1-2.225.908Zm0,0" transform="translate(13.78 3.087)" fill="#fff"/>
    <path id="path10354" d="M30.16,5.363H28.228V1.184H23.991V5.363H22.06V9.2h1.932V18.86h4.237V9.2H30.16Zm0,0" transform="translate(21.292 1.174)" fill="#fff"/>
    <path id="path10356" d="M27.1,3.283h4.231V16.774H27.1Zm0,0" transform="translate(26.288 3.254)" fill="#fff"/>
    <path id="path10358" d="M29.344,0A2.363,2.363,0,1,0,31.7,2.362,2.362,2.362,0,0,0,29.344,0Zm0,0" transform="translate(26.164 0.001)" fill="#fff"/>
    <path id="path10360" d="M62,7.059a2.526,2.526,0,0,1,2.516,2.522v7.354h4.231V9.056c0-3.581-2.069-5.913-5.34-5.913a4.489,4.489,0,0,0-3.927,2.478V3.473H55.246V16.934h4.2V9.581A2.525,2.525,0,0,1,62,7.059Zm0,0" transform="translate(54.185 3.116)" fill="#fff"/>
    <path id="path10362" d="M76.452,19.865l-5.194-6.744,4.829-6.753H71.143l-3.885,5.466V.169H63.029v19.7h4.228V14.3l4.264,5.562Zm0,0" transform="translate(61.899 0.169)" fill="#fff"/>
    <path id="path10364" d="M13.715,16.4a6.127,6.127,0,0,0,.458-2.486,5.124,5.124,0,0,0-1.21-3.43A9.964,9.964,0,0,0,8.376,8.035,7.267,7.267,0,0,1,7.168,7.6a3.043,3.043,0,0,1-.894-.664,1.547,1.547,0,0,1-.387-1.1,1.6,1.6,0,0,1,.859-1.4,4.156,4.156,0,0,1,3.348,0,8.6,8.6,0,0,1,1.366.639l1.8-3.581A10.3,10.3,0,0,0,10.68.366,11.447,11.447,0,0,0,7.819,0a7.585,7.585,0,0,0-2.7.445A6,6,0,0,0,3.069,1.784,6.237,6.237,0,0,0,1.7,3.839a6.686,6.686,0,0,0-.458,2.483A5.262,5.262,0,0,0,2.838,9.9,8.753,8.753,0,0,0,6.03,11.687c.56.214,1.18.406,1.575.557a5.888,5.888,0,0,1,1.158.587,1.992,1.992,0,0,1,.617.716,1.573,1.573,0,0,1,.134.867,1.739,1.739,0,0,1-.6,1.161,2.865,2.865,0,0,1-1.945.535,5.882,5.882,0,0,1-2.363-.565A17.745,17.745,0,0,1,2.723,14.5L.577,18.187a9.6,9.6,0,0,0,6,2.184,10.243,10.243,0,0,0,3.191-.508,7.432,7.432,0,0,0,2.42-1.353A6.277,6.277,0,0,0,13.715,16.4Zm0,0" transform="translate(0 0)" fill="#fff"/>
    <path id="path10366" d="M72.453,7.692A2.363,2.363,0,1,0,74.8,10.06a2.362,2.362,0,0,0-2.346-2.368Zm0,4.245a1.883,1.883,0,1,1,1.331-.554,1.888,1.888,0,0,1-1.331.554Zm0,0" transform="translate(68.883 7.625)" fill="#fff"/>
    <path id="path10368" d="M71.682,9.91H71.3V10.8h-.458V8.228h.98a.843.843,0,0,1,.365,1.611l.543.966h-.557ZM71.3,9.48h.543a.394.394,0,0,0,0-.787H71.3Zm0,0" transform="translate(69.646 8.156)" fill="#fff"/>
    <path id="path10370" d="M17.821,12.151a3.121,3.121,0,1,1-.488-4.39,3.367,3.367,0,0,1,.488.48l2.8-2.807a7.041,7.041,0,0,0-5.23-2.313A6.982,6.982,0,0,0,8.124,10.19a7.038,7.038,0,0,0,7.3,7.087,7.079,7.079,0,0,0,5.238-2.319Zm0,0" transform="translate(7.479 3.094)" fill="#fff"/>
    <path id="path10372" d="M44.905,16.963V3.449H40.784V4.881L40.4,4.547a5.139,5.139,0,0,0-3.575-1.432A7,7,0,0,0,30.1,10.2a7.012,7.012,0,0,0,6.72,7.087A5.151,5.151,0,0,0,40.4,15.852l.387-.337v1.432Zm-7.4-3.581a3.195,3.195,0,1,1,2.266-.925A3.19,3.19,0,0,1,37.508,13.382Zm0,0" transform="translate(29.263 3.087)" fill="#fff"/>
    <path id="path10374" d="M61.6,16.963V3.449H57.476V4.881l-.387-.335a5.157,5.157,0,0,0-3.578-1.432A7,7,0,0,0,46.794,10.2a7.012,7.012,0,0,0,6.717,7.087,5.157,5.157,0,0,0,3.578-1.432l.387-.337v1.432Zm-7.37-3.581a3.194,3.194,0,1,1,3.183-3.194A3.193,3.193,0,0,1,54.228,13.382Zm0,0" transform="translate(45.808 3.087)" fill="#fff"/>
    <path id="path10376" d="M42.766,19.882V18.449l.379.335a5.157,5.157,0,0,0,3.578,1.432,7,7,0,0,0,6.717-7.087,7,7,0,0,0-6.717-7.082,5.157,5.157,0,0,0-3.578,1.432l-.379.337V.169h-4.13V19.882Zm.085-6.753a3.175,3.175,0,1,0,0-.014Zm0,0" transform="translate(37.722 0.169)" fill="#fff"/>
  </g>
</svg>
