<svg xmlns="http://www.w3.org/2000/svg" width="154.246" height="32" viewBox="0 0 154.246 32">
  <g id="Grupo_2622" data-name="Grupo 2622" transform="translate(-516.754 -166)">
    <path id="Rectángulo_1844" data-name="Rectángulo 1844" d="M0,0H144a0,0,0,0,1,0,0V27a5,5,0,0,1-5,5H5a5,5,0,0,1-5-5V0A0,0,0,0,1,0,0Z" transform="translate(522 166)" fill="#ffe752"/>
    <path id="Trazado_1742" data-name="Trazado 1742" d="M20099.855-8215.7l-5.246,6h5.246Z" transform="translate(-19577.855 8381.696)" fill="#b09800"/>
    <path id="Trazado_1744" data-name="Trazado 1744" d="M20094.609-8215.7l5.246,6h-5.246Z" transform="translate(-19428.855 8381.696)" fill="#b09800"/>
    <path id="Trazado_2076" data-name="Trazado 2076" d="M-60.813-2.31h1.43A2.316,2.316,0,0,0-56.833-4.7a2.311,2.311,0,0,0-2.46-2.37H-61.3c-.925,0-.925,0-.925.9V-.7c0,.7,0,.7.71.7s.7,0,.7-.7Zm1.405-1.29h-1.405V-5.78h1.3c.87,0,1.275.38,1.275,1.095C-58.238-4.04-58.578-3.6-59.408-3.6Zm6.655-3.465H-54.8c-.925,0-.925,0-.925.9v5.5c0,.67,0,.67.7.67s.71,0,.71-.67V-2.445h.84c.28,0,.28,0,.435.2l1.69,2.1c.125.15.21.24.33.24.15,0,.235-.08.52-.32.355-.3.42-.38.42-.51a.519.519,0,0,0-.17-.325l-1.47-1.705a1.905,1.905,0,0,0,1.4-1.99A2.235,2.235,0,0,0-52.753-7.065Zm-.1,1.285a.977.977,0,0,1,1.115,1.045c0,.6-.305,1.015-1.19,1.015h-1.39V-5.78ZM-46.053.1a3.071,3.071,0,0,0,3.115-2.84,9.146,9.146,0,0,0,0-1.57A3.075,3.075,0,0,0-46.053-7.16a3.075,3.075,0,0,0-3.115,2.845,9.146,9.146,0,0,0,0,1.57A3.071,3.071,0,0,0-46.053.1Zm0-1.33A1.7,1.7,0,0,1-47.768-2.91a7.335,7.335,0,0,1,0-1.24,1.7,1.7,0,0,1,1.715-1.675,1.71,1.71,0,0,1,1.72,1.675,8.554,8.554,0,0,1,0,1.24A1.71,1.71,0,0,1-46.053-1.235Zm7.1-5.83h-1.63c-1.01,0-1.01.015-1.01.98v5.1c0,.985,0,.985,1.01.985h1.635a2.993,2.993,0,0,0,3.2-2.72,10.549,10.549,0,0,0,0-1.59A3.055,3.055,0,0,0-38.953-7.065ZM-39-5.7a1.677,1.677,0,0,1,1.865,1.79,6.21,6.21,0,0,1-.005.805A1.675,1.675,0,0,1-39-1.37h-1.19V-5.7Zm10.58,2.655V-6.345c0-.72,0-.72-.7-.72s-.7,0-.7.72v3.39a1.6,1.6,0,0,1-1.63,1.74,1.6,1.6,0,0,1-1.635-1.74v-3.39c0-.72,0-.72-.7-.72s-.695,0-.695.72V-3.04A2.963,2.963,0,0,0-31.453.1,2.974,2.974,0,0,0-28.418-3.04Zm4.26-4.12a2.967,2.967,0,0,0-3,2.85,9.379,9.379,0,0,0,0,1.59A2.942,2.942,0,0,0-24.153.1a2.787,2.787,0,0,0,2.58-1.505,1.939,1.939,0,0,0,.185-.57c0-.16-.01-.16-.505-.345a2.01,2.01,0,0,0-.55-.165c-.175,0-.175.145-.315.39a1.554,1.554,0,0,1-1.4.865,1.571,1.571,0,0,1-1.6-1.635,8.831,8.831,0,0,1,0-1.26,1.629,1.629,0,0,1,1.6-1.7,1.547,1.547,0,0,1,1.405.87c.13.21.14.38.3.38a2.271,2.271,0,0,0,.57-.18c.33-.13.505-.17.505-.33a1.464,1.464,0,0,0-.15-.495A2.774,2.774,0,0,0-24.158-7.16Zm5.53,1.48v5c0,.68,0,.68.7.68s.695,0,.695-.68v-5h1.505c.71,0,.71,0,.71-.69s0-.7-.71-.7h-4.415c-.71,0-.71,0-.71.7s0,.69.71.69ZM-11.158.1a3.071,3.071,0,0,0,3.115-2.84,9.146,9.146,0,0,0,0-1.57A3.075,3.075,0,0,0-11.158-7.16a3.075,3.075,0,0,0-3.115,2.845,9.146,9.146,0,0,0,0,1.57A3.071,3.071,0,0,0-11.158.1Zm0-1.33A1.7,1.7,0,0,1-12.873-2.91a7.335,7.335,0,0,1,0-1.24,1.7,1.7,0,0,1,1.715-1.675A1.71,1.71,0,0,1-9.438-4.15a8.554,8.554,0,0,1,0,1.24A1.71,1.71,0,0,1-11.158-1.235ZM1.977-7.065c-1.09,0-1.1,0-1.315,1.22l-.83,4.2c-.01.055-.025.07-.085.07s-.065-.015-.075-.07l-.85-4.225c-.215-1.2-.235-1.2-1.3-1.2-1.09,0-1.09,0-1.255,1.225L-4.4-1.1c-.025.155-.09.605-.09.745,0,.18.025.255.575.33a6.037,6.037,0,0,0,.605.055c.17,0,.23-.035.29-.615l.55-4.9c0-.045.01-.065.065-.065a.063.063,0,0,1,.07.055l.95,4.51C-1.193,0-1.193,0-.253,0S.687,0,.882-.975l.935-4.51c.01-.05.025-.055.07-.055s.06,0,.065.06L2.517-.52c.05.52.115.555.3.555a5.389,5.389,0,0,0,.675-.07c.265-.045.5-.065.5-.27a4.9,4.9,0,0,0-.065-.57l-.7-4.965C3.052-7.07,3.057-7.065,1.977-7.065ZM9.222-9.37a.941.941,0,0,0-.325.125l-1.35.7c-.205.105-.34.165-.34.3,0,.075.035.14.175.4.15.275.2.36.325.36a.8.8,0,0,0,.34-.125L9.4-8.3c.23-.12.345-.185.345-.315,0-.07-.015-.115-.17-.395C9.4-9.33,9.358-9.37,9.222-9.37ZM8.063-7.065c-.99,0-.99,0-1.185.53L4.832-.915a1.5,1.5,0,0,0-.135.46c0,.125.1.2.59.365a2.126,2.126,0,0,0,.545.125c.135,0,.185-.145.29-.44l.55-1.565h2.77L10-.375c.125.375.175.41.3.41a2.08,2.08,0,0,0,.59-.145c.43-.15.535-.215.535-.35a1.83,1.83,0,0,0-.145-.47L9.263-6.535C9.073-7.065,9.073-7.065,8.063-7.065ZM8.068-5.7c.1,0,.1,0,.14.13l.83,2.4H7.083l.84-2.4C7.968-5.7,7.968-5.7,8.068-5.7Zm6.58-1.46c-1.49,0-2.565.835-2.565,2.105,0,1.215.74,1.8,2.4,2.13.985.2,1.555.37,1.555.855,0,.52-.47.82-1.22.82a2.88,2.88,0,0,1-1.67-.49c-.245-.155-.34-.25-.445-.25-.16,0-.285.18-.47.395-.23.28-.31.365-.31.5,0,.155.125.28.355.45a3.964,3.964,0,0,0,2.44.74c1.71,0,2.73-.925,2.73-2.17,0-1.21-.79-1.82-2.56-2.15-1.02-.185-1.39-.38-1.39-.825,0-.405.33-.78,1.15-.78a2.578,2.578,0,0,1,1.265.3c.255.12.37.21.485.21.14,0,.225-.14.44-.445s.26-.39.26-.49c0-.125-.085-.2-.265-.325A3.909,3.909,0,0,0,14.647-7.16Zm10.7.1H22.107c-1.005.015-1.005.015-1.005.98v5.1c0,.99,0,.99,1.005.99h3.265c.675,0,.675,0,.675-.66,0-.645,0-.645-.675-.645H22.5v-1.63h2.555c.64,0,.64,0,.64-.615s0-.605-.64-.605H22.5v-1.61h2.85c.675,0,.675,0,.675-.655S26.027-7.065,25.352-7.065Zm2,.72V-.8c0,.8,0,.8.81.8h3.26c.71,0,.71,0,.71-.685s0-.7-.71-.7h-2.67V-6.345c0-.72,0-.72-.7-.72S27.352-7.065,27.352-6.345Zm9.94-.72H34.047c-1.005.015-1.005.015-1.005.98v5.1c0,.99,0,.99,1.005.99h3.265c.675,0,.675,0,.675-.66,0-.645,0-.645-.675-.645h-2.87v-1.63H37c.64,0,.64,0,.64-.615s0-.605-.64-.605H34.442v-1.61h2.85c.675,0,.675,0,.675-.655S37.967-7.065,37.292-7.065Zm4.805-.1a3,3,0,0,0-3.035,2.85,9.379,9.379,0,0,0,0,1.59A2.958,2.958,0,0,0,42.1.1a2.669,2.669,0,0,0,2.865-2.6v-.55c0-.925,0-.925-.94-.925H42.772c-.57,0-.57,0-.57.63s0,.635.57.635h.865v.345c0,.615-.485,1.185-1.465,1.185a1.572,1.572,0,0,1-1.705-1.54,5.869,5.869,0,0,1-.025-1.4c.1-1.1.685-1.715,1.66-1.715a1.5,1.5,0,0,1,1.415.78c.215.33.22.37.33.37a1.856,1.856,0,0,0,.525-.15c.385-.145.485-.185.485-.335a1.442,1.442,0,0,0-.215-.615A2.739,2.739,0,0,0,42.1-7.16Zm4.185.815v5.63c0,.715,0,.715.7.715s.7,0,.7-.7v-5.65c0-.72,0-.72-.7-.72S46.282-7.065,46.282-6.345Zm5.605-.72h-1.63c-1.01,0-1.01.015-1.01.98v5.1c0,.985,0,.985,1.01.985h1.635a2.993,2.993,0,0,0,3.2-2.72,10.549,10.549,0,0,0,0-1.59A3.055,3.055,0,0,0,51.887-7.065ZM51.842-5.7a1.677,1.677,0,0,1,1.865,1.79A6.21,6.21,0,0,1,53.7-3.1a1.675,1.675,0,0,1-1.865,1.73h-1.19V-5.7ZM59.327.1a3.071,3.071,0,0,0,3.115-2.84,9.146,9.146,0,0,0,0-1.57A3.075,3.075,0,0,0,59.327-7.16a3.075,3.075,0,0,0-3.115,2.845,9.146,9.146,0,0,0,0,1.57A3.071,3.071,0,0,0,59.327.1Zm0-1.33A1.7,1.7,0,0,1,57.612-2.91a7.335,7.335,0,0,1,0-1.24,1.7,1.7,0,0,1,1.715-1.675,1.71,1.71,0,0,1,1.72,1.675,8.554,8.554,0,0,1,0,1.24A1.71,1.71,0,0,1,59.327-1.235Z" transform="translate(595.416 186)" fill="#4a4a4a"/>
  </g>
</svg>
