<svg xmlns="http://www.w3.org/2000/svg" width="284" height="95" viewBox="0 0 284 95">
  <g id="Grupo_2761" data-name="Grupo 2761" transform="translate(-742 -241)">
    <text id="En_breve_estará_disponible_tu_producto" data-name="En breve estará disponible tu producto" transform="translate(884 329)" fill="#707070" font-size="17" font-family="TitilliumWeb-Bold, Titillium Web" font-weight="700"><tspan x="-141.67" y="0">En breve estará disponible tu producto</tspan></text>
    <g id="Arrows" transform="translate(852 238)">
      <path id="Trazado_2309" data-name="Trazado 2309" d="M37,61H27a1,1,0,0,1-1-1V57.3a25.61,25.61,0,0,1-7.65-3.17L16.44,56A1,1,0,0,1,15,56L8,49a1,1,0,0,1,0-1.41l1.91-1.91A25.61,25.61,0,0,1,6.7,38H4a1,1,0,0,1-1-1V27a1,1,0,0,1,1-1H6.7a25.61,25.61,0,0,1,3.17-7.65L8,16.44A1,1,0,0,1,8,15l7-7a1,1,0,0,1,1.41,0l1.91,1.91A25.61,25.61,0,0,1,26,6.7V4a1,1,0,0,1,1-1H37a1,1,0,0,1,1,1V6.7a25.61,25.61,0,0,1,7.65,3.17L47.56,8A1,1,0,0,1,49,8l7,7a1,1,0,0,1,0,1.41l-1.91,1.91A25.61,25.61,0,0,1,57.3,26H60a1,1,0,0,1,1,1V37a1,1,0,0,1-1,1H57.3a25.61,25.61,0,0,1-3.17,7.65L56,47.56A1,1,0,0,1,56,49l-7,7a1,1,0,0,1-1.41,0l-1.91-1.91A25.61,25.61,0,0,1,38,57.3V60a1,1,0,0,1-1,1Zm-9-2h8V56.5a1,1,0,0,1,.8-1A23.74,23.74,0,0,0,45.23,52a1,1,0,0,1,1.26.13l1.77,1.77,5.66-5.66-1.77-1.77A1,1,0,0,1,52,45.23a23.74,23.74,0,0,0,3.5-8.43,1,1,0,0,1,1-.8H59V28H56.5a1,1,0,0,1-1-.8A23.74,23.74,0,0,0,52,18.77a1,1,0,0,1,.13-1.26l1.77-1.77-5.66-5.66-1.77,1.77a1,1,0,0,1-1.26.13,23.74,23.74,0,0,0-8.43-3.5,1,1,0,0,1-.8-1V5H28V7.5a1,1,0,0,1-.8,1A23.74,23.74,0,0,0,18.77,12a1,1,0,0,1-1.26-.13L15.74,10.1l-5.66,5.66,1.77,1.77A1,1,0,0,1,12,18.77,23.74,23.74,0,0,0,8.5,27.2a1,1,0,0,1-1,.8H5v8H7.5a1,1,0,0,1,1,.8A23.74,23.74,0,0,0,12,45.23a1,1,0,0,1-.13,1.26L10.1,48.26l5.66,5.66,1.77-1.77A1,1,0,0,1,18.77,52a23.74,23.74,0,0,0,8.43,3.5,1,1,0,0,1,.8,1Z" fill="#707070"/>
      <path id="Trazado_2310" data-name="Trazado 2310" d="M33.8,17.3l1.09-1.62a1,1,0,0,0-1.65-1.11l-2.07,3.05a1.17,1.17,0,0,1-.05.11.931.931,0,0,0-.05.1,1,1,0,0,0-.07.35,1.14,1.14,0,0,0,.07.32,1,1,0,0,0,0,.1.931.931,0,0,0,.05.1l2.06,3.19a1,1,0,1,0,1.68-1.08l-1-1.49A12.78,12.78,0,0,1,35,44.47a1.006,1.006,0,1,0,.22,2,.9.9,0,0,0,.23,0A14.78,14.78,0,0,0,33.8,17.3Z" fill="#707070"/>
      <path id="Trazado_2311" data-name="Trazado 2311" d="M33,45.77a.78.78,0,0,0-.07-.33l-1.55-3.59a1,1,0,0,0-1.84.79l.91,2.09a12.78,12.78,0,0,1-1.5-25.17,1,1,0,0,0-.46-1.95,14.78,14.78,0,0,0,1.72,29.1L29,48.43a1,1,0,0,0,1.66,1.12l2.15-3.18a.172.172,0,0,1,.07-.13v-.06a1,1,0,0,0,.06-.34h0a.435.435,0,0,0,.06-.07Z" fill="#707070"/>
      <path id="Trazado_2312" data-name="Trazado 2312" d="M29,39.34a.9.9,0,0,1-.42-.1,8,8,0,0,1,0-14.48,1,1,0,1,1,.85,1.81,6,6,0,0,0,0,10.86A1,1,0,0,1,29,39.34Z" fill="#707070"/>
      <path id="Trazado_2313" data-name="Trazado 2313" d="M35,39.33a1,1,0,0,1-.42-1.9,6,6,0,0,0,0-10.86,1,1,0,1,1,.85-1.81,8,8,0,0,1,0,14.48,1.07,1.07,0,0,1-.43.09Z" fill="#707070"/>
    </g>
  </g>
</svg>
