<svg xmlns="http://www.w3.org/2000/svg" width="274.853" height="30.221" viewBox="0 0 274.853 30.221">
  <g id="Grupo_2842" data-name="Grupo 2842" transform="translate(-111.563 -357.723)">
    <path id="Trazado_2541" data-name="Trazado 2541" d="M-216.66,0h-3.555V-10.275h3.555q2.37,0,3.24,1.2a6.476,6.476,0,0,1,.87,3.765,12.073,12.073,0,0,1-.173,2.212,5.047,5.047,0,0,1-.607,1.643Q-214.185,0-216.66,0Zm2.385-5.31A5.759,5.759,0,0,0-214.74-8a2.012,2.012,0,0,0-1.92-.825h-1.89v7.35h1.89a1.952,1.952,0,0,0,1.98-1.1,4.413,4.413,0,0,0,.322-1.185A12.322,12.322,0,0,0-214.275-5.31Zm3.893-1.38a3.092,3.092,0,0,1,2.573-.975,3.092,3.092,0,0,1,2.572.975,4.654,4.654,0,0,1,.773,2.925,4.827,4.827,0,0,1-.75,2.94,3.059,3.059,0,0,1-2.6.99,3.059,3.059,0,0,1-2.6-.99,4.827,4.827,0,0,1-.75-2.94A4.654,4.654,0,0,1-210.383-6.69Zm1.223,4.875a1.422,1.422,0,0,0,1.35.6,1.422,1.422,0,0,0,1.35-.6,4.151,4.151,0,0,0,.345-1.965,3.751,3.751,0,0,0-.367-1.935,1.458,1.458,0,0,0-1.327-.57,1.458,1.458,0,0,0-1.327.57,3.751,3.751,0,0,0-.368,1.935A4.151,4.151,0,0,0-209.16-1.815ZM-201.21,0h-1.635V-7.5h1.62v.465a3.9,3.9,0,0,1,1.95-.63,2.318,2.318,0,0,1,1.9.735,5.688,5.688,0,0,1,2.715-.735,2.118,2.118,0,0,1,1.905.832A5.293,5.293,0,0,1-192.2-4.02V0h-1.62V-3.975a4.287,4.287,0,0,0-.247-1.725,1.026,1.026,0,0,0-1.028-.51,4.07,4.07,0,0,0-1.455.3l-.255.105a8.126,8.126,0,0,1,.12,1.92V0h-1.62V-3.855a4.847,4.847,0,0,0-.24-1.845,1.039,1.039,0,0,0-1.05-.51,3.267,3.267,0,0,0-1.395.3l-.225.09Zm10.935,0V-7.5h1.635V0Zm0-8.775V-10.5h1.635v1.725ZM-185.025,0h-1.635V-7.5h1.62v.465a4.175,4.175,0,0,1,2.07-.63,2.254,2.254,0,0,1,2.048.848,5.364,5.364,0,0,1,.548,2.8V0H-182V-3.975a4.065,4.065,0,0,0-.262-1.725,1.089,1.089,0,0,0-1.072-.51,3.717,3.717,0,0,0-1.47.3l-.225.09Zm6.555,0V-7.5h1.635V0Zm0-8.775V-10.5h1.635v1.725Zm4.027,2.085a3.092,3.092,0,0,1,2.573-.975,3.092,3.092,0,0,1,2.572.975,4.654,4.654,0,0,1,.773,2.925,4.827,4.827,0,0,1-.75,2.94,3.059,3.059,0,0,1-2.6.99,3.059,3.059,0,0,1-2.6-.99,4.827,4.827,0,0,1-.75-2.94A4.654,4.654,0,0,1-174.443-6.69Zm1.223,4.875a1.422,1.422,0,0,0,1.35.6,1.422,1.422,0,0,0,1.35-.6,4.151,4.151,0,0,0,.345-1.965,3.751,3.751,0,0,0-.367-1.935,1.458,1.458,0,0,0-1.327-.57,1.458,1.458,0,0,0-1.327.57,3.751,3.751,0,0,0-.368,1.935A4.151,4.151,0,0,0-173.22-1.815ZM-163.68,0V-2.16h1.755V0Zm6.465-7.665a10.013,10.013,0,0,1,1.875.21l.375.075-.06,1.29q-1.185-.12-1.755-.12a1.847,1.847,0,0,0-1.53.51,3.351,3.351,0,0,0-.39,1.92,3.63,3.63,0,0,0,.375,1.95,1.8,1.8,0,0,0,1.56.54l1.755-.12.045,1.305a14.253,14.253,0,0,1-2.28.27,2.834,2.834,0,0,1-2.408-.923,5.088,5.088,0,0,1-.7-3.022,4.747,4.747,0,0,1,.735-2.993A2.939,2.939,0,0,1-157.215-7.665Zm4.163.975a3.092,3.092,0,0,1,2.573-.975,3.092,3.092,0,0,1,2.572.975,4.654,4.654,0,0,1,.773,2.925,4.827,4.827,0,0,1-.75,2.94,3.059,3.059,0,0,1-2.6.99,3.059,3.059,0,0,1-2.6-.99,4.827,4.827,0,0,1-.75-2.94A4.654,4.654,0,0,1-153.053-6.69Zm1.223,4.875a1.422,1.422,0,0,0,1.35.6,1.422,1.422,0,0,0,1.35-.6,4.151,4.151,0,0,0,.345-1.965,3.751,3.751,0,0,0-.367-1.935,1.458,1.458,0,0,0-1.327-.57,1.458,1.458,0,0,0-1.327.57,3.751,3.751,0,0,0-.368,1.935A4.151,4.151,0,0,0-151.83-1.815ZM-143.88,0h-1.635V-7.5h1.62v.465a3.9,3.9,0,0,1,1.95-.63,2.318,2.318,0,0,1,1.9.735,5.688,5.688,0,0,1,2.715-.735,2.118,2.118,0,0,1,1.905.832,5.293,5.293,0,0,1,.555,2.813V0h-1.62V-3.975a4.287,4.287,0,0,0-.247-1.725,1.026,1.026,0,0,0-1.028-.51,4.07,4.07,0,0,0-1.455.3l-.255.105a8.126,8.126,0,0,1,.12,1.92V0h-1.62V-3.855a4.847,4.847,0,0,0-.24-1.845,1.039,1.039,0,0,0-1.05-.51,3.267,3.267,0,0,0-1.395.3l-.225.09Zm13.545-7.5h1.6l1.59,6.105h.4l1.59-6.105h1.62l-2.85,10.725h-1.605l.9-3.225h-1.29Zm11.37-2.085a9.351,9.351,0,0,1,3.06-.48,3.737,3.737,0,0,1,2.423.637,2.493,2.493,0,0,1,.757,2.018,2.446,2.446,0,0,1-.233,1.08,2.3,2.3,0,0,1-.472.7,5.168,5.168,0,0,1-.6.457,3.183,3.183,0,0,1,1.147.818,2.309,2.309,0,0,1,.353,1.432,3.1,3.1,0,0,1-.788,2.333,3.528,3.528,0,0,1-2.512.758,10.862,10.862,0,0,1-1.485-.113,12.843,12.843,0,0,1-1.29-.233l-.465-.12.1-1.29a16.506,16.506,0,0,0,2.91.3q1.8-.015,1.8-1.59a1.324,1.324,0,0,0-.465-1.1,1.965,1.965,0,0,0-1.23-.39h-1.995V-5.76h1.995a1.454,1.454,0,0,0,1.028-.457,1.488,1.488,0,0,0,.472-1.11,1.14,1.14,0,0,0-.412-.967A1.825,1.825,0,0,0-116-8.61a14.867,14.867,0,0,0-2.445.21l-.39.075Zm14.505,1.92a10.013,10.013,0,0,1,1.875.21l.375.075-.06,1.29q-1.185-.12-1.755-.12a1.847,1.847,0,0,0-1.53.51,3.351,3.351,0,0,0-.39,1.92,3.63,3.63,0,0,0,.375,1.95,1.8,1.8,0,0,0,1.56.54l1.755-.12.045,1.305a14.253,14.253,0,0,1-2.28.27A2.834,2.834,0,0,1-106.9-.758a5.088,5.088,0,0,1-.7-3.022,4.747,4.747,0,0,1,.735-2.993A2.939,2.939,0,0,1-104.46-7.665Zm4.162.975a3.092,3.092,0,0,1,2.573-.975,3.092,3.092,0,0,1,2.573.975,4.654,4.654,0,0,1,.772,2.925,4.827,4.827,0,0,1-.75,2.94,3.059,3.059,0,0,1-2.6.99,3.059,3.059,0,0,1-2.6-.99,4.827,4.827,0,0,1-.75-2.94A4.654,4.654,0,0,1-100.3-6.69Zm1.223,4.875a1.422,1.422,0,0,0,1.35.6,1.422,1.422,0,0,0,1.35-.6A4.151,4.151,0,0,0-96.03-3.78,3.751,3.751,0,0,0-96.4-5.715a1.458,1.458,0,0,0-1.327-.57,1.458,1.458,0,0,0-1.327.57A3.751,3.751,0,0,0-99.42-3.78,4.151,4.151,0,0,0-99.075-1.815ZM-92.76,0V-7.5h1.62v.9a7.129,7.129,0,0,1,2.55-1.065V-6.03a10.525,10.525,0,0,0-2.205.66l-.33.135V0Zm5.415,0V-7.5h1.62v.9a7.129,7.129,0,0,1,2.55-1.065V-6.03a10.525,10.525,0,0,0-2.205.66l-.33.135V0ZM-76.65-1.35l.42-.045L-76.2-.18a15.531,15.531,0,0,1-3.03.345A2.878,2.878,0,0,1-81.623-.75a4.707,4.707,0,0,1-.728-2.925q0-3.99,3.255-3.99,3.15,0,3.15,3.435l-.105,1.17H-80.7A2.057,2.057,0,0,0-80.3-1.7a1.915,1.915,0,0,0,1.455.435Q-77.775-1.26-76.65-1.35Zm-.9-2.97A2.56,2.56,0,0,0-77.9-5.873,1.439,1.439,0,0,0-79.1-6.315a1.494,1.494,0,0,0-1.223.465,2.474,2.474,0,0,0-.4,1.53Zm3.592-2.37a3.092,3.092,0,0,1,2.573-.975,3.092,3.092,0,0,1,2.573.975,4.654,4.654,0,0,1,.772,2.925,4.827,4.827,0,0,1-.75,2.94,3.059,3.059,0,0,1-2.6.99,3.059,3.059,0,0,1-2.6-.99,4.827,4.827,0,0,1-.75-2.94A4.654,4.654,0,0,1-73.958-6.69Zm1.223,4.875a1.422,1.422,0,0,0,1.35.6,1.422,1.422,0,0,0,1.35-.6A4.151,4.151,0,0,0-69.69-3.78a3.751,3.751,0,0,0-.368-1.935,1.458,1.458,0,0,0-1.327-.57,1.458,1.458,0,0,0-1.327.57A3.751,3.751,0,0,0-73.08-3.78,4.151,4.151,0,0,0-72.735-1.815Zm11.52-4.14A21.591,21.591,0,0,0-63.78-6.2a2.287,2.287,0,0,0-1.1.187.643.643,0,0,0-.307.593.583.583,0,0,0,.338.57,7.605,7.605,0,0,0,1.59.383,3.661,3.661,0,0,1,1.778.683,2.132,2.132,0,0,1,.525,1.65,2.013,2.013,0,0,1-.757,1.74A3.714,3.714,0,0,1-63.93.165,13.316,13.316,0,0,1-66.24-.09l-.465-.075.06-1.365a22.318,22.318,0,0,0,2.6.24,2.4,2.4,0,0,0,1.132-.2.686.686,0,0,0,.338-.645.643.643,0,0,0-.323-.622,6.4,6.4,0,0,0-1.545-.375,4.109,4.109,0,0,1-1.793-.638,1.893,1.893,0,0,1-.57-1.59,1.989,1.989,0,0,1,.787-1.725,3.356,3.356,0,0,1,2.018-.57,14.284,14.284,0,0,1,2.355.24l.465.09ZM-56.085,0V-7.5h1.635V0Zm0-8.775V-10.5h1.635v1.725ZM-50.835,0H-52.47V-7.5h1.62v.465a4.175,4.175,0,0,1,2.07-.63,2.254,2.254,0,0,1,2.048.848,5.364,5.364,0,0,1,.548,2.8V0h-1.62V-3.975A4.065,4.065,0,0,0-48.068-5.7a1.089,1.089,0,0,0-1.073-.51,3.717,3.717,0,0,0-1.47.3l-.225.09Zm9.36-7.665a10.013,10.013,0,0,1,1.875.21l.375.075-.06,1.29q-1.185-.12-1.755-.12a1.847,1.847,0,0,0-1.53.51,3.351,3.351,0,0,0-.39,1.92,3.63,3.63,0,0,0,.375,1.95,1.8,1.8,0,0,0,1.56.54l1.755-.12.045,1.305a14.253,14.253,0,0,1-2.28.27,2.834,2.834,0,0,1-2.408-.923,5.088,5.088,0,0,1-.7-3.022,4.747,4.747,0,0,1,.735-2.993A2.939,2.939,0,0,1-41.475-7.665ZM-37.56,0V-10.62h1.635V0Zm8.25-7.5h1.62V0h-1.62V-.465a4.113,4.113,0,0,1-2.025.63,2.265,2.265,0,0,1-2.07-.833,5.829,5.829,0,0,1-.525-2.918V-7.5H-32.3v3.93a4.809,4.809,0,0,0,.225,1.815q.225.465,1.05.465a3.615,3.615,0,0,0,1.485-.3l.225-.09Zm3.6,7.5V-7.5h1.635V0Zm0-8.775V-10.5h1.635v1.725Zm9.735-1.845V0H-17.6V-.39a4.5,4.5,0,0,1-2.01.555A2.547,2.547,0,0,1-21.758-.72a4.957,4.957,0,0,1-.682-2.97,4.849,4.849,0,0,1,.757-3.03,2.847,2.847,0,0,1,2.362-.945,11.691,11.691,0,0,1,1.71.2v-3.15Zm-1.89,9.06.255-.105v-4.44a10.176,10.176,0,0,0-1.665-.15q-1.515,0-1.515,2.52a3.7,3.7,0,0,0,.352,1.913,1.243,1.243,0,0,0,1.118.533A3.957,3.957,0,0,0-17.865-1.56Zm4.283-5.13a3.092,3.092,0,0,1,2.573-.975,3.092,3.092,0,0,1,2.573.975,4.654,4.654,0,0,1,.773,2.925,4.827,4.827,0,0,1-.75,2.94,3.059,3.059,0,0,1-2.595.99,3.059,3.059,0,0,1-2.6-.99,4.827,4.827,0,0,1-.75-2.94A4.654,4.654,0,0,1-13.583-6.69Zm1.222,4.875a1.422,1.422,0,0,0,1.35.6,1.422,1.422,0,0,0,1.35-.6A4.151,4.151,0,0,0-9.315-3.78a3.751,3.751,0,0,0-.368-1.935,1.458,1.458,0,0,0-1.327-.57,1.458,1.458,0,0,0-1.328.57A3.751,3.751,0,0,0-12.7-3.78,4.151,4.151,0,0,0-12.36-1.815ZM-.84-5.955A21.591,21.591,0,0,0-3.405-6.2a2.287,2.287,0,0,0-1.1.187.643.643,0,0,0-.307.593.583.583,0,0,0,.337.57,7.605,7.605,0,0,0,1.59.383A3.661,3.661,0,0,1-1.11-3.78,2.132,2.132,0,0,1-.585-2.13,2.013,2.013,0,0,1-1.343-.39,3.714,3.714,0,0,1-3.555.165,13.316,13.316,0,0,1-5.865-.09L-6.33-.165l.06-1.365a22.318,22.318,0,0,0,2.6.24,2.4,2.4,0,0,0,1.133-.2.686.686,0,0,0,.338-.645.643.643,0,0,0-.323-.622,6.4,6.4,0,0,0-1.545-.375,4.109,4.109,0,0,1-1.793-.638,1.893,1.893,0,0,1-.57-1.59A1.989,1.989,0,0,1-5.648-7.08,3.356,3.356,0,0,1-3.63-7.65a14.284,14.284,0,0,1,2.355.24l.465.09Z" transform="translate(387 380)" fill="#fff"/>
    <g id="email" transform="translate(123 311.719)">
      <g id="Grupo_2828" data-name="Grupo 2828" transform="translate(23.736 54.659)">
        <g id="Grupo_2827" data-name="Grupo 2827" transform="translate(0 0)">
          <path id="Trazado_2528" data-name="Trazado 2528" d="M372.948,166.5a.72.72,0,1,0-1.022,1.014l0,0a.712.712,0,0,0,.508.212.721.721,0,0,0,.51-1.23Z" transform="translate(-371.717 -166.288)" fill="#fff"/>
        </g>
      </g>
      <g id="Grupo_2830" data-name="Grupo 2830" transform="translate(3.61 46.004)">
        <g id="Grupo_2829" data-name="Grupo 2829" transform="translate(0)">
          <path id="Sustracción_4" data-name="Sustracción 4" d="M18.032,30.221a.722.722,0,0,1-.508-.211L9.956,22.442V20.41l7.356,7.354V18.6H14.963a3.347,3.347,0,0,1-3.343-3.343V12.91H2.455l3.312,3.31H3.734L.213,12.7a.716.716,0,0,1,0-1.018L11.683.21A.712.712,0,0,1,12.191,0,.723.723,0,0,1,12.7.21l6.5,6.5a.718.718,0,0,1,0,1.016.727.727,0,0,1-.511.214.712.712,0,0,1-.507-.214L13.061,2.607v12.65a1.9,1.9,0,0,0,1.9,1.9h12.65l-5.3-5.3a.72.72,0,1,1,1.017-1.02l6.684,6.684a.732.732,0,0,1,.211.508.711.711,0,0,1-.211.508L18.539,30.009A.724.724,0,0,1,18.032,30.221Zm.72-11.621h0v9.164L27.915,18.6H18.751ZM11.62,2.307h0L2.455,11.469H11.62Z" fill="#fff"/>
        </g>
      </g>
      <g id="Grupo_2832" data-name="Grupo 2832" transform="translate(-6.159 57.286)">
        <g id="Grupo_2831" data-name="Grupo 2831" transform="translate(0 0)">
          <path id="Trazado_2530" data-name="Trazado 2530" d="M4.938,254H.72a.72.72,0,0,0,0,1.439H4.938a.72.72,0,0,0,0-1.439Z" transform="translate(0 -253.999)" fill="#fff"/>
        </g>
      </g>
      <g id="Grupo_2834" data-name="Grupo 2834" transform="translate(0.194 57.286)">
        <g id="Grupo_2833" data-name="Grupo 2833" transform="translate(0 0)">
          <path id="Trazado_2531" data-name="Trazado 2531" d="M89.026,254h-.011a.72.72,0,0,0,0,1.439h.011a.72.72,0,0,0,0-1.439Z" transform="translate(-88.296 -253.999)" fill="#fff"/>
        </g>
      </g>
      <g id="Grupo_2836" data-name="Grupo 2836" transform="translate(-3.009 53.415)">
        <g id="Grupo_2835" data-name="Grupo 2835" transform="translate(0 0)">
          <path id="Trazado_2532" data-name="Trazado 2532" d="M3.035,149H.733a.72.72,0,0,0,0,1.439h2.3a.72.72,0,0,0,0-1.439Z" transform="translate(-0.013 -149.002)" fill="#fff"/>
        </g>
      </g>
      <g id="Grupo_2838" data-name="Grupo 2838" transform="translate(1.644 53.415)">
        <g id="Grupo_2837" data-name="Grupo 2837" transform="translate(0 0)">
          <path id="Trazado_2533" data-name="Trazado 2533" d="M68.123,149H65.4a.72.72,0,0,0,0,1.439h2.722a.72.72,0,0,0,0-1.439Z" transform="translate(-64.682 -149.002)" fill="#fff"/>
        </g>
      </g>
      <g id="domain" transform="translate(-11.438 61.114)">
        <path id="Trazado_2540" data-name="Trazado 2540" d="M24669.449,18734.217h-20.5a2.587,2.587,0,0,1-2.58-2.576v-6.922a2.591,2.591,0,0,1,2.58-2.576h20.5a2.587,2.587,0,0,1,2.582,2.576v6.922a2.584,2.584,0,0,1-2.582,2.576Zm-20.5-10.568a1.069,1.069,0,0,0-1.068,1.07v6.922a1.069,1.069,0,0,0,1.068,1.072h20.5a1.072,1.072,0,0,0,1.07-1.072v-6.922a1.072,1.072,0,0,0-1.07-1.07Z" transform="translate(-24646.365 -18722.143)" fill="#fff"/>
        <path id="Trazado_2537" data-name="Trazado 2537" d="M9.707,15.01h1.567a.755.755,0,1,0,0-1.51H9.707A2.21,2.21,0,0,0,7.5,15.707v1.624a2.21,2.21,0,0,0,2.207,2.207h1.567a.755.755,0,1,0,0-1.51H9.707a.7.7,0,0,1-.7-.7V15.707A.7.7,0,0,1,9.707,15.01Z" transform="translate(-1.46 -10.48)" fill="#fff"/>
        <path id="Trazado_2538" data-name="Trazado 2538" d="M13.764,13.5A2.275,2.275,0,0,0,11.5,15.764v1.51a2.264,2.264,0,0,0,4.529,0v-1.51A2.275,2.275,0,0,0,13.764,13.5Zm.755,3.774a.755.755,0,1,1-1.51,0v-1.51a.755.755,0,1,1,1.51,0Z" transform="translate(0.579 -10.48)" fill="#fff"/>
        <path id="Trazado_2539" data-name="Trazado 2539" d="M19.562,13.558a.755.755,0,0,0-.823.163l-.975.977-.975-.977a.755.755,0,0,0-1.289.534v4.529a.755.755,0,1,0,1.51,0V16.077l.22.222a.755.755,0,0,0,1.069,0l.22-.222v2.707a.755.755,0,0,0,1.51,0V14.255a.755.755,0,0,0-.466-.7Z" transform="translate(2.617 -10.481)" fill="#fff"/>
        <circle id="Elipse_158" data-name="Elipse 158" cx="0.755" cy="0.755" r="0.755" transform="translate(3.021 7.549)" fill="#fff"/>
      </g>
    </g>
  </g>
</svg>
