<svg xmlns="http://www.w3.org/2000/svg" width="157" height="39" viewBox="0 0 157 39">
  <g id="ScotiaPYME" transform="translate(-0.254)">
    <rect id="Rectángulo_2084" data-name="Rectángulo 2084" width="157" height="39" transform="translate(0.254)" fill="#be061b"/>
    <path id="Trazado_2542" data-name="Trazado 2542" d="M128.551,12.879V28.465H125.2v-8.42l-.118-.034q-.9,1.4-1.795,2.793c-.516.8-1.012,1.623-1.558,2.406a.927.927,0,0,1-.637.347c-1.454.054-1.453.038-2.239-1.195-.926-1.456-1.858-2.909-2.893-4.338v8.423h-3.354V12.835c.814,0,1.568-.019,2.318.017.148.007.325.2.421.352q2.447,3.8,4.877,7.607c.1.162.214.32.361.538.923-1.407,1.811-2.757,2.7-4.11.87-1.328,1.745-2.652,2.6-3.988a.72.72,0,0,1,.706-.378C127.236,12.9,127.883,12.879,128.551,12.879Z" transform="translate(0.182 0.021)" fill="#fff" fill-rule="evenodd"/>
    <path id="Trazado_2543" data-name="Trazado 2543" d="M26,11.9l-1.6,3.164a10.63,10.63,0,0,0-1.551-.588,7.987,7.987,0,0,0-1.919-.181,1.58,1.58,0,0,0-1.465,1.166,1.414,1.414,0,0,0,.828,1.655,12.668,12.668,0,0,0,1.434.619,23.793,23.793,0,0,1,2.582,1.085,5.006,5.006,0,0,1,1.147,7.743,6.994,6.994,0,0,1-5.228,2.089,8.28,8.28,0,0,1-4.992-1.5c-.19-.131-.359-.292-.546-.447L16.511,23.4c.531.277,1,.538,1.484.771a4.826,4.826,0,0,0,3.3.508,1.6,1.6,0,0,0,1.3-1.35,1.361,1.361,0,0,0-.878-1.522c-.845-.4-1.736-.7-2.607-1.037a5.973,5.973,0,0,1-3.232-2.484,5.236,5.236,0,0,1,2.536-7.194A8.21,8.21,0,0,1,26,11.9Z" transform="translate(0.024 0.017)" fill="#fff" fill-rule="evenodd"/>
    <path id="Trazado_2544" data-name="Trazado 2544" d="M76.243,17.6V16.413h3.642v11.9H76.26V27.2a1.635,1.635,0,0,0-.282.153,5.1,5.1,0,0,1-6.776.056,6.427,6.427,0,0,1,.946-10.686A5.024,5.024,0,0,1,76.243,17.6Zm-.107,4.768a2.791,2.791,0,0,0-2.777-2.795,2.8,2.8,0,1,0,2.777,2.795Z" transform="translate(0.108 0.026)" fill="#fff" fill-rule="evenodd"/>
    <path id="Trazado_2545" data-name="Trazado 2545" d="M85.254,12.715c2.617.169,5.154-.273,7.642.361a5.535,5.535,0,0,1,2.742,9.106,5.871,5.871,0,0,1-3.807,1.734c-.982.11-1.976.116-3.041.173v4.24H85.254ZM88.722,15.8v5.389c1.12-.144,2.2-.2,3.238-.439A2,2,0,0,0,93.6,18.628a2.239,2.239,0,0,0-1.362-2.4A7.77,7.77,0,0,0,88.722,15.8Z" transform="translate(0.138 0.021)" fill="#fff" fill-rule="evenodd"/>
    <path id="Trazado_2546" data-name="Trazado 2546" d="M134.706,15.913v3.114c.777,0,1.526,0,2.277,0,.974.005,1.948,0,2.921.036.145,0,.4.167.408.264.031.9.018,1.8.018,2.744h-5.6v3.385h6.491v3.055h-9.972v-15.6h9.875v3Z" transform="translate(0.212 0.021)" fill="#fff" fill-rule="evenodd"/>
    <path id="Trazado_2547" data-name="Trazado 2547" d="M39.237,22.36a6.294,6.294,0,1,1,6.285,6.313A6.285,6.285,0,0,1,39.237,22.36Zm6.23,2.751a2.739,2.739,0,0,0,2.822-2.731,2.757,2.757,0,0,0-5.514-.021A2.739,2.739,0,0,0,45.467,25.111Z" transform="translate(0.063 0.026)" fill="#fff" fill-rule="evenodd"/>
    <path id="Trazado_2548" data-name="Trazado 2548" d="M104.017,18.956c.679-1.229,1.313-2.374,1.945-3.52.417-.757.824-1.52,1.25-2.272.072-.128.213-.308.327-.31,1.161-.023,2.324-.014,3.588-.014-.811,1.358-1.564,2.622-2.32,3.884-.934,1.561-1.882,3.113-2.8,4.685a2.086,2.086,0,0,0-.265.959c-.048,1.857-.059,3.714-.085,5.571,0,.142-.015.284-.028.5-1.072,0-2.129.012-3.185-.023-.082,0-.218-.325-.22-.5-.016-1.84,0-3.68-.023-5.519a2.153,2.153,0,0,0-.275-1.009c-1.583-2.707-3.19-5.4-4.789-8.095-.089-.151-.167-.309-.254-.47,1.212,0,2.391-.013,3.569.017.134,0,.3.225.388.381.966,1.73,1.918,3.468,2.875,5.2C103.794,18.57,103.875,18.709,104.017,18.956Z" transform="translate(0.157 0.021)" fill="#fff" fill-rule="evenodd"/>
    <path id="Trazado_2549" data-name="Trazado 2549" d="M39.067,18.1l-2.46,2.455a2.777,2.777,0,0,0-4.179-.024,2.706,2.706,0,0,0,.027,3.731c1.091,1.165,2.606,1.124,4.15-.089l2.445,2.442c-1.88,2.373-6.032,2.884-8.882.545a6.345,6.345,0,0,1-.479-9.125A6.523,6.523,0,0,1,39.067,18.1Z" transform="translate(0.045 0.026)" fill="#fff" fill-rule="evenodd"/>
    <path id="Trazado_2550" data-name="Trazado 2550" d="M54.3,28.33v-8.5h-1.7V16.394h1.689c0-1.071.028-2.076-.012-3.079-.021-.522.139-.684.662-.663,1.022.04,2.047.012,3.127.012v3.72h1.694v3.394H58.112V28.33Z" transform="translate(0.085 0.02)" fill="#fff" fill-rule="evenodd"/>
    <path id="Trazado_2551" data-name="Trazado 2551" d="M61.529,16.418h3.7v11.9h-3.7Z" transform="translate(0.1 0.027)" fill="#fff" fill-rule="evenodd"/>
    <path id="Trazado_2552" data-name="Trazado 2552" d="M63.35,14.819a2.117,2.117,0,1,1,2.125-2.134A2.1,2.1,0,0,1,63.35,14.819Z" transform="translate(0.099 0.017)" fill="#fff" fill-rule="evenodd"/>
    <path id="Trazado_2553" data-name="Trazado 2553" d="M76.129,22.368a2.8,2.8,0,1,1-2.777-2.795A2.81,2.81,0,0,1,76.129,22.368Z" transform="translate(0.114 0.032)" fill="#be061b" fill-rule="evenodd"/>
    <path id="Trazado_2554" data-name="Trazado 2554" d="M88.717,15.8a7.767,7.767,0,0,1,3.512.419,2.239,2.239,0,0,1,1.362,2.405,2,2,0,0,1-1.635,2.126c-1.039.237-2.119.295-3.238.439Z" transform="translate(0.143 0.026)" fill="#be061b" fill-rule="evenodd"/>
    <path id="Trazado_2555" data-name="Trazado 2555" d="M45.461,25.105a2.75,2.75,0,1,1,.127-5.5,2.769,2.769,0,0,1,2.694,2.767A2.739,2.739,0,0,1,45.461,25.105Z" transform="translate(0.069 0.032)" fill="#be061b" fill-rule="evenodd"/>
  </g>
</svg>
