<svg xmlns="http://www.w3.org/2000/svg" width="110" height="110" viewBox="0 0 110 110">
  <g id="Grupo_2634" data-name="Grupo 2634" transform="translate(-886.5 -455)">
    <path id="Polígono_10" data-name="Polígono 10" d="M63.711,0l7.1,6.353,9.475-.97,4.784,8.235,9.31,2.006,2.006,9.31,8.235,4.784-.97,9.475,6.353,7.1L106.15,55,110,63.711l-6.353,7.1.97,9.475-8.235,4.784-2.006,9.31-9.31,2.006-4.784,8.235-9.475-.97L63.711,110,55,106.15,46.289,110l-7.1-6.353-9.475.97-4.784-8.235-9.31-2.006-2.006-9.31L5.384,80.281l.97-9.475L0,63.711,3.85,55,0,46.289l6.353-7.1-.97-9.475,8.235-4.784,2.006-9.31,9.31-2.006,4.785-8.235,9.475.97L46.289,0,55,3.85Z" transform="translate(886.5 455)" fill="#ff7212"/>
    <path id="Trazado_2173" data-name="Trazado 2173" d="M-39.78-3.255v-1.02h2.835V-7.2h1.05v2.925h2.865v1.02H-35.9V-.3h-1.05V-3.255Zm11.955-6.39a10.539,10.539,0,0,1,3.023-.42,3.57,3.57,0,0,1,2.332.615,2.45,2.45,0,0,1,.72,1.965,2,2,0,0,1-.187,1q-.188.308-.3.473a1.553,1.553,0,0,1-.292.315,4.183,4.183,0,0,1-.525.36l-.165.105a3.025,3.025,0,0,1,1.29.8,2.436,2.436,0,0,1,.42,1.6,2.971,2.971,0,0,1-.773,2.25A3.441,3.441,0,0,1-24.72.15a13.97,13.97,0,0,1-2.79-.3l-.465-.105.1-.945a15.227,15.227,0,0,0,3.03.33Q-22.7-.885-22.7-2.79q0-1.785-2.04-1.86h-2v-.99h2a1.85,1.85,0,0,0,1.215-.5,1.664,1.664,0,0,0,.585-1.327A1.429,1.429,0,0,0-23.4-8.662a2.554,2.554,0,0,0-1.56-.368,12.521,12.521,0,0,0-2.37.225l-.39.075Zm11.895-.735h3.765a3.579,3.579,0,0,1,2.318.637,2.449,2.449,0,0,1,.773,2,2.9,2.9,0,0,1-.337,1.523,2.294,2.294,0,0,1-1,.862A2.335,2.335,0,0,1-8.76-2.91,2.731,2.731,0,0,1-9.585-.675,3.684,3.684,0,0,1-11.97,0h-3.96Zm3.84,5.61h-2.685v3.75h2.76a2.434,2.434,0,0,0,1.553-.427A1.836,1.836,0,0,0-9.93-2.955a1.947,1.947,0,0,0-.217-.96,1.26,1.26,0,0,0-.578-.555A3.264,3.264,0,0,0-12.09-4.77Zm-.12-4.59h-2.565v3.585h2.67a1.878,1.878,0,0,0,1.4-.457,1.915,1.915,0,0,0,.442-1.38,1.687,1.687,0,0,0-.472-1.335A2.209,2.209,0,0,0-12.21-9.36ZM-2.205-7.5H-1.08V0H-2.205V-.525A4.3,4.3,0,0,1-4.425.15a2.232,2.232,0,0,1-2.032-.8,5.984,5.984,0,0,1-.5-2.94V-7.5h1.125v3.9A5.521,5.521,0,0,0-5.55-1.41q.285.555,1.29.555A3.723,3.723,0,0,0-3.255-1a4.591,4.591,0,0,0,.78-.277l.27-.135ZM.63-6.495V-7.5H6.195v1.005L1.995-1h4.2V0H.63V-1l4.2-5.49Zm6.9,2.73a4.76,4.76,0,0,1,.735-2.97,3.009,3.009,0,0,1,2.483-.915,2.986,2.986,0,0,1,2.475.915,4.8,4.8,0,0,1,.727,2.97A5.072,5.072,0,0,1,13.26-.78a2.956,2.956,0,0,1-2.52.93A2.956,2.956,0,0,1,8.22-.78,5.072,5.072,0,0,1,7.53-3.765ZM8.685-3.78a4.757,4.757,0,0,0,.4,2.295,1.8,1.8,0,0,0,1.665.66A1.786,1.786,0,0,0,12.4-1.477a4.831,4.831,0,0,0,.39-2.3,4.225,4.225,0,0,0-.435-2.272,1.839,1.839,0,0,0-1.613-.622,1.86,1.86,0,0,0-1.62.622A4.165,4.165,0,0,0,8.685-3.78ZM16.9,0H15.78V-7.5h1.11v.525a4.8,4.8,0,0,1,2.325-.675,2.218,2.218,0,0,1,2.017.81,5.721,5.721,0,0,1,.517,2.88V0H20.64V-3.93a5.067,5.067,0,0,0-.308-2.138,1.35,1.35,0,0,0-1.312-.577,3.919,3.919,0,0,0-1.012.142,5.056,5.056,0,0,0-.818.278L16.9-6.09Zm12.03-.93.435-.045.03.885a21.532,21.532,0,0,1-2.925.24,2.637,2.637,0,0,1-2.3-.937A5.035,5.035,0,0,1,23.5-3.7q0-3.945,3.135-3.945A2.868,2.868,0,0,1,28.9-6.8a3.947,3.947,0,0,1,.75,2.663l-.06.855h-4.95a3.075,3.075,0,0,0,.45,1.845,1.839,1.839,0,0,0,1.568.6Q27.78-.84,28.935-.93ZM28.53-4.185a3.256,3.256,0,0,0-.442-1.95,1.711,1.711,0,0,0-1.44-.57,1.845,1.845,0,0,0-1.5.6,3.029,3.029,0,0,0-.517,1.92Zm5.235-2.46q-1.635,0-1.635,1.14a.788.788,0,0,0,.375.743,6.363,6.363,0,0,0,1.71.45,4.554,4.554,0,0,1,1.89.652,1.874,1.874,0,0,1,.555,1.575,1.955,1.955,0,0,1-.743,1.7A3.658,3.658,0,0,1,33.75.15a13.568,13.568,0,0,1-2.19-.21l-.45-.075.06-.975a19.118,19.118,0,0,0,2.58.255,2.587,2.587,0,0,0,1.328-.277,1,1,0,0,0,.458-.93.944.944,0,0,0-.39-.885,5.766,5.766,0,0,0-1.71-.442A4.52,4.52,0,0,1,31.56-4,1.748,1.748,0,0,1,31-5.505a1.823,1.823,0,0,1,.773-1.62A3.352,3.352,0,0,1,33.7-7.65,15.772,15.772,0,0,1,36-7.44l.42.075-.03.96A19.521,19.521,0,0,0,33.765-6.645ZM-32.8,9.23V20h-1.11v-.51a4.572,4.572,0,0,1-2.28.66,3.324,3.324,0,0,1-1.05-.15,2.154,2.154,0,0,1-.84-.54,4.23,4.23,0,0,1-.81-2.992,5.317,5.317,0,0,1,.728-3.15,2.819,2.819,0,0,1,2.407-.967,9.423,9.423,0,0,1,1.845.195V9.23Zm-4.41,9.42a1.293,1.293,0,0,0,.51.39,1.952,1.952,0,0,0,.7.1A3.752,3.752,0,0,0-35.04,19a5.713,5.713,0,0,0,.833-.278l.3-.135V13.505a9.724,9.724,0,0,0-1.785-.18,1.718,1.718,0,0,0-1.59.727,4.405,4.405,0,0,0-.45,2.257A3.715,3.715,0,0,0-37.207,18.65Zm11.685.42.435-.045.03.885a21.532,21.532,0,0,1-2.925.24,2.637,2.637,0,0,1-2.3-.937,5.035,5.035,0,0,1-.675-2.917q0-3.945,3.135-3.945a2.868,2.868,0,0,1,2.265.847,3.947,3.947,0,0,1,.75,2.663l-.06.855h-4.95a3.075,3.075,0,0,0,.45,1.845,1.839,1.839,0,0,0,1.567.6Q-26.677,19.16-25.522,19.07Zm-.405-3.255a3.256,3.256,0,0,0-.442-1.95,1.711,1.711,0,0,0-1.44-.57,1.845,1.845,0,0,0-1.5.6,3.029,3.029,0,0,0-.517,1.92Zm12.645,4.02a14.036,14.036,0,0,1-2.775.315,4.936,4.936,0,0,1-1.988-.337,2.489,2.489,0,0,1-1.17-1.05,4.871,4.871,0,0,1-.57-1.635,14.031,14.031,0,0,1-.157-2.3,14.316,14.316,0,0,1,.157-2.318,4.959,4.959,0,0,1,.57-1.658A2.444,2.444,0,0,1-18.052,9.8a4.888,4.888,0,0,1,1.95-.33,14.392,14.392,0,0,1,2.82.33l-.045.975a15.574,15.574,0,0,0-2.7-.27,2.254,2.254,0,0,0-2.182.983,7.57,7.57,0,0,0-.532,3.352,14.816,14.816,0,0,0,.1,1.905,4.18,4.18,0,0,0,.382,1.3,1.69,1.69,0,0,0,.833.825,4.049,4.049,0,0,0,1.6.247,13.816,13.816,0,0,0,2.5-.27Zm1.215-3.6a4.76,4.76,0,0,1,.735-2.97A3.009,3.009,0,0,1-8.85,12.35a2.986,2.986,0,0,1,2.475.915,4.8,4.8,0,0,1,.727,2.97,5.072,5.072,0,0,1-.69,2.985,2.956,2.956,0,0,1-2.52.93,2.956,2.956,0,0,1-2.52-.93A5.072,5.072,0,0,1-12.067,16.235Zm1.155-.015a4.757,4.757,0,0,0,.4,2.3,1.8,1.8,0,0,0,1.665.66,1.786,1.786,0,0,0,1.658-.653,4.831,4.831,0,0,0,.39-2.3,4.225,4.225,0,0,0-.435-2.272,1.839,1.839,0,0,0-1.613-.622,1.86,1.86,0,0,0-1.62.622A4.165,4.165,0,0,0-10.912,16.22Zm7.1,3.78V12.5h1.11v1.02A7.305,7.305,0,0,1,.038,12.335v1.14a8.08,8.08,0,0,0-1.312.375,8.7,8.7,0,0,0-1.043.45l-.375.195V20Zm5.19,0V12.5h1.11v1.02a7.305,7.305,0,0,1,2.745-1.185v1.14a8.08,8.08,0,0,0-1.312.375,8.7,8.7,0,0,0-1.043.45l-.375.195V20Zm10.14-.93.435-.045.03.885a21.532,21.532,0,0,1-2.925.24,2.637,2.637,0,0,1-2.3-.937A5.035,5.035,0,0,1,6.083,16.3q0-3.945,3.135-3.945a2.868,2.868,0,0,1,2.265.847,3.947,3.947,0,0,1,.75,2.663l-.06.855H7.223a3.075,3.075,0,0,0,.45,1.845,1.839,1.839,0,0,0,1.568.6Q10.358,19.16,11.513,19.07Zm-.405-3.255a3.256,3.256,0,0,0-.442-1.95,1.711,1.711,0,0,0-1.44-.57,1.845,1.845,0,0,0-1.5.6,3.029,3.029,0,0,0-.517,1.92Zm2.55.42a4.76,4.76,0,0,1,.735-2.97,3.009,3.009,0,0,1,2.483-.915,2.986,2.986,0,0,1,2.475.915,4.8,4.8,0,0,1,.727,2.97,5.072,5.072,0,0,1-.69,2.985,2.956,2.956,0,0,1-2.52.93,2.956,2.956,0,0,1-2.52-.93A5.072,5.072,0,0,1,13.658,16.235Zm1.155-.015a4.757,4.757,0,0,0,.4,2.3,1.8,1.8,0,0,0,1.665.66,1.786,1.786,0,0,0,1.657-.653,4.831,4.831,0,0,0,.39-2.3,4.225,4.225,0,0,0-.435-2.272,1.839,1.839,0,0,0-1.612-.622,1.86,1.86,0,0,0-1.62.622A4.165,4.165,0,0,0,14.813,16.22ZM30.968,9.23V20h-1.11v-.51a4.572,4.572,0,0,1-2.28.66,3.324,3.324,0,0,1-1.05-.15,2.154,2.154,0,0,1-.84-.54,4.23,4.23,0,0,1-.81-2.992,5.317,5.317,0,0,1,.728-3.15,2.819,2.819,0,0,1,2.407-.967,9.423,9.423,0,0,1,1.845.195V9.23Zm-4.41,9.42a1.293,1.293,0,0,0,.51.39,1.951,1.951,0,0,0,.7.1,3.752,3.752,0,0,0,.96-.142,5.713,5.713,0,0,0,.833-.278l.3-.135V13.505a9.724,9.724,0,0,0-1.785-.18,1.718,1.718,0,0,0-1.59.727,4.405,4.405,0,0,0-.45,2.257A3.715,3.715,0,0,0,26.558,18.65Zm11.685.42.435-.045.03.885a21.532,21.532,0,0,1-2.925.24,2.637,2.637,0,0,1-2.3-.937,5.035,5.035,0,0,1-.675-2.917q0-3.945,3.135-3.945a2.868,2.868,0,0,1,2.265.847,3.947,3.947,0,0,1,.75,2.663l-.06.855h-4.95a3.075,3.075,0,0,0,.45,1.845,1.839,1.839,0,0,0,1.568.6Q37.087,19.16,38.243,19.07Zm-.4-3.255a3.256,3.256,0,0,0-.443-1.95,1.711,1.711,0,0,0-1.44-.57,1.845,1.845,0,0,0-1.5.6,3.029,3.029,0,0,0-.518,1.92ZM-20.147,26.14v2.52h-6.2l-.357,3a6.866,6.866,0,0,1,2.478-.5q4.494,0,4.494,4.179a5.013,5.013,0,0,1-1.239,3.633,4.653,4.653,0,0,1-3.507,1.281,14.6,14.6,0,0,1-2.194-.189,16.662,16.662,0,0,1-1.964-.4l-.756-.189.315-2.142a28.233,28.233,0,0,0,4.242.4,2.132,2.132,0,0,0,1.575-.546,2.117,2.117,0,0,0,.546-1.565,2.028,2.028,0,0,0-.462-1.48,1.761,1.761,0,0,0-1.3-.462,10.086,10.086,0,0,0-2.478.273l-.315.084-1.722-.4.378-7.5Zm8.967,8.736v-2.52h4.158v7.413a32.078,32.078,0,0,1-4.872.483q-3.339,0-4.589-1.785t-1.25-5.67q0-3.885,1.3-5.607T-12,25.468a22.2,22.2,0,0,1,4.221.441l.756.147L-7.106,28.3a39.835,39.835,0,0,0-4.127-.273,4.826,4.826,0,0,0-2.257.378,2.272,2.272,0,0,0-.955,1.4,13.731,13.731,0,0,0-.3,3.486,7.029,7.029,0,0,0,.609,3.454,2.745,2.745,0,0,0,2.52.987l1.743-.084V34.876Zm6.888-9.156H1.314a5.266,5.266,0,0,1,3.339.892A3.485,3.485,0,0,1,5.766,29.5a4.237,4.237,0,0,1-.357,1.9,3.278,3.278,0,0,1-1.218,1.25,2.854,2.854,0,0,1,1.4,1.155,4.1,4.1,0,0,1,.451,2.1,3.777,3.777,0,0,1-1.218,3.087A5.225,5.225,0,0,1,1.4,40H-4.293Zm5.544,8.316H-1.395v3.486H1.251a2.147,2.147,0,0,0,1.4-.378A1.741,1.741,0,0,0,3.1,35.758Q3.1,34.036,1.251,34.036ZM1.167,28.2H-1.395v3.4H1.188q1.638,0,1.638-1.7A1.485,1.485,0,0,0,1.167,28.2Zm12.74,4.152a12.959,12.959,0,0,1,1.68.18l.36.045-.045.915a17.6,17.6,0,0,0-1.77-.135,2.06,2.06,0,0,0-1.732.608,3.953,3.953,0,0,0-.458,2.25A4.4,4.4,0,0,0,12.37,38.5a2.006,2.006,0,0,0,1.778.645l1.77-.135.045.93a15.423,15.423,0,0,1-2.085.21,2.839,2.839,0,0,1-2.422-.9,5.237,5.237,0,0,1-.667-3.037,4.759,4.759,0,0,1,.72-3A2.967,2.967,0,0,1,13.907,32.35Zm3.135,7.5,4.23-10.47,1.005.375L18.048,40.21Zm11.19-7.35h1.125V40H28.233v-.525a4.3,4.3,0,0,1-2.22.675,2.232,2.232,0,0,1-2.033-.8,5.984,5.984,0,0,1-.5-2.94V32.5H24.6v3.9a5.521,5.521,0,0,0,.285,2.19q.285.555,1.29.555a3.723,3.723,0,0,0,1-.143,4.591,4.591,0,0,0,.78-.278l.27-.135Z" transform="translate(939.375 497.413) rotate(-13)" fill="#fff"/>
  </g>
</svg>
